<?xml version="1.0" encoding="UTF-8"?>
<svg id="_レイヤー_2" data-name="レイヤー 2" xmlns="http://www.w3.org/2000/svg" viewBox="0 0 117.07 21.92">
  <defs>
    <style>
      .cls-1 {
        fill: #ff5a79;
      }

      .cls-1, .cls-2 {
        stroke-width: 0px;
      }

      .cls-2 {
        fill: #80c2ff;
      }
    </style>
  </defs>
  <g id="_レイヤー_1-2" data-name="レイヤー 1">
    <g>
      <path class="cls-2" d="M.46,16.66l-.46-.98,8.72-4.35.46.98L.46,16.66ZM8.45,20.94c-.92.43-1.77.7-2.55.8-.78.1-1.45.04-2.01-.19-.56-.23-.96-.61-1.22-1.16-.23-.49-.29-1.05-.19-1.66.1-.61.35-1.24.75-1.89l1.18.18c-.33.57-.55,1.09-.64,1.56s-.06.88.1,1.22.43.57.8.7c.38.12.84.14,1.4.04.55-.1,1.18-.31,1.87-.64.54-.25,1.08-.55,1.63-.89s1.06-.71,1.53-1.1l.64.97c-.51.41-1.05.79-1.62,1.14-.57.35-1.13.66-1.67.91ZM8.7,17.59c-.48-.4-.93-.82-1.35-1.24-.42-.43-.82-.87-1.2-1.34-.38-.47-.74-.96-1.09-1.47-.34-.51-.67-1.06-.98-1.63l1.11-.6c.3.56.62,1.07.95,1.56.33.48.67.94,1.04,1.38.36.44.75.86,1.17,1.27.42.41.87.81,1.36,1.21l-1,.85Z"/>
      <path class="cls-2" d="M16.07,16.06c1.14-.41,2.05-.83,2.71-1.25.67-.42,1.11-.87,1.33-1.33.22-.47.23-.97.04-1.51-.22-.61-.58-1-1.1-1.16-.51-.16-1.17-.1-1.98.19-.31.11-.64.26-1,.44s-.75.41-1.2.68c-.44.27-.95.6-1.51.99l-.65-1.06c.87-.57,1.62-1.04,2.28-1.4s1.23-.63,1.74-.81c1.15-.41,2.12-.48,2.91-.2.79.28,1.36.87,1.69,1.79.42,1.16.22,2.22-.59,3.18-.81.96-2.21,1.8-4.22,2.52l-.46-1.08Z"/>
      <path class="cls-2" d="M25.35,14.6c-.4-.75-.75-1.5-1.04-2.24s-.54-1.56-.76-2.42c-.22-.86-.38-1.69-.48-2.48-.1-.79-.16-1.61-.17-2.46l1.26-.15c0,.81.06,1.6.16,2.37.1.78.26,1.57.47,2.4.21.82.45,1.6.73,2.33.28.73.61,1.45.98,2.15l-1.16.5ZM25.45,7.16l-.27-1.05,4.5-1.14,1.77-.45.27,1.05-6.27,1.59ZM29.66,13.27c-.79.2-1.45.17-1.98-.08-.53-.26-.88-.72-1.05-1.39-.17-.66-.08-1.23.26-1.7s.91-.81,1.71-1.02c.39-.1.77-.15,1.13-.15.37,0,.77.07,1.2.19.43.12.93.32,1.49.59s1.22.62,1.98,1.06l-.55,1.01c-.71-.41-1.31-.74-1.81-.99-.5-.25-.94-.44-1.31-.56-.37-.12-.71-.18-1.02-.19s-.61.02-.91.1c-.89.23-1.25.69-1.07,1.39.18.7.71.93,1.6.71.53-.13.87-.34,1.04-.62.16-.28.18-.68.05-1.2l-1.21-4.77-.23.06-.6-2.38,1.2-.3.61,2.38.23-.06,1.22,4.83c.21.81.14,1.48-.19,2-.33.52-.93.88-1.79,1.1ZM32.48,5.62c-.29.08-.58.07-.87-.01-.29-.08-.53-.23-.74-.44-.21-.21-.35-.46-.43-.76-.08-.3-.07-.59.01-.88.08-.28.23-.53.44-.74.21-.21.46-.35.76-.43.3-.08.59-.07.88.01.28.09.53.23.74.44s.35.46.43.76c.08.29.07.58-.01.87-.08.29-.23.53-.44.74s-.46.35-.76.43ZM32.23,4.63c.18-.05.31-.15.41-.31.09-.16.12-.32.07-.5-.04-.18-.15-.31-.3-.41-.16-.09-.32-.12-.5-.07-.17.04-.3.14-.4.3-.1.16-.12.32-.08.5.04.17.14.3.31.4.16.09.33.12.5.08Z"/>
      <path class="cls-2" d="M37.96,10.36c1.55-.24,2.78-.57,3.68-.98.91-.42,1.53-.96,1.88-1.63.34-.67.44-1.48.29-2.45-.15-.99-.47-1.7-.97-2.13-.5-.43-1.17-.58-2.01-.45-.47.07-.91.22-1.3.44-.39.22-.72.5-.99.84-.27.34-.46.72-.58,1.15s-.14.88-.07,1.35l.24,1.54-1.22.19-.96-6.23,1.22-.19.4,2.61-.49.07c.18-.55.45-1.03.79-1.44.35-.41.76-.75,1.25-1.02s1.03-.44,1.63-.54c1.19-.18,2.16.03,2.9.65s1.22,1.59,1.42,2.94c.19,1.21.07,2.24-.36,3.1-.42.85-1.17,1.55-2.25,2.09-1.07.54-2.5.95-4.29,1.22l-.24-1.15Z"/>
      <path class="cls-2" d="M52.99,9.81c-.89.05-1.62-.05-2.21-.3s-1.03-.66-1.34-1.22c-.3-.57-.48-1.31-.53-2.22l-.33-5.87,1.29-.07.33,5.87c.05.97.3,1.66.73,2.07.43.41,1.1.59,1.99.54.65-.04,1.22-.19,1.71-.45.48-.26.91-.67,1.28-1.23.37-.55.72-1.28,1.04-2.18l1.22.4c-.27.81-.58,1.5-.9,2.07s-.7,1.04-1.1,1.41c-.41.37-.87.65-1.4.84-.52.19-1.11.3-1.78.34Z"/>
      <path class="cls-2" d="M67.21,9.61c-.95-.04-1.77-.23-2.47-.59-.69-.35-1.22-.84-1.58-1.46-.36-.62-.53-1.33-.49-2.15.03-.66.17-1.26.44-1.8.27-.55.64-1.02,1.12-1.42.48-.4,1.03-.69,1.67-.88l.08.38-5.88-.1.04-1.14,10.08.15-.04,1.14-1.51-.02c-.65,0-1.25.07-1.8.23-.55.16-1.04.4-1.46.72-.42.32-.75.7-.99,1.15s-.37.95-.39,1.52c-.02.62.09,1.15.35,1.6s.63.81,1.12,1.06c.49.26,1.09.4,1.79.42.23,0,.49,0,.79,0s.54-.04.75-.07l.1,1.18c-.24.03-.52.05-.83.06s-.6.01-.86,0Z"/>
      <path class="cls-2" d="M72.08,10.63l-.71-1.04c.37-.29.69-.58.95-.88.27-.29.49-.63.67-1,.18-.37.34-.81.46-1.32.12-.51.24-1.11.33-1.82l.62-4.58,1.19.16-.69,5.11c-.12.88-.3,1.64-.53,2.29-.23.65-.54,1.22-.91,1.71-.37.49-.84.94-1.4,1.36ZM71.74,6.52l.74-5.47,1.07.15-.74,5.47-1.07-.14ZM77.49,11.44l.67-4.94-1.88-.25-.18,1.37-1.19-.16.32-2.38,7.65,1.04-.32,2.38-1.19-.16.19-1.37-2.14-.29-.67,4.93-1.25-.17ZM75.07,10.36l.46-3.4,6.56.89-.27,1.96c-.05.33-.09.59-.14.77s-.12.31-.22.39-.24.12-.42.12c-.18,0-.43-.02-.74-.06-.08-.01-.2-.03-.36-.06-.16-.03-.37-.07-.62-.12l.12-1.06c.18.03.33.06.45.08.12.02.21.04.28.05.13.02.23.03.29.03s.1-.02.12-.07c.02-.05.03-.12.05-.24l.14-1.01-4.19-.57-.33,2.45-1.19-.16ZM75.75,4.6l.13-.95,5.38.73.08-.59-5.14-.7.12-.89,5.14.7.08-.59-5.37-.73.14-1.05,6.66.9-.55,4.08-6.66-.9Z"/>
      <path class="cls-2" d="M91.99,13.38c-.47-.11-.78-.32-.95-.62-.16-.3-.18-.73-.05-1.28l1.02-4.36c.11-.48.14-.85.07-1.11-.07-.26-.23-.42-.49-.48-.16-.04-.36-.03-.6.02-.23.05-.53.16-.89.31-.36.16-.8.38-1.32.66-.52.29-1.14.64-1.87,1.07l-.12-.03c-.41.26-.88.55-1.39.87-.52.33-1.08.69-1.7,1.08l-.46-1.15c1.21-.73,2.24-1.34,3.11-1.84.86-.5,1.6-.9,2.2-1.21.6-.31,1.11-.54,1.52-.69.41-.15.76-.24,1.06-.26.3-.02.58,0,.84.06.61.14,1.02.44,1.25.89.23.45.25,1.04.08,1.76l-.96,4.1c-.06.27-.1.49-.12.64-.02.15,0,.26.03.33s.1.11.19.13c.15.04.36.03.64,0,.28-.04.58-.11.91-.21l.17,1.12c-.4.14-.79.22-1.15.25-.36.03-.71,0-1.03-.07ZM85.22,12.34l1.67-7.13-2.66-.63.25-1.05,2.66.63.41-1.75,1.19.28-2.33,9.93-1.19-.28Z"/>
      <path class="cls-2" d="M99.1,16.09c-1.11-.38-1.92-.85-2.41-1.41-.49-.56-.62-1.17-.4-1.82.19-.55.56-.91,1.13-1.06s1.25-.1,2.05.17c.76.26,1.29.6,1.58,1.02s.34.91.15,1.47c-.07.21-.18.43-.31.64-.14.22-.31.44-.52.66l-1.1-.53c.2-.23.36-.43.48-.6.12-.17.2-.33.25-.47.19-.56-.12-.98-.93-1.25-.42-.14-.76-.18-1.04-.12s-.45.21-.54.46c-.12.34,0,.68.32,1.01.33.33.82.61,1.48.84,1.26.43,2.26.55,3,.38.75-.17,1.25-.64,1.51-1.4.22-.65.14-1.21-.24-1.68-.38-.47-1.08-.88-2.11-1.23-.6-.2-1.15-.33-1.65-.38-.5-.05-.97-.03-1.43.06l-1.83.38-.18-1.09,7.91-1.54-.07.22-5.97-2.02.35-1.02,7.7,2.6-.35,1.02-6.48,1.23-.45-.72c.26,0,.53,0,.83.03s.6.06.91.11.6.11.89.17c.28.06.54.13.77.21,1.15.39,1.96.93,2.41,1.62.45.69.53,1.48.23,2.38-.36,1.05-1.05,1.73-2.08,2.02-1.03.29-2.31.17-3.86-.35Z"/>
      <g>
        <path class="cls-1" d="M115.52,17.67c.39.65.51,1.3.27,1.84-.57,1.28-2.93,1.47-5.27.43-2.34-1.04-3.77-2.93-3.19-4.21.24-.54.81-.89,1.55-1.03-1.34.01-2.39.46-2.77,1.31-.69,1.54,1.05,3.81,3.89,5.08s5.69,1.05,6.38-.49c.38-.85.01-1.93-.87-2.94Z"/>
        <path class="cls-1" d="M112.6,9.93s-.77.9-1.33,2.14c-.46,1.02.1,1.88-.28,2.73-.75,1.69-2.33,2.3-2.33,2.3,0,0,.79-.69,1.45-2.18.23-.51.01-1.99.34-2.73.72-1.61,2.15-2.27,2.15-2.27Z"/>
        <path class="cls-1" d="M114.83,10.93s-.78.9-1.33,2.14c-.46,1.02.1,1.88-.28,2.73-.75,1.69-2.33,2.3-2.33,2.3,0,0,.79-.69,1.45-2.18.23-.51.01-1.99.34-2.73.72-1.61,2.15-2.27,2.15-2.27Z"/>
        <path class="cls-1" d="M117.07,11.93s-.78.9-1.33,2.14c-.46,1.02.1,1.88-.28,2.73-.75,1.69-2.33,2.3-2.33,2.3,0,0,.79-.69,1.45-2.18.23-.51.01-1.99.34-2.73.72-1.61,2.15-2.27,2.15-2.27Z"/>
      </g>
    </g>
  </g>
</svg>