<?xml version="1.0" encoding="UTF-8"?>
<svg id="_レイヤー_2" data-name="レイヤー 2" xmlns="http://www.w3.org/2000/svg" viewBox="0 0 106.79 21.38">
  <defs>
    <style>
      .cls-1 {
        fill: #f19072;
        stroke-width: 0px;
      }
    </style>
  </defs>
  <g id="_レイヤー_1-2" data-name="レイヤー 1">
    <g>
      <path class="cls-1" d="M1.05,16.99l-1.05-.55c.39-.67.73-1.36,1.01-2.06.28-.7.5-1.41.67-2.12.17-.71.27-1.4.31-2.06l1.24-.2c-.01.73-.1,1.49-.27,2.28-.17.79-.42,1.58-.74,2.38s-.71,1.58-1.17,2.34ZM2.38,12.65l-.41-1,6.16-2.54.41,1-6.16,2.54ZM3.26,21.38l-.71-.88c.86-.59,1.6-1.17,2.22-1.76.62-.59,1.14-1.19,1.54-1.81.41-.62.71-1.26.92-1.93.2-.67.31-1.38.32-2.13.01-.75-.06-1.53-.22-2.37l1.2-.4c.26,1.17.34,2.27.26,3.31s-.34,2.03-.78,2.96-1.05,1.81-1.83,2.64c-.79.83-1.76,1.62-2.91,2.37ZM7.8,16.14c-.73-.21-1.51-.42-2.33-.63s-1.62-.41-2.39-.59l.35-1.13c.8.18,1.61.37,2.42.58.81.21,1.58.42,2.31.63l-.36,1.15Z"/>
      <path class="cls-1" d="M13.95,17.12l-3.01-9.87,8.26-2.52,3.01,9.87-1.24.38-.21-.69-5.79,1.77-.31-1.03,5.78-1.77-.96-3.16-5.78,1.77-.32-1.03,5.79-1.77-.89-2.9-5.78,1.76,2.69,8.82-1.24.38Z"/>
      <path class="cls-1" d="M29.63,12.33c-.2.04-.45.06-.77.07-.32,0-.65,0-1.01-.03-.36-.03-.7-.06-1.03-.11l.08-1.13c.28.03.56.06.84.09.28.02.54.04.78.04s.42-.01.54-.04c.27-.05.46-.22.59-.51.12-.29.18-.7.17-1.24-.01-.54-.1-1.21-.26-2-.09-.47-.19-.84-.28-1.12-.09-.28-.21-.48-.34-.6-.13-.12-.31-.19-.53-.19-.22,0-.51.03-.86.1l-5,1.02-.22-1.08,4.88-.99c.53-.11.98-.18,1.34-.21s.66,0,.9.08c.24.08.43.23.59.45s.3.54.42.94c.12.4.24.9.36,1.51.21,1.01.3,1.87.28,2.57-.02.7-.15,1.25-.39,1.65-.25.4-.61.65-1.08.75ZM24.07,13.35c.15-.79.28-1.52.38-2.2.1-.67.19-1.32.26-1.94s.12-1.25.16-1.88c.04-.63.05-1.3.05-2s-.01-1.47-.05-2.3l1.23-.1c.03.81.05,1.57.05,2.27,0,.71-.02,1.39-.05,2.04-.03.66-.09,1.31-.16,1.97-.07.66-.16,1.33-.27,2.03-.11.7-.24,1.45-.39,2.25l-1.21-.13ZM30.93,4.77c-.29-.39-.57-.73-.83-1.03s-.54-.58-.84-.86l.81-.73c.32.29.61.59.88.91.27.32.54.67.83,1.06l-.85.65ZM32.44,3.81c-.28-.4-.54-.75-.8-1.05s-.53-.59-.82-.86l.8-.69c.32.29.61.6.88.92s.53.68.8,1.06l-.86.61ZM33.33,9.88c-.17-.46-.37-.94-.6-1.45-.23-.51-.48-1.03-.74-1.54s-.53-1-.81-1.47l1.07-.6c.28.48.55.99.83,1.51.27.52.53,1.05.77,1.58.24.53.45,1.03.63,1.52l-1.14.45Z"/>
      <path class="cls-1" d="M37.36,3.17l-.07-.68-2.57.27-.11-1.04,2.57-.27-.08-.79,1.25-.13.08.79,3.1-.33-.08-.79,1.25-.13.08.79,2.45-.26.11,1.04-2.45.26.07.63-1.25.13-.07-.63-3.1.32.07.68-1.25.13ZM37.21,7.55c-.35-.21-.73-.42-1.12-.62-.4-.2-.81-.4-1.24-.61l.58-.99c.44.2.85.39,1.24.59.39.2.76.4,1.12.61l-.58,1.01ZM37.42,5.22c-.32-.19-.66-.38-1.02-.58s-.74-.38-1.14-.55l.59-.96c.4.17.78.34,1.16.53.38.19.72.38,1.04.57l-.63.98ZM36.83,11.8l-1.08-.56c.28-.46.55-.95.8-1.48s.46-1.05.62-1.55l1.12.39c-.15.53-.36,1.08-.61,1.64s-.53,1.08-.84,1.57ZM38.71,5.86l-.81-.69c.5-.41.96-.84,1.38-1.31.41-.47.77-.94,1.06-1.43l1.24.1c-.2.39-.45.79-.74,1.18s-.62.78-.98,1.15c-.36.37-.75.7-1.15,1ZM38.43,8.34l-.4-.98c1.46-.51,2.67-1.09,3.63-1.74s1.72-1.36,2.27-2.15l1.21.28c-.44.63-.97,1.22-1.59,1.76-.62.54-1.35,1.05-2.19,1.51-.84.47-1.82.9-2.93,1.31ZM45.93,7.52c-.92-.13-1.79-.31-2.6-.55-.81-.24-1.58-.54-2.31-.9-.73-.36-1.43-.79-2.12-1.29l.86-.69c.44.32.88.62,1.33.87.45.26.93.48,1.44.68s1.05.35,1.64.49,1.22.24,1.91.33l-.14,1.07ZM39.41,11.47l-.39-3.77,6.17-.65.39,3.77-1.28.13-.05-.48-3.65.38-.1-.96,3.65-.38-.14-1.35-3.65.38.29,2.78-1.24.13ZM40.11,4.28l-.1-.99,5.04-.53.1.99-5.04.53Z"/>
      <path class="cls-1" d="M47.47,2.69l-.02-1.08,10.08-.18.02,1.08-10.08.18ZM52.47,10.09c-.36,0-.75,0-1.17-.03s-.84-.06-1.26-.1c-.42-.04-.82-.1-1.19-.16l.12-1.15c.59.1,1.19.18,1.8.23s1.17.08,1.67.07c1.1-.02,1.93-.21,2.49-.55.57-.35.84-.85.83-1.49,0-.54-.22-.95-.63-1.22-.41-.27-1.01-.4-1.79-.39-.67.01-1.3.14-1.89.38-.59.24-1.21.62-1.85,1.13l-1.1-.42c.19-.4.39-.88.58-1.43s.38-1.13.55-1.73c.17-.6.32-1.18.44-1.74.12-.56.2-1.05.24-1.46l1.26.05c-.03.36-.09.77-.18,1.24s-.19.95-.32,1.44-.25.97-.39,1.43c-.14.46-.28.87-.42,1.22l-.23-.21c.55-.32,1.12-.57,1.7-.73.58-.17,1.17-.25,1.78-.27.74-.01,1.38.09,1.91.3.53.21.94.53,1.23.95.29.42.44.92.45,1.52.02.98-.37,1.75-1.17,2.3-.8.55-1.95.83-3.45.86Z"/>
      <path class="cls-1" d="M64.07,10.75c-1.17-.1-2.06-.37-2.67-.8-.61-.43-.88-.99-.82-1.67.05-.58.33-1.02.84-1.3.51-.28,1.19-.39,2.03-.32.8.07,1.4.27,1.78.61.38.34.54.8.49,1.39-.02.22-.07.46-.15.7s-.2.5-.35.76l-1.2-.25c.14-.27.25-.5.33-.7.07-.19.12-.37.13-.52.05-.59-.35-.92-1.2-1-.44-.04-.78,0-1.04.13-.25.12-.39.32-.41.58-.03.36.15.66.55.91.4.25.94.4,1.63.46,1.32.11,2.33,0,3.01-.34.68-.34,1.06-.92,1.13-1.72.06-.69-.15-1.21-.63-1.58-.48-.37-1.26-.6-2.34-.69-.63-.05-1.19-.05-1.69.02-.5.07-.95.2-1.37.4l-1.68.8-.43-1.01,7.32-3.38-.02.23-6.28-.54.09-1.08,8.09.7-.09,1.08-6.01,2.73-.61-.6c.25-.07.52-.12.82-.17.3-.05.6-.08.91-.11.31-.02.61-.04.9-.05.29,0,.55,0,.79.02,1.21.11,2.12.44,2.73,1,.61.56.87,1.31.79,2.25-.1,1.11-.61,1.92-1.54,2.45-.93.53-2.21.72-3.83.58Z"/>
      <path class="cls-1" d="M71.28,10.49l-.55-1.09c.43-.22.86-.5,1.29-.83s.84-.7,1.23-1.09c.39-.4.75-.81,1.07-1.24.32-.43.58-.86.79-1.29l1.03.37c-.3.72-.7,1.41-1.2,2.07-.5.65-1.05,1.24-1.67,1.77s-1.28.97-1.98,1.33ZM72.02,4.56l.2-1.09,4.11.76-.2,1.08-4.11-.76ZM75.07,12.48c-.18-.03-.42-.08-.72-.15-.3-.07-.66-.15-1.07-.24l.15-1.09c.38.09.7.16.97.22.26.06.47.1.62.13.19.04.33.05.41.05.09,0,.15-.05.18-.13.04-.08.07-.22.11-.42l1.63-8.85,1.26.23-1.63,8.85c-.07.39-.15.69-.22.91-.08.22-.18.38-.31.47s-.3.14-.52.14-.5-.04-.86-.1ZM80.9,12.45c-.66-.72-1.24-1.55-1.76-2.47-.52-.92-.94-1.9-1.28-2.94-.33-1.03-.55-2.08-.66-3.14l1.01-.03c.11.91.33,1.83.65,2.76.32.93.74,1.83,1.25,2.69.51.86,1.09,1.65,1.74,2.37l-.95.78ZM78.94,8.02l-.6-1.03c.61-.28,1.2-.62,1.79-1.02s1.18-.87,1.75-1.4l.78.89c-.57.54-1.17,1.03-1.79,1.46-.62.43-1.27.8-1.92,1.1Z"/>
      <path class="cls-1" d="M86.63,15.19l1.06-3.71-4.65-1.33.31-1.07,4.65,1.33,1.21-4.21-4.19-1.2.3-1.04,9.65,2.76-.3,1.04-4.19-1.2-1.21,4.21,4.65,1.33-.31,1.07-4.65-1.33-1.06,3.71-1.27-.36ZM86.09,9.27c-.11-.56-.22-1.12-.36-1.67-.13-.55-.28-1.08-.42-1.58l1.19-.25c.15.5.29,1.03.43,1.58.14.55.26,1.11.36,1.68l-1.2.23ZM91.49,10.81l-.89-.83c.43-.36.84-.74,1.25-1.15.41-.4.77-.8,1.09-1.2l.95.79c-.33.4-.71.81-1.12,1.22-.41.41-.84.8-1.29,1.16Z"/>
      <path class="cls-1" d="M94.2,16.8l-.85-.53c.3-.47.59-.95.87-1.45.28-.5.53-1,.77-1.51l.88.45c-.24.52-.5,1.04-.78,1.55-.28.51-.58,1-.88,1.48ZM94.68,17.68l1.85-4.72,1.14.45-1.85,4.71-1.14-.45ZM94.86,12.79l.35-.99,3.72,1.2-.36.94-3.71-1.16ZM96.48,13.23l-.57-.87c.68-.47,1.34-.95,1.98-1.45.64-.49,1.27-1.02,1.88-1.58l.69.81c-.64.57-1.29,1.1-1.94,1.61s-1.33,1-2.04,1.48ZM96.73,11.91c-.04-.27-.09-.56-.16-.88-.06-.32-.13-.65-.19-.98s-.13-.64-.19-.93l.97-.74c.06.3.13.62.19.95.06.33.13.65.19.97.06.32.11.61.15.87l-.96.74ZM97.42,10.44l-.57-.89c.36-.3.71-.62,1.04-.95.33-.33.66-.66.98-1.01l.78.78c-.36.36-.72.71-1.09,1.05-.37.34-.75.68-1.14,1.01ZM97.35,18.37l-.4-1.07c.47-.1.92-.24,1.35-.43.43-.19.82-.41,1.17-.65s.63-.5.85-.77l.15.51-1.92-.75.36-.92,2.2.86.09.86c-.28.36-.62.69-1.04,1.01-.42.32-.87.59-1.35.83-.48.23-.97.41-1.45.53ZM96.97,16.56c.07-.23.14-.46.21-.69.07-.23.13-.47.19-.71s.12-.48.17-.72l.91.2c-.05.24-.11.48-.17.73s-.13.5-.19.74-.13.48-.21.71l-.92-.26ZM98.39,14.41c.06-.3.11-.62.16-.96.05-.35.09-.69.13-1.04s.07-.66.09-.96l1.01.12c-.03.31-.06.64-.1.98s-.09.7-.14,1.05c-.05.35-.11.68-.16.98l-.99-.18ZM99.68,19.51c-.1-.04-.23-.1-.41-.18-.18-.08-.37-.17-.58-.27l.35-1.02c.18.09.35.17.5.24.15.07.26.12.34.15.13.05.23.08.29.09.06,0,.11-.03.15-.11.04-.08.1-.21.18-.41l1.28-3.27-1.26-.5.35-.89,3.39,1.33.33-.84-3.39-1.33.36-.92,3.39,1.33.31-.78-3.38-1.33-1.34,3.43-1.08-.42,1.72-4.39,5.64,2.21-1.72,4.39-2.15-.84-1.27,3.24c-.15.37-.27.66-.38.87-.11.21-.23.35-.36.42s-.29.09-.48.05c-.19-.04-.44-.12-.75-.24ZM103.12,20.74c-.3-.55-.54-1.17-.73-1.84-.19-.67-.31-1.38-.36-2.1-.06-.73-.04-1.45.04-2.16l.88-.04c-.05.59-.04,1.21.04,1.85.08.64.22,1.27.42,1.9s.45,1.2.76,1.72l-1.05.68ZM102.62,18.36l-.44-.97c.4-.14.8-.32,1.2-.54s.82-.46,1.25-.74l.59.92c-.43.3-.86.56-1.29.78s-.87.41-1.31.56ZM103.96,11.28l-1.2-.56c.07-.08.17-.21.29-.39.13-.17.26-.35.39-.54.13-.18.23-.33.3-.43l1.2.56c-.07.1-.17.25-.3.43-.13.18-.26.36-.39.54-.13.17-.23.3-.29.39Z"/>
    </g>
  </g>
</svg>