<?xml version="1.0" encoding="UTF-8"?>
<svg id="_レイヤー_2" data-name="レイヤー 2" xmlns="http://www.w3.org/2000/svg" viewBox="0 0 135.9 28.93">
  <defs>
    <style>
      .cls-1 {
        fill: #46bcbc;
        stroke-width: 0px;
      }
    </style>
  </defs>
  <g id="_レイヤー_1-2" data-name="レイヤー 1">
    <g>
      <path class="cls-1" d="M2.54,21.34c-.38-.09-.79-.18-1.22-.25-.43-.08-.87-.14-1.32-.2l.22-1.12c.45.05.89.11,1.31.18.42.07.82.15,1.21.24l-.2,1.15ZM3.67,23.95c-.43-.1-.88-.2-1.35-.29-.47-.08-.96-.16-1.46-.22l.21-1.11c.5.05.99.12,1.45.2.47.08.92.17,1.35.27l-.2,1.15ZM4.35,22.47l-1.17-.31c.14-.71.2-1.44.18-2.21s-.11-1.52-.27-2.25l1.15-.38c.2.85.31,1.71.32,2.6.01.89-.06,1.74-.21,2.56ZM4.01,19.54l-.53-.92,5.64-3.24.53.92-5.64,3.24ZM5.52,28.93l-1.23-.08c.04-.63.04-1.29-.01-1.99s-.14-1.36-.27-2.02l1.15-.16c.1.45.18.92.25,1.41.07.49.11.98.13,1.46s.01.94-.03,1.38ZM12.17,25.38c-.17.1-.33.19-.51.28-.17.09-.37.2-.6.32l-.55-.84c.18-.1.35-.19.5-.27.15-.08.28-.15.39-.22.12-.07.2-.12.24-.17s.06-.1.04-.18c-.02-.08-.07-.2-.14-.37-.22-.55-.46-1.11-.72-1.7-.26-.58-.52-1.18-.79-1.78-.27-.6-.54-1.18-.81-1.75l-3.69,2.12c.3.65.59,1.33.88,2.04.29.71.57,1.43.83,2.13s.5,1.39.72,2.05l-1.1.54c-.25-.75-.53-1.54-.83-2.36-.31-.82-.63-1.63-.97-2.44-.34-.81-.68-1.57-1.01-2.28l5.81-3.33c.34.68.68,1.41,1.03,2.18.35.77.69,1.53,1.02,2.29.33.76.63,1.48.91,2.15.16.39.19.69.1.92-.09.22-.33.45-.74.68ZM4.98,24.49l-.53-.92,7.26-4.17.53.92-7.26,4.17ZM10.07,24.69l-1.02.57c-.24-.63-.5-1.28-.77-1.95-.28-.67-.56-1.34-.85-2s-.58-1.29-.86-1.89l1.02-.57c.29.59.57,1.22.86,1.89s.57,1.33.85,2,.53,1.32.77,1.95ZM7.17,26.56l-.51-.89,6.19-3.55.51.89-6.19,3.55Z"/>
      <path class="cls-1" d="M19.2,19.69c.37-.23.68-.51.92-.84.25-.33.42-.7.53-1.11.11-.4.14-.82.1-1.26-.04-.44-.16-.87-.36-1.3-.29-.62-.68-1.09-1.17-1.41s-1.05-.5-1.67-.51c-.62-.02-1.26.13-1.93.44-.57.26-1.05.6-1.45,1.02-.4.42-.7.87-.92,1.38-.22.5-.32,1.02-.32,1.56,0,.54.12,1.06.36,1.57.18.38.4.71.68.99.28.29.56.49.85.62s.54.14.75.04c.3-.14.47-.54.5-1.19.03-.65-.08-1.52-.31-2.6-.24-1.08-.61-2.35-1.1-3.8l1.18-.4c.46,1.39.82,2.61,1.07,3.66.25,1.05.38,1.95.41,2.69.03.74-.05,1.34-.24,1.79s-.49.78-.9.97c-.33.16-.68.21-1.05.17-.37-.04-.73-.16-1.09-.37-.36-.21-.69-.49-1-.84s-.58-.77-.8-1.24c-.31-.67-.48-1.36-.49-2.05-.01-.69.11-1.35.37-1.98.26-.63.65-1.21,1.17-1.73.52-.52,1.14-.96,1.88-1.3.87-.41,1.72-.6,2.54-.58.82.02,1.57.24,2.23.67.66.43,1.19,1.07,1.58,1.91.26.57.42,1.13.48,1.7.06.57.02,1.11-.12,1.64-.14.52-.36,1-.68,1.44-.32.44-.72.81-1.21,1.11l-.78-.87Z"/>
      <path class="cls-1" d="M31.28,16.62c-.1.04-.2.07-.29.11-.1.04-.2.07-.31.1-.31.1-.57.17-.76.21s-.34.06-.46.03c-.11-.02-.2-.08-.27-.18-.07-.09-.13-.22-.19-.39l-.84-2.29-3.18,1.16-.37-1.01,5.46-1.99-.33-.9-5.46,1.99-.33-.9,5.46-1.99-.33-.9-5.46,1.99-.33-.9,5.46-1.99-.33-.9-5.46,1.99,2.02,5.52-1.22.44-2.39-6.54,7.89-2.88,2.39,6.54-2.28.83.63,1.72c.06.17.12.27.17.29.05.02.18,0,.39-.06.08-.02.15-.04.23-.08.07-.03.15-.06.22-.09.08-.03.16-.06.25-.08.08-.03.16-.06.23-.09.16-.06.27-.13.35-.19.08-.06.12-.15.13-.27,0-.12-.02-.3-.08-.54s-.16-.57-.29-.99l1.19-.31c.15.51.27.92.35,1.25.08.33.12.6.12.8s-.05.38-.15.52c-.1.14-.25.26-.45.36-.2.1-.46.22-.78.34-.1.04-.2.07-.3.12-.1.04-.21.08-.31.12ZM24.29,19.37l-.72-.91c.69-.42,1.22-.84,1.6-1.25.38-.41.61-.83.71-1.25.09-.42.07-.83-.09-1.25l1.25-.37c.29.88.21,1.75-.23,2.61s-1.28,1.66-2.52,2.42Z"/>
      <path class="cls-1" d="M35.09,15.08l-.99-.7,5.28-7.17.12.34-6.29,1.69-.29-1.08,7.57-2.04.29,1.08-2.41,3.34-.59.08c-.02-.23.03-.43.15-.58.12-.15.3-.26.54-.33.37-.1.67-.1.89,0,.22.1.4.25.53.46.13.21.26.43.37.65.11.23.23.44.36.63.13.19.29.33.49.42.2.09.46.09.78,0,.13-.04.3-.09.52-.17.22-.08.44-.17.66-.27.23-.1.42-.19.58-.27l.42,1.04c-.2.11-.42.22-.66.33-.24.11-.48.2-.71.28s-.43.15-.61.2c-.45.12-.83.16-1.13.11-.31-.05-.56-.14-.76-.3-.2-.15-.37-.33-.5-.54s-.25-.4-.35-.59c-.09-.19-.18-.35-.28-.49-.09-.14-.19-.24-.31-.3-.12-.06-.26-.07-.44-.02-.07.02-.14.05-.2.1-.07.05-.14.12-.23.22-.09.1-.2.26-.35.46l-2.44,3.4ZM39.89,5.04c-.57.15-1.21.31-1.92.47-.71.16-1.44.31-2.2.46s-1.52.28-2.27.4l-.16-1.14c.76-.11,1.52-.24,2.25-.37.74-.13,1.45-.27,2.13-.42s1.31-.3,1.88-.46l.29,1.07Z"/>
      <path class="cls-1" d="M49.34,11.82c-1.16.2-2.09.18-2.79-.08-.7-.26-1.11-.73-1.23-1.4-.1-.57.06-1.07.48-1.47s1.05-.68,1.88-.83c.79-.14,1.42-.1,1.88.13s.73.63.84,1.22c.04.22.05.46.03.71-.02.25-.06.53-.14.83l-1.22.07c.07-.3.11-.55.13-.75s.02-.38,0-.54c-.1-.58-.58-.8-1.42-.65-.43.08-.76.21-.97.39-.21.18-.29.41-.25.67.06.35.32.6.76.74s1.01.14,1.7.02c1.31-.23,2.25-.6,2.82-1.11.57-.51.79-1.16.65-1.95-.12-.68-.46-1.13-1.01-1.36-.56-.23-1.37-.25-2.44-.06-.62.11-1.16.26-1.63.46-.46.2-.87.44-1.22.74l-1.42,1.21-.68-.87,6.2-5.15.04.22-6.2,1.09-.19-1.06,8-1.41.19,1.06-5.1,4.19-.74-.42c.22-.13.47-.25.74-.38.28-.12.56-.23.85-.34.29-.1.58-.2.86-.28.28-.08.54-.14.77-.18,1.2-.21,2.16-.12,2.89.26.73.39,1.18,1.05,1.34,1.98.19,1.09-.09,2.02-.85,2.76-.76.75-1.95,1.26-3.55,1.55Z"/>
      <path class="cls-1" d="M54.83,8.06l-.13-1.13,10.5-1.31.13,1.13-10.5,1.31ZM54.94,3.72l-.13-1.13,9.55-1.16.13,1.13-9.55,1.16ZM60.11,10.7L58.34.22l1.31-.22,1.77,10.48-1.31.22Z"/>
      <path class="cls-1" d="M66.83,5.45l-.21-1.18,8.69-1.52.21,1.18-8.69,1.52ZM70.02,9.97l-1.32-8.08,1.28-.19,1.32,8.06-1.28.21ZM72.23,6.8c.29-.14.56-.32.81-.54s.47-.47.66-.74c.19-.27.33-.56.44-.85s.16-.59.17-.88l1.22.14c-.02.38-.09.77-.22,1.15-.14.39-.32.75-.54,1.09-.23.34-.49.65-.79.92-.3.27-.63.49-.98.65l-.75-.94Z"/>
      <path class="cls-1" d="M77.74,8.46c1.21,0,2.28-.13,3.24-.37.95-.24,1.79-.61,2.51-1.11.72-.5,1.33-1.12,1.84-1.88.51-.75.91-1.65,1.21-2.68l1.17.37c-.42,1.54-1.06,2.83-1.94,3.86-.87,1.03-1.97,1.79-3.29,2.3s-2.88.76-4.66.76l-.08-1.25ZM81.73,3.76c-.6-.46-1.21-.88-1.84-1.27-.62-.39-1.26-.75-1.9-1.08l.69-1.07c1.3.66,2.57,1.44,3.8,2.37l-.75,1.05Z"/>
      <path class="cls-1" d="M88.36,9.63c1.64.24,3.05.18,4.24-.17,1.19-.35,2.14-1,2.88-1.94.73-.94,1.24-2.17,1.51-3.69l.5.76-8.5-1.53.21-1.18,8.44,1.52-.1.57.71.13c-.31,1.74-.9,3.16-1.76,4.25-.86,1.09-1.97,1.85-3.33,2.27-1.36.42-2.96.49-4.8.21v-1.19ZM98.07,5.1c-.3-.05-.56-.18-.79-.37-.23-.19-.39-.43-.49-.71-.1-.28-.13-.57-.08-.87.06-.31.18-.57.37-.79.19-.22.43-.38.71-.49.28-.1.57-.13.87-.08.31.06.57.18.79.37.22.19.38.43.49.7.1.27.13.57.08.87-.05.3-.18.56-.37.79-.19.22-.43.39-.7.5-.28.1-.57.13-.87.07ZM98.25,4.1c.18.03.35,0,.5-.11.15-.11.24-.25.27-.42.03-.18,0-.35-.11-.5-.1-.15-.25-.24-.43-.27-.17-.03-.34,0-.49.11-.15.1-.25.24-.28.43-.03.17,0,.34.11.49s.25.25.42.28Z"/>
      <path class="cls-1" d="M99.52,5.89l.3-1.1,10.77,2.94-.3,1.1-10.77-2.94ZM100.29,12.07c1.05.27,1.95.43,2.7.47s1.37-.03,1.88-.24c.51-.21.92-.55,1.25-1.03.33-.48.59-1.11.8-1.88l1.2-4.4,1.25.34-1.2,4.4c-.25.93-.59,1.7-1.01,2.29s-.94,1.03-1.58,1.31c-.63.28-1.39.4-2.27.38-.88-.02-1.93-.18-3.12-.48l.09-1.17ZM100.52,9.27l1.61-5.9,1.25.34-1.61,5.9-1.25-.34Z"/>
      <path class="cls-1" d="M110.35,10.65c.82.18,1.7.27,2.63.29.93.02,1.88-.03,2.83-.14.96-.12,1.87-.3,2.74-.55.87-.25,1.65-.55,2.34-.91l.56,1.08c-.58.31-1.24.59-1.96.82-.72.23-1.48.42-2.28.56-.8.14-1.61.24-2.43.3-.82.05-1.63.06-2.42.01-.79-.05-1.54-.14-2.25-.29l.23-1.17ZM113.22,17.61l2.38-6.45,1.26.46-2.38,6.45-1.26-.47Z"/>
      <path class="cls-1" d="M120.17,20.36l4.39-9.34,1.19.56-4.39,9.34-1.19-.56ZM128.88,20.67c-.95-.93-1.91-1.81-2.88-2.66-.97-.84-1.9-1.61-2.78-2.3l.8-.95c.94.71,1.9,1.51,2.89,2.37.99.87,1.93,1.74,2.83,2.63l-.86.91Z"/>
      <path class="cls-1" d="M130.3,24.44l.75-1.37,1.37.75-.75,1.37-1.37-.75ZM131.7,22.27l2.83-5.5,1.37.75-3.14,5.32-1.05-.58Z"/>
    </g>
  </g>
</svg>