<svg width="513" height="156" viewBox="0 0 513 156" fill="none" xmlns="http://www.w3.org/2000/svg">
<path d="M39.3643 93.7994C40.7992 97.4456 41.4556 101.168 41.3335 104.967C41.2009 108.707 40.2776 112.282 38.5636 115.691C38.0663 117.363 37.2042 118.52 35.9771 119.163C34.7501 119.806 33.3685 120.263 31.8322 120.534C31.4776 120.596 30.9806 120.714 30.341 120.888C29.6911 121.002 29.022 121.181 28.3338 121.425C27.6942 121.598 27.0599 121.801 26.4307 122.034C25.8503 122.198 25.3932 122.37 25.0595 122.55L26.5393 128.869C26.6434 129.46 26.6938 130.091 26.6902 130.762C26.6866 131.433 26.6726 132.044 26.6482 132.597C26.6551 133.327 26.7349 133.953 26.8878 134.474C27.0302 134.936 27.1049 135.532 27.1117 136.262C27.1186 136.992 27.1306 137.752 27.1479 138.54C27.2242 139.319 27.3354 140.122 27.4812 140.949C26.5047 139.903 25.5439 138.427 24.5987 136.522C23.6432 134.559 22.7103 132.377 21.8 129.979C20.9383 127.511 20.1202 124.944 19.3455 122.278C18.5707 119.612 17.8412 117.03 17.1568 114.531C16.5316 112.021 15.9723 109.713 15.479 107.607C15.0345 105.431 14.668 103.698 14.3797 102.409C13.3404 103.079 12.3219 103.868 11.3242 104.775C10.3266 105.682 9.3828 106.549 8.4929 107.376C8.23913 107.665 7.91936 107.752 7.53357 107.637C7.20687 107.512 6.91143 107.564 6.64724 107.793C6.45256 108.071 6.23705 108.231 6.00069 108.273C5.82343 108.304 5.63574 108.276 5.43764 108.189C5.23954 108.102 5.07098 108.01 4.93196 107.913C4.78253 107.757 4.64872 107.689 4.53055 107.71C4.34986 107.376 4.27864 107.145 4.31689 107.016C4.34472 106.828 4.3378 106.616 4.29612 106.38C4.2927 106.015 4.29448 105.68 4.30148 105.374C4.23896 105.019 4.33459 104.698 4.58836 104.409C7.63356 100.948 10.597 98.2322 13.4786 96.2618C16.3498 94.2324 19.0576 92.6583 21.602 91.5395C24.3028 90.2712 26.8367 89.6112 29.2036 89.5594C31.5602 89.4485 34.0435 90.2291 36.6535 91.9013C37.3347 91.964 37.9134 92.1361 38.3895 92.4177C38.9143 92.6298 39.2393 93.0904 39.3643 93.7994ZM35.3338 96.3379C34.5276 95.5661 33.5319 95.102 32.3467 94.9454C31.1615 94.7889 29.865 94.8651 28.4573 95.1743C27.0496 95.4834 25.6141 95.9803 24.1507 96.6648C22.736 97.2798 21.4012 98.0025 20.1464 98.833C20.3339 99.8966 20.5684 101.226 20.8497 102.822C21.1206 104.358 21.4123 106.012 21.7249 107.785C22.0861 109.488 22.4525 111.221 22.8242 112.983C23.2445 114.676 23.644 116.25 24.0227 117.707C24.8569 117.255 25.8145 116.812 26.8955 116.378C28.0252 115.874 29.1201 115.346 30.1803 114.793C31.2891 114.171 32.2937 113.476 33.194 112.708C34.1534 111.93 34.8643 110.951 35.3268 109.773C35.5458 108.943 35.7632 107.929 35.9789 106.734C36.2432 105.469 36.4137 104.19 36.4903 102.897C36.5566 101.545 36.4907 100.307 36.2927 99.1846C36.1435 97.9924 35.8238 97.0435 35.3338 96.3379ZM58.6089 96.0722C59.1649 96.4615 59.4099 96.8143 59.3438 97.1306C59.3369 97.4365 59.1804 97.5859 58.8746 97.5789C58.1064 97.7144 57.2653 97.9541 56.3511 98.298C55.4856 98.5725 54.5315 98.8626 53.4887 99.1683C52.4947 99.4045 51.4311 99.5921 50.298 99.7309C49.1649 99.8698 48.0057 99.8609 46.8205 99.7044C46.2645 99.315 46.1915 98.9014 46.6017 98.4635C47.0606 97.9561 47.37 97.2923 47.53 96.4721C47.6135 95.909 47.7873 95.5128 48.0515 95.2834C48.3644 94.9846 48.6929 94.7743 49.037 94.6527C49.687 94.5381 50.5107 94.5452 51.5082 94.6739C52.5544 94.7332 53.4077 94.735 54.0681 94.6795C55.0934 94.6206 55.9519 94.652 56.6436 94.7737C57.3248 94.8364 57.9799 95.2692 58.6089 96.0722ZM58.8731 108.454C59.4672 109.751 59.9519 110.945 60.3271 112.036C60.7614 113.117 61.1019 114.184 61.3485 115.238C61.6438 116.221 61.8853 117.245 62.0728 118.308C62.3194 119.362 62.5521 120.509 62.7709 121.75C62.8126 121.986 62.7118 122.278 62.4684 122.625C62.2738 122.903 62.1434 123.201 62.0773 123.517C61.9347 124.09 61.7852 124.452 61.6288 124.601C61.5314 124.74 61.3211 124.93 60.9979 125.169C60.2331 125.67 59.5831 126.302 59.0477 127.067C58.0816 126.08 57.3206 124.873 56.7647 123.448C56.2679 122.013 55.8197 120.508 55.4202 118.933C55.0798 117.348 54.7099 115.768 54.3104 114.194C53.9596 112.55 53.4715 110.991 52.846 109.517C52.5229 108.721 52.483 108.149 52.7264 107.802C52.9697 107.454 53.2582 107.19 53.5919 107.01C53.9847 106.818 54.4435 106.829 54.9683 107.041C55.5522 107.243 56.1065 107.45 56.6313 107.662C57.0866 107.825 57.4967 107.905 57.8617 107.902C58.2753 107.829 58.6124 108.013 58.8731 108.454ZM87.142 98.809C87.3714 99.0732 87.4825 99.3582 87.4755 99.6641C87.5172 99.9004 87.5241 100.112 87.4963 100.3C87.1174 100.915 86.7958 101.338 86.5316 101.567C86.2674 101.796 85.8121 102.151 85.1655 102.63C85.0091 102.78 84.8527 102.929 84.6962 103.079C84.5989 103.218 84.4616 103.303 84.2843 103.334C83.9889 103.386 83.4745 103.233 82.7412 102.875C82.0669 102.506 81.3336 102.148 80.5412 101.801C79.7488 101.453 78.9181 101.234 78.0492 101.143C77.2394 101.043 76.546 101.256 75.9689 101.784C75.4752 102.785 75.058 104.047 74.7171 105.569C74.3659 107.032 74.1484 108.564 74.0648 110.162C74.0403 111.751 74.2277 113.332 74.6272 114.907C75.0267 116.481 75.7599 117.875 76.8267 119.088C80.3164 118.839 83.2605 117.741 85.659 115.795C88.0471 113.789 90.1658 111.466 92.0153 108.825C92.0882 109.239 92.0378 109.643 91.8639 110.04C91.7387 110.366 91.6188 110.723 91.504 111.108C91.3614 111.682 91.1893 112.261 90.9876 112.844C90.8346 113.359 90.5635 113.894 90.1741 114.45C89.5032 115.482 88.7088 116.506 87.7911 117.521C86.9324 118.525 85.9695 119.456 84.9024 120.315C83.8839 121.103 82.7855 121.785 81.6071 122.358C80.4775 122.862 79.3113 123.159 78.1087 123.249C77.4483 123.304 76.9496 123.24 76.6124 123.056C76.324 122.802 75.8287 122.585 75.1267 122.404C74.7305 122.23 74.2213 122.107 73.5991 122.034C73.0361 121.95 72.5808 121.787 72.2333 121.543C71.5173 120.938 70.9231 120.16 70.4505 119.207C69.8077 117.98 69.3508 116.599 69.08 115.062C68.8091 113.526 68.6372 112.033 68.5644 110.584C68.5403 109.065 68.6013 107.683 68.7475 106.439C68.9527 105.184 69.1458 104.206 69.3266 103.504C69.5457 102.673 69.9629 101.93 70.5782 101.273C71.183 100.557 71.8574 99.8896 72.6013 99.271C73.4043 98.642 74.2125 98.0426 75.0259 97.4727C75.8393 96.9028 76.5988 96.3728 77.3044 95.8828C80.3179 95.3515 83.5971 96.3269 87.142 98.809ZM102.889 105.902C103.716 104.721 104.533 103.48 105.339 102.18C106.195 100.811 107.09 99.4955 108.025 98.234C108.96 96.9724 109.946 95.8239 110.982 94.7882C112.007 93.6935 113.123 92.7657 114.329 92.0047C114.604 91.8344 114.864 91.758 115.111 91.7754C115.417 91.7824 115.707 91.7007 115.982 91.5305C116.454 91.4471 116.868 91.3742 117.223 91.3117C117.577 91.2492 117.923 91.31 118.26 91.4943C119.181 91.8802 119.967 92.5338 120.616 93.4549C121.315 94.3066 121.946 95.292 122.508 96.4113C122.859 97.0196 123.087 97.6192 123.191 98.21C123.354 98.7905 123.652 99.4388 124.082 100.155C124.635 101.215 125.222 102.299 125.844 103.408C126.515 104.448 126.885 105.51 126.954 106.594C126.947 106.9 126.905 107.181 126.829 107.439C126.742 107.637 126.636 107.899 126.511 108.226C126.434 108.483 126.28 108.815 126.047 109.221C125.814 109.628 125.565 109.946 125.301 110.175C125.047 110.464 124.877 110.707 124.79 110.905C124.752 111.034 124.512 111.228 124.07 111.489C123.104 110.502 122.3 109.395 121.657 108.168C121.014 106.941 120.42 105.644 119.875 104.278C119.329 102.912 118.808 101.511 118.311 100.076C117.814 98.6403 117.253 97.1856 116.628 95.7118C116.437 95.319 116.011 95.1504 115.35 95.2059C114.749 95.251 114.077 95.5829 113.333 96.2014C112.637 96.7505 111.93 97.5759 111.21 98.6776C110.491 99.7793 109.907 101.131 109.458 102.733C109.173 103.88 108.928 105.081 108.722 106.336C108.507 107.532 108.237 108.767 107.914 110.043C107.639 111.249 107.246 112.476 106.735 113.723C106.273 114.902 105.647 116.017 104.858 117.07C104.614 117.418 104.413 117.484 104.253 117.268C104.093 117.053 103.761 116.898 103.257 116.804C102.882 116.748 102.654 116.667 102.574 116.559C102.553 116.441 102.402 116.102 102.121 115.542C101.547 114.364 100.913 113.013 100.218 111.491C99.5826 109.958 98.872 108.347 98.0867 106.658C97.3605 104.958 96.6048 103.263 95.8195 101.574C95.0238 99.8258 94.249 98.1956 93.495 96.6835L92.6819 95.1819C92.7584 94.9247 92.9287 94.6815 93.1929 94.4521C93.5162 94.2123 93.8447 94.0021 94.1783 93.8214C94.512 93.6407 94.9013 93.6025 95.3462 93.7069C95.7911 93.8112 96.1317 93.8425 96.368 93.8008C97.018 93.6862 97.6523 94.0009 98.2709 94.7448C98.9485 95.4782 99.5792 96.4637 100.163 97.7011C100.736 98.8795 101.247 100.221 101.695 101.726C102.192 103.162 102.59 104.554 102.889 105.902ZM140.144 81.6953C140.7 82.0847 140.945 82.4375 140.879 82.7538C140.872 83.0596 140.716 83.2091 140.41 83.2021C139.642 83.3375 138.8 83.5772 137.886 83.9212C137.021 84.1956 136.067 84.4857 135.024 84.7915C134.03 85.0277 132.966 85.2152 131.833 85.3541C130.7 85.4929 129.541 85.4841 128.356 85.3275C127.8 84.9382 127.727 84.5245 128.137 84.0867C128.596 83.5793 128.905 82.9155 129.065 82.0952C129.149 81.5322 129.323 81.136 129.587 80.9066C129.9 80.6077 130.228 80.3975 130.572 80.2759C131.222 80.1613 132.046 80.1683 133.043 80.2971C134.09 80.3563 134.943 80.3582 135.603 80.3027C136.629 80.2437 137.487 80.2751 138.179 80.3969C138.86 80.4595 139.515 80.8923 140.144 81.6953ZM140.408 94.0776C141.002 95.3741 141.487 96.5681 141.862 97.6595C142.297 98.7405 142.637 99.8076 142.884 100.861C143.179 101.844 143.42 102.868 143.608 103.932C143.855 104.985 144.087 106.132 144.306 107.373C144.348 107.609 144.247 107.901 144.004 108.249C143.809 108.527 143.679 108.824 143.612 109.14C143.47 109.713 143.32 110.075 143.164 110.224C143.067 110.363 142.856 110.553 142.533 110.793C141.768 111.293 141.118 111.925 140.583 112.69C139.617 111.703 138.856 110.497 138.3 109.071C137.803 107.636 137.355 106.131 136.955 104.556C136.615 102.971 136.245 101.392 135.846 99.817C135.495 98.173 135.007 96.6141 134.381 95.1403C134.058 94.3443 134.018 93.7725 134.262 93.425C134.505 93.0775 134.793 92.8134 135.127 92.6327C135.52 92.4416 135.979 92.452 136.503 92.6641C137.087 92.8658 137.642 93.0727 138.166 93.2848C138.622 93.4482 139.032 93.5282 139.397 93.5248C139.81 93.4518 140.148 93.6361 140.408 94.0776ZM168.677 84.4322C168.907 84.6964 169.018 84.9814 169.011 85.2872C169.052 85.5236 169.059 85.7356 169.031 85.9233C168.653 86.5384 168.331 86.9607 168.067 87.1901C167.803 87.4194 167.347 87.7739 166.701 88.2534C166.544 88.4029 166.388 88.5523 166.231 88.7017C166.134 88.8408 165.997 88.9259 165.819 88.9571C165.524 89.0092 165.01 88.8562 164.276 88.4981C163.602 88.1296 162.869 87.7715 162.076 87.4238C161.284 87.0762 160.453 86.8571 159.584 86.7666C158.775 86.6657 158.081 86.8793 157.504 87.4076C157.01 88.4085 156.593 89.6701 156.252 91.1924C155.901 92.6557 155.684 94.1867 155.6 95.7855C155.575 97.3739 155.763 98.9554 156.162 100.53C156.562 102.104 157.295 103.498 158.362 104.711C161.852 104.462 164.796 103.364 167.194 101.418C169.582 99.4126 171.701 97.0894 173.55 94.4481C173.623 94.8617 173.573 95.2666 173.399 95.6628C173.274 95.9895 173.154 96.3458 173.039 96.7316C172.897 97.305 172.724 97.8837 172.523 98.4676C172.37 98.982 172.099 99.5172 171.709 100.073C171.038 101.105 170.244 102.129 169.326 103.144C168.468 104.148 167.505 105.079 166.438 105.938C165.419 106.727 164.321 107.408 163.142 107.981C162.013 108.485 160.846 108.782 159.644 108.872C158.983 108.928 158.485 108.863 158.148 108.679C157.859 108.425 157.364 108.208 156.662 108.027C156.266 107.853 155.756 107.73 155.134 107.657C154.571 107.573 154.116 107.41 153.768 107.166C153.053 106.562 152.458 105.783 151.986 104.831C151.343 103.603 150.886 102.222 150.615 100.686C150.344 99.1492 150.172 97.6564 150.1 96.207C150.075 94.6881 150.136 93.3065 150.283 92.0623C150.488 90.8076 150.681 89.8292 150.862 89.1271C151.081 88.2964 151.498 87.5527 152.113 86.8959C152.718 86.18 153.393 85.5127 154.136 84.8942C154.939 84.2652 155.748 83.6657 156.561 83.0958C157.374 82.5259 158.134 81.996 158.84 81.506C161.853 80.9746 165.132 81.95 168.677 84.4322ZM187.061 57.2468C187.071 59.3774 187.049 61.6661 186.993 64.113C186.996 66.5495 186.999 68.986 187.002 71.4224C187.005 73.8589 187.052 76.1963 187.142 78.4347C187.232 80.6731 187.393 82.6247 187.626 84.2896L186.984 88.4239C186.643 88.9104 186.466 89.4596 186.452 90.0713C186.438 90.683 186.488 91.3138 186.603 91.9638C186.717 92.6138 186.832 93.2638 186.947 93.9137C187.12 94.5533 187.195 95.1494 187.171 95.702C187.164 96.0079 186.985 96.3745 186.633 96.802C186.331 97.16 186.077 97.4484 185.872 97.6674C185.667 97.8863 185.535 98.001 185.476 98.0114C185.417 98.0218 185.151 98.0687 184.678 98.1521C183.869 94.9439 183.192 91.621 182.646 88.1834C182.091 84.6868 181.664 81.2284 181.365 77.8083C181.115 74.3186 181.034 70.9211 181.122 67.6157C181.199 64.2513 181.465 61.0971 181.921 58.1532C182.164 57.8057 182.428 57.5763 182.713 57.4651C183.047 57.2845 183.429 57.0343 183.86 56.7146C184.545 56.1064 185.183 55.7502 185.774 55.646C186.111 55.8303 186.399 56.0841 186.639 56.4073C186.928 56.6611 187.068 56.9409 187.061 57.2468ZM190.897 106.469C191.703 107.24 191.854 108.097 191.35 109.039C190.895 109.911 190.29 110.627 189.535 111.187C188.938 111.597 188.48 111.769 188.164 111.703C187.907 111.626 187.591 111.56 187.215 111.504C186.958 111.428 186.524 111.383 185.912 111.369C185.349 111.285 184.953 111.111 184.723 110.847C184.195 110.27 183.78 109.643 183.478 108.965C183.224 108.217 183.019 107.401 182.863 106.514C182.8 106.16 182.901 105.868 183.165 105.639C183.419 105.35 183.748 105.14 184.151 105.008C184.603 104.806 185.035 104.669 185.449 104.596C185.863 104.523 186.222 104.49 186.528 104.497C187.091 104.581 187.463 104.789 187.644 105.123C187.814 105.398 188.068 105.627 188.405 105.811C189.357 106.374 190.188 106.594 190.897 106.469ZM225.321 60.8274C225.401 60.9352 225.451 61.0482 225.472 61.1663C225.483 61.2254 225.528 61.3088 225.608 61.4166C225.768 61.6321 225.78 61.8737 225.644 62.1413C225.509 62.4089 225.342 62.4993 225.144 62.4123C224.532 62.3983 223.91 62.3253 223.277 62.1931C222.634 62.0018 221.996 61.8401 221.364 61.708C220.731 61.5758 220.109 61.5027 219.497 61.4887C218.886 61.4748 218.33 61.6033 217.829 61.8743C216.71 62.4372 215.568 63.2174 214.403 64.2147C213.298 65.2017 212.229 66.3954 211.197 67.796C210.213 69.1271 209.325 70.6545 208.532 72.3783C207.798 74.0918 207.244 75.9564 206.868 77.9723C206.44 80.7284 206.607 83.2275 207.367 85.4694C208.118 87.6523 209.249 89.4025 210.761 90.72C212.332 92.027 214.184 92.858 216.318 93.2128C218.501 93.4981 220.845 93.1457 223.351 92.1554C225.169 91.4084 226.852 90.4111 228.398 89.1636C229.945 87.916 231.369 86.6597 232.669 85.3948C232.457 85.9196 232.264 86.3801 232.09 86.7763C231.916 87.1725 231.634 87.6486 231.245 88.2047C231.002 88.5522 230.779 89.0179 230.578 89.6018C230.366 90.1266 230.138 90.5628 229.894 90.9103C228.222 93.5203 225.998 95.5881 223.22 97.1135C222.612 97.4645 222.077 97.7112 221.614 97.8536C221.142 97.937 220.591 98.095 219.962 98.3278C219.016 98.4945 218.076 98.6908 217.141 98.9166C216.206 99.1424 215.269 99.1857 214.331 99.0465C211.575 98.6186 209.057 97.2958 206.777 95.0779C205.752 94.1011 204.803 92.8671 203.931 91.3759C203.107 89.8152 202.451 88.1642 201.961 86.4228C201.52 84.6119 201.261 82.7992 201.185 80.9849C201.109 79.1706 201.319 77.4275 201.816 75.7558C202.807 72.0474 204.156 68.6414 205.863 65.5378C207.63 62.4238 209.955 60.0641 212.84 58.4587C214.773 57.3259 217.244 56.8292 220.254 56.9687C221.015 57.1391 221.917 57.5893 222.96 58.3194C223.307 58.5627 223.655 58.8061 224.002 59.0494C224.35 59.2928 224.718 59.6543 225.107 60.134C225.187 60.2418 225.208 60.3599 225.17 60.4885C225.191 60.6067 225.241 60.7197 225.321 60.8274ZM257.352 64.1356C258.454 65.891 259.522 67.8045 260.558 69.8762C261.652 71.9374 262.51 74.0403 263.132 76.1849C263.803 78.26 264.167 80.3281 264.226 82.3892C264.344 84.4399 263.972 86.3028 263.11 87.978C262.741 88.6522 262.222 88.9876 261.551 88.984C261.304 88.9666 261.071 88.8553 260.852 88.6502C260.633 88.4451 260.36 88.28 260.034 88.1548C259.766 88.0192 259.474 87.9184 259.158 87.8523C258.901 87.7758 258.623 87.5811 258.324 87.2683C257.49 87.72 256.681 88.3195 255.899 89.0666C255.166 89.7443 254.408 90.4567 253.626 91.2039C252.844 91.951 252.032 92.7034 251.191 93.461C250.339 94.1595 249.432 94.7155 248.469 95.129C247.458 95.6119 246.655 95.7231 246.06 95.4623C245.515 95.132 244.905 94.7826 244.231 94.4141C243.754 94.1325 243.452 93.9726 243.323 93.9343C243.184 93.837 242.999 93.4738 242.766 92.8446C242.359 91.5759 242.085 90.1926 241.943 88.6945C241.849 87.127 241.933 85.5282 242.193 83.8981C242.879 79.1469 245.361 75.602 249.64 73.2635C250.14 72.9924 250.667 72.8691 251.22 72.8935C251.821 72.8484 252.408 72.8972 252.982 73.0397C253.555 73.1823 254.11 73.3892 254.645 73.6604C255.239 73.9211 255.774 74.1923 256.251 74.4739L257.872 75.3761C257.99 74.3195 257.773 73.2611 257.221 72.2009C256.717 71.0713 256.051 70.0615 255.224 69.1716C254.387 68.2226 253.481 67.4074 252.508 66.7261C251.535 66.0447 250.639 65.624 249.818 65.464C246.805 65.9954 244.212 67.1837 242.039 69.029C239.915 70.8048 237.929 73.0133 236.079 75.6546C235.982 75.7936 235.85 75.9083 235.683 75.9986C235.575 76.0786 235.467 76.1585 235.36 76.2384C235.203 76.3878 235.002 76.4539 234.755 76.4364C234.567 76.4086 234.506 76.2366 234.572 75.9203C234.593 73.9669 235.006 72.1579 235.809 70.4931C236.601 68.7693 237.608 67.221 238.828 65.8483C240.048 64.4755 241.388 63.2644 242.848 62.215C244.308 61.1655 245.775 60.3281 247.249 59.7026C247.464 59.5428 247.661 59.4472 247.838 59.416C248.064 59.3152 248.325 59.2388 248.62 59.1867C249.034 59.1138 249.439 59.1642 249.835 59.3381C250.231 59.5119 250.691 59.7049 251.216 59.917C251.859 60.1082 252.513 60.3586 253.176 60.668C253.83 60.9183 254.44 61.2677 255.006 61.7162C255.503 62.1159 255.941 62.5261 256.32 62.9467C256.699 63.3674 257.043 63.7636 257.352 64.1356ZM257.12 80.4436C256.63 79.7379 255.944 79.1279 255.061 78.6133C254.238 78.0884 253.327 77.7615 252.33 77.6328C251.322 77.445 250.272 77.5387 249.18 77.9139C248.148 78.2787 247.149 79.0032 246.182 80.0875C245.963 80.9182 245.76 81.8375 245.572 82.8454C245.374 83.7943 245.269 84.757 245.259 85.7337C245.238 86.6513 245.311 87.5828 245.477 88.5282C245.693 89.4041 246.045 90.1949 246.535 90.9005C248.645 89.7364 250.675 88.4646 252.625 87.085C254.575 85.7054 256.251 84.4961 257.652 83.4571C257.944 83.04 258.098 82.7081 258.116 82.4614C258.133 82.2146 258.067 82.013 257.918 81.8566C257.828 81.6897 257.673 81.5037 257.454 81.2986C257.294 81.0831 257.183 80.7981 257.12 80.4436ZM269.709 60.9515C270.334 62.4253 270.763 63.9947 270.996 65.6596C271.228 67.3245 271.437 69.0241 271.621 70.7585C271.853 72.4234 272.15 74.1074 272.511 75.8106C272.921 77.4442 273.641 78.9319 274.669 80.2737C275.434 76.666 276.759 73.2948 278.643 70.1599C280.517 66.966 282.591 64.0415 284.864 61.3864C285.167 61.0284 285.49 60.7886 285.834 60.667C286.227 60.4759 286.59 60.29 286.924 60.1093C287.198 59.9391 287.449 59.8035 287.675 59.7028C287.949 59.5325 288.344 59.5239 288.858 59.6769C290.154 60.1185 291.053 61.2395 291.553 63.04C292.053 64.8405 292.6 67.4248 293.194 70.7928C293.924 69.7502 294.639 68.6189 295.337 67.3991C296.085 66.1097 296.843 64.8794 297.611 63.7082C298.379 62.537 299.198 61.4787 300.067 60.5335C300.936 59.5882 301.901 58.8393 302.961 58.2868C303.295 58.1061 303.649 58.0436 304.025 58.0993C304.449 58.0854 304.838 58.0473 305.192 57.9847C305.429 57.9431 305.63 57.8771 305.797 57.7867C305.954 57.6373 306.155 57.5713 306.402 57.5887C306.767 57.5853 307.094 57.7104 307.382 57.9642C307.73 58.2075 307.994 58.4961 308.174 58.8298C308.567 59.6744 309.111 60.858 309.806 62.3804C310.49 63.8438 311.126 65.3767 311.713 66.979C312.349 68.5119 312.881 69.9718 313.308 71.3587C313.735 72.7455 313.913 73.75 313.839 74.3722C313.815 74.9248 313.73 75.3054 313.584 75.5139C313.497 75.712 313.259 76.0891 312.869 76.6451C312.751 76.666 312.619 76.7807 312.473 76.9892C312.386 77.1873 312.27 77.3906 312.124 77.5991C311.929 77.8772 311.764 78.15 311.628 78.4176C310.662 77.4304 309.858 76.3232 309.215 75.0962C308.572 73.8692 307.978 72.5727 307.432 71.2066C306.887 69.8406 306.366 68.4398 305.869 67.0043C305.372 65.5688 304.811 64.1141 304.186 62.6403C302.628 63.8288 301.452 65.1025 300.655 66.4614C299.908 67.7507 299.353 69.0975 298.992 70.5016C298.62 71.8467 298.312 73.2109 298.068 74.5942C297.825 75.9775 297.453 77.3225 296.952 78.6293C296.479 79.7484 295.97 80.6607 295.424 81.3662C294.878 82.0717 294.393 82.4314 293.969 82.4452C293.604 82.4486 293.281 82.1705 293 81.6109C292.718 81.0513 292.326 80.2066 291.822 79.077C290.804 76.7585 289.784 74.2576 288.763 71.5742C287.8 68.8804 286.826 66.4629 285.839 64.3217C284.779 64.8742 283.771 65.7222 282.815 66.8655C281.907 67.9394 281.09 69.1801 280.364 70.5877C279.627 71.9362 279.004 73.4167 278.497 75.0294C278.048 76.6316 277.777 78.2026 277.683 79.7423C278.722 81.1432 278.975 82.4084 278.443 83.5379C278.231 84.0627 277.891 84.5492 277.421 84.9976C276.942 85.3868 276.378 85.8211 275.732 86.3007C275.391 86.7873 274.974 87.0131 274.481 86.9783C273.987 86.9435 273.556 86.7453 273.188 86.3838C272.809 85.9632 272.564 85.6103 272.453 85.3253C271.765 83.497 271.066 81.6096 270.358 79.6631C269.638 77.6575 269.037 75.6311 268.555 73.5838C268.131 71.5262 267.86 69.472 267.742 67.4213C267.614 65.3115 267.767 63.2435 268.202 61.2172C268.257 60.8418 268.344 60.6437 268.463 60.6229C268.581 60.6021 268.709 60.6403 268.848 60.7377C268.977 60.7759 269.105 60.8142 269.234 60.8524C269.363 60.8907 269.427 60.9098 269.427 60.9098C269.486 60.8994 269.58 60.9133 269.709 60.9515ZM340.863 51.5123C341.784 52.934 342.369 54.3539 342.619 55.772C342.928 57.1797 342.874 58.7733 342.457 60.5529C341.967 61.9187 341.19 63.2133 340.126 64.4366C339.052 65.6008 337.868 66.6625 336.575 67.6216C335.341 68.5703 334.116 69.3956 332.899 70.0976C331.683 70.7995 330.716 71.3659 330 71.7968C330.549 73.5277 331.129 75.436 331.741 77.5215C332.342 79.5479 332.894 81.6438 333.398 83.8093C333.95 85.9052 334.473 88.0063 334.966 90.1127C335.449 92.16 335.876 94.0647 336.248 95.8269C336.31 96.1815 336.258 96.4039 336.091 96.4943C335.925 96.5846 335.749 96.7983 335.565 97.1354C335.419 97.344 335.283 97.6116 335.158 97.9383C335.092 98.2546 334.951 98.4926 334.736 98.6525C334.579 98.8019 334.423 98.9513 334.266 99.1008C334.11 99.2502 333.943 99.3406 333.766 99.3718C332.348 96.5146 330.967 93.3463 329.622 89.8669C328.267 86.3285 326.985 82.6857 325.776 78.9388C324.616 75.1223 323.549 71.3197 322.577 67.531C321.594 63.6833 320.746 60.0858 320.034 56.7386C319.228 57.0027 318.447 57.4144 317.693 57.9739C316.928 58.4743 316.252 58.9591 315.665 59.4282C315.567 59.5672 315.454 59.6176 315.326 59.5793C315.197 59.5411 315.084 59.5915 314.987 59.7305C314.83 59.8799 314.674 60.0294 314.517 60.1788C314.351 60.2691 314.168 60.2709 313.97 60.1839C313.584 60.0692 313.183 59.8658 312.766 59.5738C313.072 57.5093 313.835 55.7906 315.055 54.4179C316.275 53.0452 317.701 51.9714 319.331 51.1965C320.294 50.783 321.799 50.3349 323.846 49.852C325.883 49.3101 328.015 48.9646 330.243 48.8154C332.52 48.5968 334.666 48.6753 336.682 49.0509C338.687 49.3675 340.081 50.188 340.863 51.5123ZM338.146 55.2813C337.771 54.1899 337.029 53.4373 335.92 53.0236C334.811 52.6098 333.562 52.4341 332.172 52.4965C330.781 52.5588 329.363 52.8089 327.917 53.2466C326.52 53.6149 325.291 54.0752 324.231 54.6277C324.544 55.3646 324.888 56.2788 325.263 57.3702C325.638 58.4616 326.019 59.5826 326.404 60.7331C326.79 61.8836 327.146 63.0393 327.473 64.2003C327.858 65.3508 328.154 66.3344 328.359 67.1513C329.429 66.6579 330.597 66.0254 331.862 65.254C333.117 64.4235 334.233 63.4956 335.21 62.4704C336.246 61.4348 337.054 60.3175 337.635 59.1185C338.205 57.8603 338.375 56.5813 338.146 55.2813ZM358.354 27.0432C358.365 29.1738 358.342 31.4626 358.286 33.9094C358.289 36.3459 358.292 38.7824 358.295 41.2189C358.298 43.6553 358.345 45.9927 358.435 48.2311C358.525 50.4695 358.686 52.4211 358.919 54.086L358.277 58.2203C357.936 58.7068 357.759 59.256 357.745 59.8677C357.731 60.4794 357.781 61.1103 357.896 61.7602C358.011 62.4102 358.125 63.0602 358.24 63.7102C358.413 64.3497 358.488 64.9458 358.464 65.4984C358.457 65.8043 358.278 66.171 357.927 66.5984C357.624 66.9564 357.37 67.2448 357.165 67.4638C356.96 67.6827 356.828 67.7974 356.769 67.8078C356.71 67.8182 356.444 67.8651 355.971 67.9485C355.162 64.7403 354.485 61.4174 353.939 57.9798C353.384 54.4832 352.957 51.0248 352.658 47.6047C352.409 44.115 352.327 40.7175 352.415 37.4121C352.492 34.0477 352.758 30.8935 353.214 27.9496C353.457 27.6021 353.721 27.3727 354.006 27.2616C354.34 27.0809 354.722 26.8307 355.153 26.511C355.838 25.9028 356.476 25.5466 357.067 25.4425C357.404 25.6267 357.692 25.8805 357.932 26.2038C358.221 26.4575 358.361 26.7373 358.354 27.0432ZM362.19 76.265C362.996 77.0367 363.147 77.8935 362.643 78.8353C362.188 79.7076 361.583 80.4236 360.829 80.983C360.231 81.3931 359.774 81.5651 359.457 81.499C359.2 81.4225 358.884 81.3564 358.508 81.3007C358.251 81.2242 357.817 81.179 357.205 81.165C356.642 81.0815 356.246 80.9077 356.016 80.6435C355.488 80.0664 355.073 79.439 354.771 78.7612C354.517 78.0139 354.312 77.1971 354.156 76.3108C354.093 75.9562 354.194 75.6643 354.458 75.4349C354.712 75.1465 355.041 74.9362 355.444 74.8042C355.896 74.6027 356.328 74.4655 356.742 74.3925C357.156 74.3196 357.515 74.2866 357.821 74.2936C358.384 74.3771 358.756 74.5857 358.937 74.9194C359.107 75.194 359.361 75.4234 359.698 75.6077C360.65 76.1709 361.481 76.39 362.19 76.265ZM393.94 31.0041C394.204 31.8105 394.249 32.4118 394.075 32.808C393.96 33.1938 393.911 33.7811 393.929 34.5701C393.967 36.5131 393.777 38.3743 393.36 40.1538C392.932 41.8742 392.327 43.6259 391.545 45.4088C392.726 45.2004 394.031 45.0007 395.46 44.8098C396.948 44.6084 398.402 44.5652 399.824 44.6801C400.258 44.7253 400.649 44.8696 400.997 45.1129C401.403 45.3459 401.775 45.5545 402.112 45.7387C402.637 45.9508 403.098 46.1438 403.494 46.3176C403.89 46.4915 404.243 46.7644 404.552 47.1363C405.341 48.1548 405.775 49.2358 405.855 50.3793C405.984 51.4533 405.851 52.6038 405.458 53.8306C404.453 57.115 402.839 60.5679 400.614 64.1893C398.448 67.8003 396.103 71.26 393.579 74.5685C393.11 75.0168 392.673 75.307 392.27 75.439C391.857 75.5119 391.483 75.6388 391.149 75.8194C390.659 76.1496 390.159 76.4206 389.648 76.6325C389.196 76.8341 388.871 76.8914 388.673 76.8045C388.405 76.6689 388.374 76.4916 388.579 76.2727C388.774 75.9946 388.934 75.6923 389.059 75.3656C389.848 73.2768 390.914 71.2002 392.256 69.1358C393.646 67.0019 395.066 64.8628 396.516 62.7185C397.966 60.5742 399.361 58.4699 400.703 56.4055C402.094 54.2716 403.184 52.1602 403.973 50.0715C402.746 49.6785 401.137 49.5358 399.145 49.6433C397.213 49.7403 395.213 49.9712 393.144 50.3358C391.076 50.7005 389.152 51.192 387.373 51.8105C385.593 52.4289 384.302 53.0526 383.499 53.6816C383.572 54.0952 383.671 54.6566 383.796 55.3656C383.91 56.0156 384.006 56.7299 384.082 57.5084C384.159 58.287 384.24 59.0951 384.327 59.9328C384.462 60.7009 384.563 61.4447 384.629 62.1642C384.598 63.0227 384.728 63.7613 385.02 64.38C385.312 64.9988 385.574 65.6227 385.807 66.2518C386.06 66.9991 386.239 67.6682 386.343 68.2591C386.448 68.85 386.557 69.4704 386.672 70.1204C386.734 70.4749 386.837 70.8833 386.979 71.3456C387.111 71.7488 387.125 72.1729 387.021 72.6177C385.172 71.116 383.591 69.2319 382.277 66.9656C380.964 64.6992 379.831 62.2487 378.879 59.614C377.927 56.9793 377.142 54.2542 376.523 51.4388C375.905 48.6234 375.396 45.9105 374.997 43.3002C374.587 40.6308 374.249 38.1926 373.981 35.9854C373.773 33.7679 373.598 31.9101 373.456 30.4121C372.795 30.4676 372.008 30.6673 371.094 31.0113C370.169 31.2962 369.309 31.6002 368.513 31.9233C368.336 31.9546 368.099 31.9963 367.804 32.0483C367.508 32.1004 367.183 32.1577 366.829 32.2203C366.523 32.2133 366.247 32.2011 366 32.1837C365.753 32.1662 365.595 32.1332 365.526 32.0845C365.317 31.9385 365.14 31.9698 364.994 32.1783C364.896 32.3173 364.768 32.2791 364.608 32.0635C364.288 31.6325 364.186 31.2241 364.301 30.8383C364.405 30.3934 364.268 29.9607 363.889 29.5401C364.254 28.5009 365.09 27.7138 366.397 27.1787C367.763 26.6332 369.292 26.1503 370.985 25.73C372.351 25.1845 373.797 24.7467 375.323 24.4167C376.908 24.0763 378.489 23.8889 380.067 23.8543C381.694 23.7503 383.263 23.8391 384.775 24.1209C386.287 24.4026 387.712 24.8825 389.05 25.5604C389.853 25.9672 390.652 26.5269 391.448 27.2395C391.816 27.601 392.232 28.2285 392.694 29.1218C393.205 29.9456 393.62 30.573 393.94 31.0041ZM389.774 31.7386C389.284 31.033 388.578 30.4872 387.657 30.1012C386.785 29.6458 385.845 29.3242 384.837 29.1363C383.888 28.9381 382.896 28.8389 381.86 28.8388C380.883 28.8282 380.011 28.8906 379.243 29.0261C379.25 29.756 379.305 30.9342 379.409 32.5609C379.562 34.118 379.741 35.8229 379.945 37.6755C380.199 39.4585 380.452 41.2416 380.706 43.0247C380.949 44.7487 381.229 46.1616 381.545 47.2634C382.584 46.5928 383.597 45.7744 384.585 44.8083C385.572 43.8422 386.439 42.7144 387.187 41.425C387.934 40.1356 388.532 38.6898 388.981 37.0876C389.488 35.4749 389.753 33.6919 389.774 31.7386ZM434.707 23.8156C434.971 24.622 435.016 25.2233 434.842 25.6195C434.728 26.0053 434.679 26.5927 434.696 27.3817C434.734 29.3246 434.545 31.1859 434.127 32.9654C433.699 34.6858 433.094 36.4374 432.312 38.2204C433.494 38.012 434.799 37.8123 436.228 37.6214C437.715 37.42 439.17 37.3767 440.591 37.4916C441.026 37.5369 441.417 37.6812 441.764 37.9245C442.171 38.1574 442.543 38.366 442.88 38.5503C443.405 38.7624 443.865 38.9554 444.262 39.1292C444.658 39.303 445.01 39.5759 445.32 39.9479C446.109 40.9664 446.543 42.0474 446.623 43.1909C446.751 44.2649 446.619 45.4153 446.226 46.6422C445.221 49.9266 443.606 53.3795 441.381 57.0009C439.215 60.6118 436.87 64.0716 434.347 67.3801C433.877 67.8284 433.441 68.1186 433.038 68.2506C432.624 68.3235 432.251 68.4503 431.917 68.631C431.427 68.9611 430.926 69.2322 430.415 69.4441C429.963 69.6457 429.638 69.703 429.44 69.616C429.173 69.4804 429.141 69.3032 429.347 69.0842C429.541 68.8062 429.701 68.5038 429.826 68.1771C430.616 66.0884 431.681 64.0118 433.023 61.9474C434.414 59.8135 435.834 57.6744 437.283 55.5301C438.733 53.3858 440.129 51.2814 441.471 49.217C442.861 47.0832 443.951 44.9718 444.741 42.883C443.514 42.4901 441.905 42.3474 439.913 42.4548C437.98 42.5519 435.98 42.7828 433.912 43.1474C431.844 43.5121 429.92 44.0036 428.14 44.622C426.361 45.2405 425.069 45.8642 424.266 46.4932C424.339 46.9068 424.438 47.4681 424.563 48.1772C424.678 48.8272 424.774 49.5414 424.85 50.32C424.926 51.0986 425.008 51.9067 425.095 52.7443C425.23 53.5125 425.331 54.2563 425.397 54.9758C425.365 55.8343 425.495 56.5729 425.787 57.1916C426.079 57.8103 426.342 58.4343 426.574 59.0634C426.828 59.8107 427.007 60.4798 427.111 61.0707C427.215 61.6616 427.325 62.282 427.439 62.932C427.502 63.2865 427.604 63.6949 427.747 64.1572C427.879 64.5604 427.893 64.9844 427.788 65.4293C425.939 63.9276 424.358 62.0435 423.045 59.7772C421.731 57.5108 420.598 55.0603 419.646 52.4256C418.694 49.7908 417.909 47.0658 417.291 44.2504C416.673 41.435 416.164 38.7221 415.765 36.1118C415.355 33.4424 415.016 31.0041 414.749 28.797C414.541 26.5795 414.365 24.7217 414.223 23.2237C413.563 23.2792 412.776 23.4789 411.861 23.8229C410.937 24.1078 410.077 24.4118 409.281 24.7349C409.103 24.7662 408.867 24.8078 408.571 24.8599C408.276 24.912 407.951 24.9693 407.596 25.0318C407.291 25.0248 407.014 25.0126 406.768 24.9952C406.521 24.9778 406.363 24.9448 406.293 24.8961C406.085 24.7501 405.907 24.7814 405.761 24.9899C405.664 25.1289 405.535 25.0906 405.376 24.8751C405.056 24.4441 404.953 24.0357 405.068 23.6499C405.172 23.205 405.035 22.7723 404.656 22.3517C405.022 21.3125 405.858 20.5253 407.164 19.9903C408.531 19.4448 410.06 18.9619 411.753 18.5415C413.119 17.996 414.565 17.5583 416.09 17.2283C417.675 16.8879 419.257 16.7005 420.835 16.6659C422.462 16.5619 424.031 16.6507 425.543 16.9325C427.055 17.2142 428.48 17.6941 429.818 18.372C430.62 18.7788 431.42 19.3385 432.216 20.0511C432.584 20.4126 432.999 21.04 433.461 21.9334C433.972 22.7572 434.387 23.3846 434.707 23.8156ZM430.541 24.5502C430.051 23.8445 429.346 23.2987 428.425 22.9128C427.553 22.4574 426.612 22.1357 425.605 21.9479C424.656 21.7497 423.663 21.6505 422.628 21.6503C421.651 21.6398 420.779 21.7022 420.01 21.8377C420.017 22.5676 420.073 23.7458 420.177 25.3725C420.329 26.9296 420.508 28.6345 420.713 30.487C420.967 32.2701 421.22 34.0532 421.473 35.8363C421.717 37.5603 421.996 38.9732 422.312 40.075C423.352 39.4043 424.365 38.586 425.352 37.6198C426.339 36.6537 427.207 35.526 427.954 34.2366C428.702 32.9472 429.3 31.5014 429.748 29.8992C430.256 28.2865 430.52 26.5035 430.541 24.5502ZM473.66 18.7749C475.822 19.9778 477.603 21.6134 479.003 23.6817C480.452 25.6804 481.608 27.9137 482.469 30.3816C483.321 32.7903 483.887 35.3103 484.168 37.9415C484.498 40.5031 484.59 42.9239 484.443 45.204C486.251 46.4694 487.835 47.6826 489.198 48.8437C490.549 49.9457 492.016 51.1798 493.597 52.546C494.313 53.1508 494.569 53.5627 494.364 53.7817C494.218 53.9902 494.023 54.2682 493.779 54.6158C493.595 54.9529 493.326 55.1527 492.971 55.2152C492.794 55.2465 492.641 55.243 492.513 55.2047C492.234 55.01 491.983 54.9631 491.757 55.0639C491.579 55.0951 491.352 55.0134 491.074 54.8187C489.565 53.8662 488.008 52.9831 486.403 52.1696C484.797 51.356 482.99 50.6085 480.981 49.927C479.715 51.7342 478.299 53.2025 476.731 54.3319C475.153 55.4022 473.241 56.1353 470.996 56.5312C471.406 57.1291 471.608 57.5809 471.601 57.8868C471.642 58.1231 471.555 58.3213 471.34 58.4811C471.017 58.7209 470.594 58.9172 470.073 59.0701C469.551 59.2229 469.143 59.3254 468.848 59.3775C468.552 59.4296 468.189 59.6155 467.758 59.9352C467.316 60.1958 466.943 60.3226 466.637 60.3156C464.565 60.3153 462.503 59.6738 460.449 58.391C458.162 56.479 456.53 53.9641 455.554 50.8463C454.568 47.6693 453.994 44.4195 453.835 41.0967C453.676 37.7739 453.824 34.6405 454.28 31.6967C454.794 28.7424 455.405 26.5024 456.11 24.9766C456.681 23.7185 457.35 22.5038 458.118 21.3326C458.886 20.1614 459.823 19.0824 460.929 18.0954C461.408 17.7062 461.923 17.3413 462.472 17.0008C463.08 16.6498 463.72 16.4761 464.391 16.4797C465.002 16.4937 465.43 16.3269 465.673 15.9794C465.976 15.6214 466.363 15.4008 466.836 15.3174C468.018 15.109 468.734 15.196 468.984 15.5784C469.224 15.9017 469.302 16.3448 469.218 16.9079C469.125 17.4118 468.996 17.8915 468.832 18.3468C469.069 18.3051 469.335 18.2582 469.63 18.2061C469.985 18.1436 470.35 18.1402 470.725 18.1958C471.031 18.2028 471.288 18.2793 471.497 18.4253C471.764 18.5609 472.056 18.6618 472.372 18.7278C472.748 18.7835 472.995 18.8009 473.113 18.7801C473.28 18.6897 473.462 18.688 473.66 18.7749ZM464.885 21.8758C461.635 25.5561 459.568 29.7284 458.685 34.3927C457.86 39.0465 457.917 44.0325 458.855 49.3504C459.164 49.7224 459.676 50.2108 460.392 50.8156C461.108 51.4205 461.883 52.015 462.717 52.599C463.611 53.1726 464.552 53.6767 465.543 54.1113C466.533 54.5459 467.458 54.7789 468.316 54.8103C470.259 54.7724 472.178 54.2513 474.072 53.2471C475.967 52.2429 477.601 50.7972 478.974 48.9101C477.302 48.4128 475.821 47.7905 474.532 47.043C473.291 46.226 472.101 45.522 470.961 44.931C470.475 44.5903 470.073 44.3869 469.757 44.3209C469.5 44.2444 469.176 43.9662 468.787 43.4865C468.638 43.3301 468.419 43.125 468.13 42.8713C467.891 42.548 467.726 42.3029 467.635 42.1361C467.465 41.8615 467.265 41.5921 467.036 41.3279C466.806 41.0637 466.65 40.6953 466.567 40.2225C467.276 40.0975 467.936 40.042 468.548 40.056C469.219 40.0596 469.865 40.0979 470.487 40.171C472.573 40.5953 474.531 41.1638 476.363 41.8766C478.253 42.579 479.887 43.2048 481.263 43.7542C481.343 42.8262 481.298 41.707 481.128 40.3966C480.958 39.0863 480.665 37.7672 480.248 36.4394C479.879 35.0421 479.433 33.7196 478.908 32.4717C478.373 31.1648 477.746 30.0264 477.027 29.0566C476.787 28.7333 476.403 28.2831 475.875 27.7061C475.395 27.0595 474.832 26.4582 474.186 25.902C473.588 25.2762 472.952 24.7791 472.278 24.4106C471.604 24.0421 470.971 23.9099 470.38 24.0141C468.489 24.3475 467.191 24.2413 466.486 23.6956C465.839 23.1393 465.306 22.5328 464.885 21.8758ZM501.084 1.87608C501.094 4.00669 501.071 6.29544 501.015 8.74233C501.019 11.1788 501.022 13.6153 501.025 16.0517C501.028 18.4882 501.075 20.8256 501.165 23.064C501.255 25.3024 501.416 27.254 501.649 28.9189L501.007 33.0532C500.666 33.5397 500.489 34.0888 500.475 34.7006C500.461 35.3123 500.511 35.9431 500.626 36.5931C500.74 37.2431 500.855 37.8931 500.97 38.543C501.143 39.1826 501.218 39.7787 501.194 40.3313C501.187 40.6372 501.007 41.0038 500.656 41.4313C500.354 41.7893 500.1 42.0777 499.895 42.2966C499.69 42.5156 499.558 42.6303 499.499 42.6407C499.44 42.6511 499.174 42.698 498.701 42.7813C497.892 39.5732 497.214 36.2503 496.669 32.8127C496.114 29.3161 495.687 25.8577 495.388 22.4376C495.138 18.9479 495.057 15.5504 495.145 12.245C495.221 8.88055 495.488 5.72638 495.943 2.78252C496.187 2.43498 496.451 2.20563 496.736 2.09444C497.07 1.91375 497.452 1.66356 497.883 1.34385C498.568 0.735697 499.206 0.379526 499.797 0.275337C500.134 0.459597 500.422 0.713363 500.662 1.03664C500.95 1.2904 501.091 1.57022 501.084 1.87608ZM504.92 51.0978C505.726 51.8696 505.877 52.7263 505.373 53.6682C504.918 54.5405 504.313 55.2564 503.558 55.8159C502.96 56.226 502.503 56.398 502.187 56.3319C501.93 56.2554 501.614 56.1893 501.238 56.1336C500.981 56.0571 500.547 56.0119 499.935 55.9979C499.372 55.9144 498.976 55.7406 498.746 55.4764C498.218 54.8993 497.803 54.2719 497.5 53.5941C497.247 52.8468 497.042 52.03 496.886 51.1436C496.823 50.7891 496.924 50.4972 497.188 50.2678C497.442 49.9794 497.77 49.7691 498.174 49.6371C498.625 49.4356 499.058 49.2983 499.472 49.2254C499.885 49.1525 500.245 49.1195 500.551 49.1265C501.114 49.21 501.486 49.4186 501.667 49.7523C501.837 50.0269 502.091 50.2563 502.428 50.4406C503.38 51.0038 504.211 51.2229 504.92 51.0978Z" fill="#393737"/>
</svg>
