<?xml version="1.0" encoding="UTF-8"?>
<svg id="_レイヤー_2" data-name="レイヤー 2" xmlns="http://www.w3.org/2000/svg" viewBox="0 0 94.73 17.96">
  <defs>
    <style>
      .cls-1 {
        fill: #f90;
        stroke-width: 0px;
      }
    </style>
  </defs>
  <g id="_レイヤー_1-2" data-name="レイヤー 1">
    <g>
      <path class="cls-1" d="M.38,11.27l-.38-1.07,7.46-2.67.38,1.07L.38,11.27ZM6.86,17.43c-.87.31-1.67.49-2.4.53-.73.04-1.33-.05-1.81-.28-.49-.23-.81-.58-.99-1.06-.14-.4-.17-.88-.07-1.43.1-.55.31-1.2.65-1.95l1.21.24c-.28.59-.47,1.1-.57,1.53s-.1.78,0,1.04c.1.28.32.48.65.6s.75.16,1.26.11c.51-.05,1.07-.19,1.69-.41.38-.14.8-.31,1.24-.52.44-.21.86-.43,1.27-.67.41-.24.75-.46,1.04-.66l.63.97c-.28.21-.64.44-1.07.68-.43.24-.89.48-1.36.7-.48.22-.93.41-1.36.56Z"/>
      <path class="cls-1" d="M14.32,9.75c-.42-.7-.8-1.4-1.13-2.08-.34-.69-.65-1.38-.93-2.09l1.2-.5c.29.7.6,1.39.93,2.06.33.67.7,1.33,1.1,1.99l-1.17.62ZM17.78,14.41c-1.44.37-2.59.45-3.43.25-.84-.2-1.37-.73-1.59-1.6-.17-.67-.06-1.36.33-2.06.39-.7,1.09-1.43,2.09-2.19,1.01-.76,2.35-1.59,4.02-2.49l.57,1.02c-1.44.77-2.6,1.47-3.49,2.09-.89.62-1.51,1.2-1.88,1.72-.37.52-.5,1.01-.38,1.46.13.53.49.84,1.08.93.59.09,1.41,0,2.48-.27.34-.09.7-.19,1.07-.31.37-.12.77-.27,1.21-.44s.93-.37,1.46-.59l.43,1.07c-.7.31-1.38.58-2.05.82-.67.24-1.31.44-1.91.59ZM18.52,6.34c-.31-.38-.6-.71-.88-.99-.27-.28-.57-.56-.88-.82l.77-.77c.33.27.64.56.93.87s.58.65.88,1.02l-.82.69ZM19.98,5.31c-.3-.39-.58-.73-.85-1.02-.27-.29-.56-.56-.86-.82l.77-.73c.33.28.64.57.92.88s.56.65.85,1.02l-.82.66Z"/>
      <path class="cls-1" d="M23.42,5.04l-.16-1.07,8.9-1.37.16,1.07-8.9,1.37ZM23.66,8.19l-.16-1.07,9.37-1.44.16,1.07-9.37,1.44ZM30.89,11.6c-.7.11-1.28.15-1.76.13s-.87-.12-1.17-.29c-.3-.18-.53-.44-.71-.8-.17-.35-.3-.82-.39-1.39-.03-.18-.07-.46-.12-.84s-.11-.82-.17-1.33c-.06-.51-.13-1.05-.2-1.63-.07-.58-.14-1.16-.2-1.75s-.13-1.15-.19-1.68l1.25-.17c.05.49.11,1.01.17,1.56.06.55.12,1.11.19,1.66s.13,1.08.19,1.57c.06.49.11.93.17,1.32.05.38.09.68.13.9.06.41.15.74.25.99.1.25.25.43.44.55.19.12.44.18.76.18s.72-.03,1.2-.1c.66-.1,1.17-.23,1.53-.38.36-.15.61-.34.73-.58.12-.24.16-.54.1-.9-.02-.15-.07-.32-.13-.51-.06-.19-.12-.35-.18-.48l1.18-.46c.1.26.19.49.25.68.06.2.1.4.14.6.09.6.03,1.11-.17,1.53s-.58.75-1.12,1.02c-.54.26-1.25.46-2.15.6Z"/>
      <path class="cls-1" d="M35.72,6.42l-.06-1.08,9.46-.53.06,1.08-9.46.53ZM35.78,3.27l-.06-1.08,8.99-.51.06,1.08-8.99.51ZM42.58,10.51c-.7.04-1.29.03-1.77-.04s-.85-.2-1.13-.41c-.28-.2-.49-.49-.63-.86-.14-.37-.22-.84-.25-1.42-.01-.18-.02-.47-.04-.85-.01-.38-.03-.83-.04-1.34s-.03-1.06-.04-1.64-.02-1.17-.03-1.76c0-.59-.02-1.16-.02-1.69l1.26-.05c0,.49,0,1.01.02,1.57,0,.56.02,1.11.03,1.67.01.56.02,1.08.04,1.58.01.5.02.94.04,1.33.01.39.03.69.04.91.02.42.07.75.15,1.01.08.26.21.45.38.58.18.13.42.22.74.25s.71.04,1.2.01c.66-.04,1.18-.11,1.56-.23s.63-.28.78-.51c.15-.22.21-.52.19-.89,0-.15-.04-.32-.08-.52s-.09-.36-.14-.49l1.22-.34c.08.27.14.5.18.71.04.2.07.41.08.61.03.61-.07,1.11-.32,1.5s-.65.7-1.21.9c-.56.21-1.29.34-2.2.39Z"/>
      <path class="cls-1" d="M47.76,10.82l-.54-1.08c.47-.29.89-.58,1.26-.87.38-.29.72-.61,1.04-.95l.66.9c-.32.36-.67.7-1.07,1.02-.39.33-.85.65-1.37.97ZM48.77,8.71l.12-3.09-1.34-.05.04-1.08,2.57.1-.16,4.17-1.22-.05ZM49.74,3.3c-.32-.39-.64-.77-.96-1.14-.32-.37-.65-.74-.99-1.09l.89-.71c.33.36.66.72.98,1.09.32.37.64.75.95,1.14l-.87.71ZM54.54,10.88c-.78-.03-1.46-.08-2.04-.15s-1.07-.17-1.47-.29c-.4-.12-.74-.27-1.01-.46-.27-.19-.49-.41-.66-.67s-.31-.57-.43-.93l1.07-.07c.1.21.22.4.36.55.14.15.32.28.53.39s.49.2.81.27.72.13,1.2.17c.48.04,1.05.08,1.73.1l3.79.15-.11,1.08-3.76-.15ZM51.07,9l-.96-.94c.15-.29.27-.59.38-.9.1-.31.19-.68.27-1.12.07-.43.13-.97.18-1.61s.09-1.44.13-2.38l-.82-.03.04-1.06,1.44.06.04-1.02,1.26.05-.04,1.02,1.6.06-.04,1.06-2.25-.09c-.03.86-.07,1.6-.12,2.22-.04.63-.1,1.17-.15,1.63-.06.46-.13.87-.22,1.22-.08.35-.19.67-.31.96-.12.29-.26.58-.42.88ZM53.01,9.21c-.11,0-.29-.03-.53-.06-.24-.04-.5-.08-.78-.12v-1.07c.19.04.34.07.46.08.12.02.22.03.3.03.07,0,.14-.03.2-.11.06-.07.11-.24.15-.49.04-.25.08-.63.12-1.14.04-.51.07-1.19.1-2.06l-1.46-.06.04-1.08,2.7.1c-.04.95-.07,1.76-.11,2.43s-.08,1.22-.13,1.66-.11.79-.17,1.04c-.07.26-.14.44-.23.56-.08.12-.18.19-.29.22-.11.03-.24.04-.38.04ZM54.72,3.38l-.93-.7c.37-.36.71-.77,1.03-1.22.32-.45.59-.93.81-1.42l1.12.31c-.25.58-.54,1.12-.88,1.64-.34.52-.72.98-1.13,1.39ZM56.09,9.26c-.14,0-.34-.02-.59-.04-.25-.02-.52-.05-.81-.07l-.02-1.07c.2.02.4.04.6.06.2.02.35.03.46.03s.18,0,.22-.02.07-.06.09-.15c.02-.08.03-.23.03-.42l.04-.96-1.62-.06.04-1.08,1.62.06.03-.86,1.26.05-.03.86,1.1.04-.04,1.08-1.1-.04-.04,1.12c-.01.35-.03.63-.06.84-.03.21-.08.36-.16.45-.08.09-.19.15-.35.17s-.38.03-.66.02ZM54.98,3.93l.04-1.04,3.45.13-.04,1.04-3.45-.13ZM55.65,2.11l.04-1.08,2.91.11-.04,1.08-2.91-.11ZM57.06,5.82l-.84-.73c.27-.26.51-.53.73-.79.22-.27.43-.57.64-.91l.85.67c-.21.34-.43.66-.64.94s-.46.55-.73.82Z"/>
      <path class="cls-1" d="M69.38,11.49c-.51-.67-.97-1.3-1.39-1.88-.42-.58-.82-1.14-1.18-1.68s-.73-1.08-1.09-1.63c-.25-.38-.45-.67-.6-.87-.15-.2-.28-.35-.39-.43s-.21-.14-.32-.15c-.1-.01-.21,0-.34.07-.12.06-.28.19-.46.37-.19.19-.44.47-.77.83-.33.38-.69.78-1.1,1.22-.41.44-.89.94-1.46,1.51l-.85-.94c.58-.57,1.08-1.08,1.51-1.53.43-.45.82-.87,1.16-1.24.41-.46.75-.81,1.01-1.05s.51-.39.73-.46c.22-.07.47-.09.73-.05.2.03.37.07.53.14.15.06.3.16.46.3.15.13.32.32.49.55.18.23.39.54.64.91.61.92,1.22,1.79,1.82,2.63.6.84,1.24,1.68,1.9,2.54l-1.02.85ZM68.02,5.24c-.13-.43-.27-.84-.43-1.23-.16-.39-.34-.8-.56-1.23l1.05-.42c.22.42.4.84.56,1.25s.31.83.44,1.28l-1.06.35ZM69.88,4.8c-.12-.44-.25-.85-.41-1.25-.15-.4-.33-.8-.53-1.23l1.03-.38c.21.42.39.84.55,1.25.16.41.3.84.41,1.29l-1.06.32Z"/>
      <path class="cls-1" d="M75.81,13.75c-1.14-.27-1.99-.66-2.53-1.17-.54-.51-.73-1.1-.58-1.77.13-.57.47-.96,1.02-1.17s1.23-.22,2.06-.02c.79.18,1.34.47,1.67.86.33.39.42.87.29,1.45-.05.22-.13.44-.25.67s-.27.46-.46.71l-1.15-.42c.18-.25.32-.46.42-.64.1-.18.17-.35.2-.49.14-.58-.21-.96-1.05-1.16-.43-.1-.78-.11-1.04-.02s-.43.26-.49.51c-.08.35.05.68.41.98.36.3.87.53,1.55.69,1.29.3,2.3.34,3.03.09.73-.24,1.18-.75,1.37-1.54.16-.67.03-1.22-.39-1.65-.42-.43-1.16-.77-2.22-1.02-.62-.14-1.17-.22-1.67-.22-.5,0-.97.06-1.42.2l-1.78.55-.28-1.06,7.72-2.29-.05.22-6.13-1.44.25-1.05,7.91,1.86-.25,1.05-6.34,1.84-.52-.68c.25-.03.53-.05.83-.05.3,0,.61,0,.92.03.31.02.61.05.9.08.29.04.55.08.78.13,1.18.28,2.04.74,2.55,1.38s.67,1.42.45,2.34c-.25,1.08-.88,1.82-1.87,2.2-1,.39-2.29.39-3.88.02Z"/>
      <path class="cls-1" d="M87.59,7.33l7.14.79-2.45,7.24c-.4,1.18-1.65,1.59-2.73,1.23-.52-.18-.96-.64-.77-1.2.27-.81,1.57-1.22,2.5-.9.26.09.53.24.67.39l1.74-5.15-6.16-.69-1.92,5.68c-.4,1.18-1.65,1.59-2.73,1.23-.52-.18-.96-.64-.77-1.2.27-.81,1.56-1.22,2.5-.9.26.09.53.24.67.39l2.34-6.91Z"/>
    </g>
  </g>
</svg>