<svg width="772" height="468" viewBox="0 0 772 468" fill="none" xmlns="http://www.w3.org/2000/svg">
<path d="M763.677 365.038C771.667 351.703 774.053 335.779 770.206 321.334C766.618 307.888 758.147 297.124 745.737 290.188C730.553 281.717 710.819 279.202 691.732 276.761C666.153 273.506 641.999 270.417 634.175 253.494C626.482 236.867 643.867 218.187 663.268 207.867C670.037 204.26 677.435 201.023 684.593 197.898C699.703 191.276 715.332 184.433 726.854 173.54C738.635 162.406 744.887 147.887 744.924 131.593C744.96 111.544 735.232 90.2562 718.864 74.6463C703.587 60.0722 677.25 41.2442 608.634 24.8575C450.15 -12.965 277.888 -7.47191 123.584 40.3194C75.1454 55.3374 20.2337 72.3344 4.79041 114.355C-2.82954 135.088 -2.66308 165.772 14.9072 187.596C29.2408 205.407 50.8245 212.472 68.1728 218.15C70.7621 219.001 72.5746 219.426 76.9579 220.462C84.023 222.126 97.1915 225.233 130.371 233.982C132.961 234.666 135.088 235.239 137.159 235.776L142.282 237.144C164.051 242.896 185.08 259.949 182.601 278.536C180.271 295.959 161.295 306.834 141.228 318.356C126.284 326.92 110.841 335.779 101.186 348.096C92.0498 359.767 88.9612 373.842 92.2718 388.823C97.062 410.462 114.743 431.38 138.398 443.42C176.665 462.895 225.695 464.431 265.089 465.67C300.803 466.779 338.884 467.982 378.057 467.982C483.238 467.982 596.316 459.381 692.638 417.638C729.036 401.862 751.619 385.142 763.677 365.019V365.038Z" fill="#FF0000"/>
</svg>
