<svg width="32" height="32" viewBox="0 0 32 32" fill="none" xmlns="http://www.w3.org/2000/svg">
<g clip-path="url(#clip0_45_690)">
<path d="M23.2707 32C23.0467 32 22.8173 31.972 22.5907 31.912L1.97334 26.3907C0.56001 26.0013 -0.282657 24.5373 0.0880101 23.124L2.68934 13.428C2.78534 13.072 3.15068 12.8653 3.50534 12.956C3.86134 13.0507 4.07201 13.4173 3.97734 13.772L1.37734 23.4653C1.19201 24.172 1.61601 24.908 2.32401 25.104L22.9333 30.6227C23.6413 30.8093 24.372 30.388 24.556 29.684L25.5973 25.8253C25.6933 25.4693 26.0587 25.2573 26.4147 25.3547C26.7707 25.4507 26.98 25.8173 26.8853 26.172L25.8453 30.0253C25.532 31.212 24.452 32 23.2707 32Z" fill="black"/>
<path d="M29.3333 24H8.00001C6.52934 24 5.33334 22.804 5.33334 21.3333V5.33334C5.33334 3.86267 6.52934 2.66667 8.00001 2.66667H29.3333C30.804 2.66667 32 3.86267 32 5.33334V21.3333C32 22.804 30.804 24 29.3333 24ZM8.00001 4.00001C7.26534 4.00001 6.66668 4.59867 6.66668 5.33334V21.3333C6.66668 22.068 7.26534 22.6667 8.00001 22.6667H29.3333C30.068 22.6667 30.6667 22.068 30.6667 21.3333V5.33334C30.6667 4.59867 30.068 4.00001 29.3333 4.00001H8.00001Z" fill="black"/>
<path d="M12 12C10.5293 12 9.33334 10.804 9.33334 9.33334C9.33334 7.86267 10.5293 6.66667 12 6.66667C13.4707 6.66667 14.6667 7.86267 14.6667 9.33334C14.6667 10.804 13.4707 12 12 12ZM12 8.00001C11.2653 8.00001 10.6667 8.59867 10.6667 9.33334C10.6667 10.068 11.2653 10.6667 12 10.6667C12.7347 10.6667 13.3333 10.068 13.3333 9.33334C13.3333 8.59867 12.7347 8.00001 12 8.00001Z" fill="black"/>
<path d="M6.09333 22.5733C5.92266 22.5733 5.752 22.508 5.62133 22.3787C5.36133 22.1187 5.36133 21.696 5.62133 21.436L11.9187 15.1387C12.6733 14.384 13.992 14.384 14.7467 15.1387L16.6213 17.0133L21.8107 10.7867C22.188 10.3347 22.7427 10.072 23.3333 10.0667H23.348C23.932 10.0667 24.4853 10.32 24.8667 10.764L31.84 18.9C32.08 19.1787 32.048 19.6 31.768 19.84C31.4893 20.08 31.0693 20.0493 30.828 19.768L23.8547 11.632C23.7253 11.4827 23.5467 11.4 23.348 11.4C23.2093 11.388 22.9653 11.484 22.836 11.64L17.1787 18.428C17.0587 18.572 16.884 18.6587 16.696 18.6667C16.5067 18.68 16.3267 18.6053 16.1947 18.472L13.804 16.0813C13.552 15.8307 13.1133 15.8307 12.8613 16.0813L6.564 22.3787C6.43466 22.508 6.264 22.5733 6.09333 22.5733Z" fill="black"/>
</g>
<defs>
<clipPath id="clip0_45_690">
<rect width="32" height="32" fill="white"/>
</clipPath>
</defs>
</svg>
