<svg width="20" height="20" viewBox="0 0 20 20" fill="none" xmlns="http://www.w3.org/2000/svg">
<path d="M2.49813 6.25C2.15313 6.25 1.87344 5.97 1.87344 5.625C1.87344 4.93562 2.43407 4.375 3.12344 4.375C3.46844 4.375 3.74844 4.655 3.74844 5C3.74844 5.345 3.46844 5.625 3.12344 5.625H3.12282C3.12282 5.97 2.84344 6.25 2.49813 6.25Z" fill="black"/>
<path d="M11.4631 5.625H3.12344C2.77844 5.625 2.49844 5.345 2.49844 5C2.49844 4.655 2.77844 4.375 3.12344 4.375H11.4631C11.8081 4.375 12.0881 4.655 12.0881 5C12.0881 5.345 11.8081 5.625 11.4631 5.625Z" fill="black"/>
<path d="M2.49844 17.5C2.15344 17.5 1.87344 17.22 1.87344 16.875V5.625C1.87344 5.28 2.15344 5 2.49844 5C2.84344 5 3.12344 5.28 3.12344 5.625V16.875C3.12344 17.22 2.84376 17.5 2.49844 17.5Z" fill="black"/>
<path d="M3.12344 18.125C2.43407 18.125 1.87344 17.5644 1.87344 16.875C1.87344 16.53 2.15344 16.25 2.49844 16.25C2.84344 16.25 3.12344 16.53 3.12344 16.875V16.8756C3.46844 16.8756 3.74844 17.155 3.74844 17.5003C3.74844 17.8456 3.46876 18.125 3.12344 18.125Z" fill="black"/>
<path d="M14.3734 18.125H3.12344C2.77844 18.125 2.49844 17.845 2.49844 17.5C2.49844 17.155 2.77844 16.875 3.12344 16.875H14.3734C14.7184 16.875 14.9984 17.155 14.9984 17.5C14.9984 17.845 14.7188 18.125 14.3734 18.125Z" fill="black"/>
<path d="M14.3734 18.125C14.0284 18.125 13.7484 17.845 13.7484 17.5C13.7484 17.155 14.0284 16.875 14.3734 16.875H14.3741C14.3741 16.53 14.6534 16.25 14.9988 16.25C15.3438 16.25 15.6234 16.53 15.6234 16.875C15.6234 17.5644 15.0628 18.125 14.3734 18.125Z" fill="black"/>
<path d="M14.9984 17.4998C14.6534 17.4998 14.3734 17.2198 14.3734 16.8748V8.53516C14.3734 8.19016 14.6534 7.91016 14.9984 7.91016C15.3434 7.91016 15.6234 8.19016 15.6234 8.53516V16.8748C15.6234 17.2198 15.3438 17.4998 14.9984 17.4998Z" fill="black"/>
<path d="M8.74844 11.8749C8.58844 11.8749 8.42844 11.814 8.30657 11.6918C8.0625 11.4477 8.0625 11.0521 8.30657 10.808L17.0566 2.05805C17.3003 1.81398 17.6966 1.81398 17.9403 2.05805C18.1844 2.30211 18.1844 2.69773 17.9403 2.9418L9.19032 11.6918C9.06844 11.814 8.90844 11.8749 8.74844 11.8749Z" fill="black"/>
<path d="M17.4984 3.125H13.1234C12.7784 3.125 12.4984 2.845 12.4984 2.5C12.4984 2.155 12.7784 1.875 13.1234 1.875H17.4984C17.8434 1.875 18.1234 2.155 18.1234 2.5C18.1234 2.845 17.8438 3.125 17.4984 3.125Z" fill="black"/>
<path d="M17.4984 7.5C17.1534 7.5 16.8734 7.22 16.8734 6.875V2.5C16.8734 2.155 17.1534 1.875 17.4984 1.875C17.8434 1.875 18.1234 2.155 18.1234 2.5V6.875C18.1234 7.22 17.8438 7.5 17.4984 7.5Z" fill="black"/>
</svg>
