<svg width="36" height="36" viewBox="0 0 36 36" fill="none" xmlns="http://www.w3.org/2000/svg">
<path d="M19.3623 3.9927L26.1771 2.66308C26.4729 2.60513 26.772 2.74164 26.9231 3.00201C27.025 3.17779 29.4316 7.37128 30.478 12.7348C30.7194 13.9724 30.8257 15.201 30.801 16.3691C30.7895 17.284 30.6793 18.2049 30.4736 19.0962C30.4151 19.3488 30.347 19.5996 30.2695 19.8471C29.6881 21.7035 28.6894 22.9719 27.4183 23.4959L28.8902 31.4289L32.06 30.8103C32.8629 30.6538 33.691 31.1004 33.9964 31.8598C34.048 31.9886 34.0793 32.1218 34.1057 32.2575C34.131 32.386 34.1587 32.514 34.1678 32.645C34.1966 33.0601 34.0705 33.4756 33.8198 33.8071C33.5641 34.1452 33.1881 34.3787 32.7722 34.46L25.04 35.9687C24.3696 36.0994 23.6588 35.8014 23.2743 35.2381C23.1737 35.0906 23.0968 34.9272 23.0485 34.7552C22.9892 34.5449 22.9411 34.3169 22.9304 34.0985C22.9106 33.697 23.0378 33.2935 23.2798 32.973C23.5344 32.636 23.9134 32.4003 24.3281 32.3193L27.5046 31.6994L26.0321 23.7642C24.7341 23.7524 23.4121 23.0345 22.2284 21.6876C22.1314 21.5777 22.0389 21.4648 21.9474 21.3503C21.0784 20.2662 20.3511 18.9006 19.8171 17.3691C19.5417 16.5775 19.3236 15.7651 19.1632 14.9425C18.1165 9.57925 18.7702 4.78866 18.7984 4.58734C18.8405 4.28934 19.0668 4.05038 19.3623 3.9927ZM24.3949 33.8398C24.341 33.9197 24.3375 34.0161 24.3509 34.1087C24.3633 34.1938 24.3787 34.2889 24.41 34.3694C24.4671 34.5177 24.6088 34.6143 24.7698 34.583L32.5017 33.0743C32.5948 33.0562 32.6764 32.9952 32.7214 32.912C32.7829 32.7989 32.7494 32.6813 32.7269 32.5627C32.7066 32.4561 32.6912 32.3509 32.6066 32.2743C32.5327 32.2072 32.4286 32.177 32.3306 32.1963L24.5984 33.705C24.4858 33.7269 24.4226 33.7989 24.3949 33.8398ZM25.9396 4.14789L20.1401 5.27948C20.0058 6.62201 19.7361 10.507 20.5486 14.6722C20.6134 15.0043 20.6886 15.3309 20.7713 15.6519H29.389C29.3659 14.7939 29.2676 13.9037 29.0924 13.0051C28.281 8.84811 26.5685 5.34265 25.9396 4.14789ZM21.8098 18.4903C22.1693 19.2233 22.6 19.9262 23.1199 20.5571C23.878 21.4777 24.6778 22.06 25.4479 22.2671C25.836 22.3701 26.2439 22.383 26.6322 22.2753C27.287 22.093 27.8589 21.5865 28.3099 20.8342C28.8312 19.9586 29.1077 18.944 29.2571 17.9426C29.3008 17.6512 29.3327 17.3576 29.3549 17.0637H21.2066C21.3819 17.5496 21.5816 18.0269 21.8098 18.4903Z" fill="black"/>
<path d="M21.7867 12.2533C21.7647 12.2552 21.743 12.2563 21.7216 12.2563C21.3607 12.2563 21.0528 11.9809 21.0193 11.6145C20.8869 10.1626 20.8498 8.66217 20.9094 7.15485C20.9251 6.76511 21.25 6.46161 21.6428 6.47726C22.0325 6.49264 22.3357 6.82086 22.3204 7.2106C22.263 8.65668 22.2984 10.0951 22.4256 11.4862C22.461 11.8746 22.1748 12.2179 21.7867 12.2533Z" fill="black"/>
<path d="M1.86025 32.4297C1.91051 32.1713 1.96599 31.9098 2.09124 31.6755C2.19835 31.4747 2.35161 31.2976 2.52959 31.1561C2.92455 30.8419 3.44338 30.7136 3.93941 30.8106L7.11281 31.4297L8.66134 23.4932C5.94002 22.3621 4.60793 17.8544 5.60686 12.7348C6.65331 7.37128 9.06014 3.17779 9.16176 3.00201C9.31283 2.74164 9.61248 2.60541 9.90773 2.66309L16.7228 3.99271C17.0181 4.05038 17.2447 4.28934 17.2867 4.58734C17.315 4.78866 17.9684 9.57925 16.922 14.9425C15.923 20.0621 12.9938 23.7384 10.047 23.7637L8.49846 31.7002L11.6716 32.3193C12.3324 32.4481 12.8749 32.9774 13.0276 33.6319C13.1179 34.0205 13.0581 34.4366 12.935 34.8116C12.8153 35.1766 12.5711 35.4971 12.2514 35.7097C11.8748 35.9602 11.4038 36.0552 10.9597 35.9687L3.2275 34.46C2.30218 34.2793 1.67925 33.3564 1.86025 32.4297ZM15.9444 5.27948L10.1453 4.14789C9.51607 5.3432 7.80358 8.84839 6.99251 13.0051C6.95653 13.1894 6.9244 13.3731 6.89501 13.5563H15.7299C16.2996 9.83468 16.0661 6.50253 15.9444 5.27948ZM3.29451 32.9395C3.32198 32.9804 3.38488 33.0521 3.49776 33.0741L11.2297 34.583C11.3272 34.602 11.4321 34.572 11.5054 34.5053C11.5892 34.4298 11.6062 34.321 11.6263 34.2158C11.6471 34.1082 11.6774 33.9942 11.6309 33.8887C11.5897 33.795 11.5016 33.7245 11.4011 33.705L3.66915 32.196C3.5104 32.1649 3.36675 32.2644 3.30935 32.4097C3.25029 32.5585 3.19838 32.7967 3.29451 32.9395ZM10.153 22.3487C10.7619 22.3121 11.3316 22.0334 11.8163 21.6768C12.3011 21.3203 12.7194 20.8787 13.0894 20.4057C13.3135 20.119 13.5195 19.8182 13.7104 19.5084C14.0732 18.9201 14.4055 18.2579 14.6945 17.5391C15.0298 16.7075 15.2869 15.8445 15.4753 14.968H6.73241C6.64232 16.2526 6.6989 17.5666 6.99718 18.8229C7.08232 19.1813 7.18862 19.5351 7.32018 19.8792C7.81566 21.1745 8.55944 22.0144 9.429 22.2687C9.66356 22.3366 9.90883 22.3629 10.153 22.3487Z" fill="black"/>
<path d="M17.4417 0.705871C17.4417 0.316132 17.7578 0 18.1475 0C18.5375 0 18.8534 0.316132 18.8534 0.705871V2.99954C18.8534 3.38928 18.5375 3.70541 18.1475 3.70541C17.7578 3.70541 17.4417 3.38928 17.4417 2.99954V0.705871Z" fill="black"/>
<path d="M21.0102 2.67133C20.8773 2.89023 20.6447 3.01108 20.406 3.01108C20.2813 3.01108 20.1547 2.97785 20.0404 2.90836C19.7073 2.70593 19.601 2.2717 19.8034 1.93854L20.6735 0.505922C20.8759 0.173036 21.3099 0.0667433 21.6433 0.269166C21.9765 0.471589 22.0825 0.905824 21.8801 1.23898L21.0102 2.67133Z" fill="black"/>
<path d="M16.1145 2.90836C16.0002 2.97785 15.8736 3.01108 15.7489 3.01108C15.5102 3.01108 15.2776 2.89023 15.1446 2.67133L14.2748 1.23899C14.0724 0.905827 14.1784 0.471592 14.5115 0.269169C14.845 0.0667462 15.2789 0.172764 15.4814 0.505925L16.3512 1.93854C16.5539 2.2717 16.4476 2.70594 16.1145 2.90836Z" fill="black"/>
<path d="M10.6364 8.79015C10.3678 9.52624 10.125 10.2722 9.91242 11.0264C9.82838 11.3247 9.78223 11.6386 9.49467 11.8117C9.24171 11.9636 8.91074 11.9397 8.68278 11.7521C8.46882 11.5763 8.38148 11.2909 8.44904 11.0242C8.5416 10.6581 8.65147 10.2953 8.7627 9.93411C8.87751 9.5603 8.99946 9.18841 9.12772 8.81899C9.19117 8.63607 9.24857 8.44738 9.32493 8.2694C9.37684 8.14773 9.46336 8.04226 9.57212 7.96728C9.82069 7.79589 10.1602 7.80331 10.401 7.98596C10.6444 8.17135 10.7416 8.50286 10.6364 8.79015Z" fill="black"/>
<path d="M21.4107 14.3465C21.4107 14.7379 21.7282 15.0554 22.1196 15.0554C22.5113 15.0554 22.8285 14.7379 22.8285 14.3465C22.8285 13.9548 22.5113 13.6376 22.1196 13.6376C21.7282 13.6376 21.4107 13.9548 21.4107 14.3465Z" fill="black"/>
<path d="M10.328 5.94608C10.328 6.33746 10.6455 6.65497 11.0369 6.65497C11.4283 6.65497 11.7458 6.33746 11.7458 5.94608C11.7458 5.55441 11.4283 5.23718 11.0369 5.23718C10.6455 5.23718 10.328 5.55441 10.328 5.94608Z" fill="black"/>
</svg>
