<svg width="30" height="30" viewBox="0 0 30 30" fill="none" xmlns="http://www.w3.org/2000/svg">
<g clip-path="url(#clip0_45_699)">
<path d="M28.5167 30H21.4667C21.143 30 20.8806 29.7376 20.8806 29.414V9.99903C20.8807 9.90116 20.9053 9.80481 20.9521 9.7189L24.476 3.24725C24.6306 2.96291 24.9865 2.85777 25.2708 3.01237C25.37 3.06634 25.4516 3.14792 25.5056 3.24725L29.0319 9.7189C29.0785 9.80487 29.1029 9.90122 29.1028 9.99903V29.414C29.1028 29.7376 28.8404 30 28.5167 30ZM22.0527 28.8279H27.9307V10.1485L24.9905 4.75221L22.0527 10.1485V28.8279Z" fill="black"/>
<path d="M22.6387 30H1.48268C1.15901 30 0.896637 29.7376 0.896637 29.414V9.99902C0.896696 9.90115 0.921309 9.8048 0.968134 9.71889L4.49434 3.24724C4.5969 3.05877 4.79428 2.94139 5.00888 2.94133H24.9929C25.3165 2.94133 25.5789 3.2037 25.5789 3.52737V25.2958C25.5789 25.6195 25.3165 25.8819 24.9929 25.8819C24.6692 25.8819 24.4068 25.6195 24.4068 25.2958V4.11341H5.36051L2.06872 10.1485V28.8279H22.6387C22.9624 28.8279 23.2248 29.0903 23.2248 29.414C23.2248 29.7376 22.9624 30 22.6387 30Z" fill="black"/>
<path d="M28.5173 30C28.346 30 28.1833 29.9251 28.0719 29.7949L24.9905 26.196L21.9097 29.7943C21.693 30.0347 21.3224 30.054 21.082 29.8373C20.8503 29.6284 20.8228 29.2746 21.0195 29.0325L24.5457 24.9143C24.7563 24.6685 25.1262 24.6399 25.372 24.8505C25.3949 24.8701 25.4163 24.8914 25.4359 24.9143L28.9621 29.0325C29.1728 29.2781 29.1445 29.6481 28.8988 29.8588C28.7926 29.9499 28.6573 30 28.5173 30Z" fill="black"/>
<path d="M25.8713 4.11342H4.71528C3.57942 4.09408 2.67422 3.15759 2.69356 2.02172C2.71249 0.912817 3.60702 0.0185775 4.71587 0H25.8719C27.0078 0.0191635 27.9131 0.955539 27.8939 2.0914C27.8752 3.20025 26.9808 4.09467 25.8719 4.11342H25.8713ZM4.71587 1.17208C4.22728 1.18468 3.84143 1.59092 3.85403 2.07951C3.86617 2.55039 4.24504 2.92927 4.71587 2.94134H25.8719C26.3605 2.92874 26.7464 2.52249 26.7338 2.03391C26.7216 1.56303 26.3428 1.18415 25.8719 1.17208H4.71587Z" fill="black"/>
<path d="M15.4304 24.8376C14.958 24.8379 14.5039 24.6546 14.164 24.3265L10.4491 20.7458C9.48682 19.8175 8.2913 19.0862 6.89594 18.5728C6.51197 18.4323 6.16175 18.2126 5.86802 17.9281L5.45252 17.5273C5.21963 17.3025 5.21307 16.9315 5.43787 16.6986C5.44268 16.6937 5.44754 16.6888 5.45252 16.684L8.7783 13.4789C9.00539 13.2597 9.36522 13.2597 9.59231 13.4789L10.0078 13.8798C10.3012 14.161 10.5305 14.5022 10.68 14.8802C11.2104 16.2228 11.9664 17.3732 12.9263 18.3003L16.657 21.8992C16.9973 22.2269 17.1866 22.6809 17.1798 23.1533C17.172 23.627 16.9655 24.0758 16.6107 24.3898C16.286 24.6796 15.8656 24.839 15.4304 24.8376ZM6.70489 17.1071C6.87719 17.268 7.08007 17.3925 7.30148 17.4734C8.85097 18.0436 10.1842 18.8605 11.2643 19.9025L14.9745 23.4826C15.2089 23.7112 15.594 23.7264 15.8272 23.5166C16.045 23.3296 16.0701 23.0015 15.8831 22.7836C15.8705 22.769 15.8571 22.755 15.843 22.7419L12.1129 19.1424C11.031 18.0987 10.1819 16.8088 9.5929 15.3097C9.50447 15.0882 9.36932 14.8883 9.19673 14.7237L9.18853 14.7149L6.70489 17.1071Z" fill="black"/>
<path d="M5.86099 17.6932C5.70909 17.6933 5.56305 17.6345 5.45369 17.5291L3.37618 15.5242C3.13743 15.3057 3.12102 14.935 3.33955 14.6963C3.55809 14.4575 3.92876 14.4411 4.16751 14.6596C4.17507 14.6666 4.1824 14.6736 4.18954 14.6809L6.26764 16.6858C6.50036 16.9107 6.50663 17.2817 6.28171 17.5144C6.17148 17.6285 6.01969 17.693 5.86099 17.6932Z" fill="black"/>
<path d="M7.523 16.0897C7.37115 16.09 7.22517 16.0309 7.11629 15.9251L5.03819 13.9202C4.80529 13.6954 4.79873 13.3245 5.02353 13.0916C5.24834 12.8587 5.6193 12.8521 5.8522 13.0769L7.92912 15.0818C8.16213 15.3064 8.16899 15.6773 7.94436 15.9104C7.83389 16.025 7.68158 16.0897 7.52241 16.0897H7.523Z" fill="black"/>
<path d="M9.18501 14.4857C9.03317 14.486 8.88719 14.4269 8.7783 14.3211L6.69844 12.3162C6.45969 12.0977 6.44328 11.727 6.66182 11.4883C6.88035 11.2495 7.25102 11.2331 7.48978 11.4516C7.49734 11.4586 7.50466 11.4656 7.51181 11.4729L9.59225 13.4789C9.82526 13.7036 9.83212 14.0745 9.60749 14.3076C9.49691 14.4223 9.3443 14.4871 9.18496 14.4869L9.18501 14.4857Z" fill="black"/>
<path d="M13.2369 19.9986C12.9132 19.999 12.6506 19.7368 12.6503 19.4132C12.6501 19.2538 12.7148 19.1012 12.8296 18.9906L13.1736 18.6589C13.9034 17.9473 14.7958 17.4243 15.7733 17.1352C16.3593 16.9653 16.9623 16.6049 17.464 16.1214C18.1766 15.434 18.6191 14.5537 18.6191 13.8253C18.6191 13.4561 18.5101 13.1631 18.295 12.9556C17.6146 12.2986 16.0845 12.6661 14.9546 13.7573C14.4564 14.2378 14.0855 14.8122 13.9102 15.3759C13.6028 16.3355 13.0586 17.2021 12.3279 17.8959L12.0472 18.1673C11.8202 18.398 11.4492 18.401 11.2184 18.1739C10.9877 17.9469 10.9847 17.5759 11.2118 17.3452C11.2189 17.3379 11.2263 17.3308 11.2338 17.3239L11.511 17.0561C12.1003 16.4994 12.5399 15.8033 12.7892 15.0319C13.0236 14.27 13.4924 13.541 14.137 12.9169C15.7633 11.3474 17.9463 10.9952 19.1067 12.1152C19.5532 12.5459 19.7894 13.1384 19.7888 13.8281C19.7888 14.8795 19.2233 16.0551 18.2751 16.9676C17.6304 17.5905 16.8762 18.0388 16.0962 18.2639C15.3029 18.4999 14.5788 18.9253 13.9864 19.5034L13.6424 19.8351C13.5334 19.9399 13.3881 19.9985 13.2369 19.9986Z" fill="black"/>
<path d="M7.89689 24.6811C7.43533 24.6831 6.99117 24.5048 6.65918 24.1841C5.98335 23.5379 5.95939 22.4662 6.60561 21.7904C6.62308 21.7722 6.64089 21.7543 6.65918 21.7368L9.43935 19.0539C9.67225 18.8291 10.0432 18.8357 10.268 19.0686C10.4928 19.3015 10.4863 19.6724 10.2534 19.8972L7.4726 22.5801C7.26221 22.7765 7.25078 23.1061 7.44711 23.3165C7.45531 23.3253 7.46381 23.3338 7.4726 23.342C7.71059 23.5667 8.08255 23.5667 8.3206 23.342L11.167 20.5958C11.3999 20.371 11.7709 20.3776 11.9957 20.6105C12.2205 20.8433 12.2139 21.2143 11.981 21.4391L9.13461 24.1853C8.80227 24.5053 8.35828 24.6831 7.89689 24.6811Z" fill="black"/>
</g>
<defs>
<clipPath id="clip0_45_699">
<rect width="30" height="30" fill="white"/>
</clipPath>
</defs>
</svg>
