<svg width="36" height="36" viewBox="0 0 36 36" fill="none" xmlns="http://www.w3.org/2000/svg">
<g clip-path="url(#clip0_36_2001)">
<path d="M30.0001 5.99981H27V0.599779C26.9999 0.268427 26.7312 -0.000149938 26.3998 6.28014e-08C26.3426 6.28014e-08 26.2857 0.00825011 26.2308 0.0243752L5.8307 6.02441C5.8187 6.02441 5.8097 6.03641 5.7977 6.04061C5.76718 6.05299 5.73763 6.06784 5.7095 6.08501C5.6732 6.10444 5.63908 6.12761 5.6075 6.15401C5.58425 6.17561 5.56258 6.19886 5.5427 6.22361C5.51638 6.25549 5.49328 6.28984 5.4737 6.32621C5.45953 6.35426 5.44745 6.38336 5.4377 6.41322C5.42383 6.45544 5.4149 6.49909 5.4113 6.54342C5.4113 6.56322 5.3999 6.58002 5.3999 6.59982V35.4C5.3999 35.7313 5.66855 36 5.99991 36H30.0001C30.3314 36 30.6001 35.7313 30.6001 35.4V6.59982C30.6001 6.26839 30.3315 5.99981 30.0001 5.99981ZM25.8 1.40138V5.99981H10.1663L25.8 1.40138ZM29.4001 34.8H6.59991V7.19982H29.4001V34.8Z" fill="black"/>
<path d="M13.7998 9.59998C13.5893 9.60006 13.3943 9.71038 13.2858 9.89084L11.9999 12.0334L10.7141 9.89084C10.5434 9.60688 10.1747 9.51508 9.89071 9.68586C9.71033 9.79431 9.59993 9.98939 9.59985 10.1998V14.9999C9.59985 15.3312 9.8685 15.5999 10.1999 15.5999C10.5312 15.5999 10.7999 15.3312 10.7999 14.9999V12.3659L11.4857 13.5089C11.6803 13.7928 12.0683 13.8653 12.3523 13.6706C12.4157 13.6271 12.4706 13.5723 12.5141 13.5089L13.1999 12.3659V14.9999C13.1999 15.3312 13.4685 15.5999 13.7999 15.5999C14.1312 15.5999 14.3999 15.3312 14.3999 14.9999V10.1998C14.3999 9.86841 14.1312 9.59991 13.7998 9.59998Z" fill="black"/>
<path d="M17.4 13.1999C17.7314 13.1999 18 12.9312 18 12.5999C18 12.2685 17.7314 11.9999 17.4 11.9999H16.2V10.7998H17.4C17.7314 10.7998 18 10.5312 18 10.1998C18 9.86849 17.7314 9.59984 17.4 9.59984H15.6C15.2687 9.59984 15 9.86849 15 10.1998V14.9999C15 15.3312 15.2687 15.5999 15.6 15.5999H17.4C17.7314 15.5999 18 15.3312 18 14.9999C18 14.6685 17.7314 14.3999 17.4 14.3999H16.2V13.1999H17.4Z" fill="black"/>
<path d="M21.6 9.59984C21.2687 9.59984 21 9.86849 21 10.1998V12.4583L19.74 9.93164C19.5956 9.63336 19.2368 9.50864 18.9385 9.65309C18.7292 9.75441 18.5974 9.96742 18.6 10.1998V14.9999C18.6 15.3312 18.8687 15.5999 19.2 15.5999C19.5314 15.5999 19.8 15.3312 19.8 14.9999V12.7415L21.06 15.2681C21.2044 15.5663 21.5633 15.6911 21.8616 15.5466C22.0708 15.4453 22.2027 15.2323 22.2 14.9999V10.1998C22.2 9.86841 21.9315 9.59984 21.6 9.59984Z" fill="black"/>
<path d="M25.8001 9.59984C25.4687 9.59984 25.2001 9.86849 25.2001 10.1998V13.7999C25.2001 14.1312 24.9314 14.3999 24.6001 14.3999C24.2687 14.3999 24.0001 14.1312 24.0001 13.7999V10.1998C24.0001 9.86849 23.7314 9.59984 23.4001 9.59984C23.0687 9.59984 22.8 9.86849 22.8 10.1998V13.7999C22.8 14.794 23.6059 15.5999 24.6001 15.5999C25.5942 15.5999 26.4001 14.794 26.4001 13.7999V10.1998C26.4001 9.86841 26.1315 9.59984 25.8001 9.59984Z" fill="black"/>
<path d="M27.6 20.9999H8.39993C8.06858 20.9999 7.79993 21.2686 7.79993 21.5999C7.79993 21.9313 8.06858 22.1999 8.39993 22.1999H27.6C27.9314 22.1999 28.2001 21.9313 28.2001 21.5999C28.2001 21.2686 27.9315 20.9999 27.6 20.9999Z" fill="black"/>
<path d="M27.6 24.5999H8.39993C8.06858 24.5999 7.79993 24.8686 7.79993 25.1999C7.79993 25.5313 8.06858 25.7999 8.39993 25.7999H27.6C27.9314 25.7999 28.2001 25.5313 28.2001 25.1999C28.2001 24.8686 27.9315 24.5999 27.6 24.5999Z" fill="black"/>
<path d="M27.6 28.2H8.39993C8.06858 28.2 7.79993 28.4686 7.79993 28.8C7.79993 29.1313 8.06858 29.4 8.39993 29.4H27.6C27.9314 29.4 28.2001 29.1313 28.2001 28.8C28.2001 28.4686 27.9315 28.2 27.6 28.2Z" fill="black"/>
</g>
<defs>
<clipPath id="clip0_36_2001">
<rect width="36" height="36" fill="white"/>
</clipPath>
</defs>
</svg>
