<svg width="28" height="28" viewBox="0 0 28 28" fill="none" xmlns="http://www.w3.org/2000/svg">
<g clip-path="url(#clip0_45_684)">
<path d="M22.5312 7.43751C22.5312 7.73936 22.7763 7.98439 23.0781 7.98439C23.38 7.98439 23.625 7.73936 23.625 7.43751C23.625 7.13567 23.38 6.89064 23.0781 6.89064C22.7763 6.89064 22.5312 7.13567 22.5312 7.43751Z" fill="black"/>
<path d="M24.7187 14C24.7187 14.7005 24.6485 15.3997 24.51 16.0781C24.4496 16.374 24.6406 16.6628 24.9364 16.7233C24.9734 16.731 25.0101 16.7346 25.0464 16.7346C25.3009 16.7346 25.5288 16.5558 25.5818 16.2969C25.7349 15.5464 25.8125 14.7737 25.8125 14C25.8125 12.278 25.4391 10.6209 24.7023 9.07471C24.5724 8.80213 24.2462 8.68635 23.9734 8.81623C23.7006 8.94611 23.585 9.27253 23.7149 9.54532C24.381 10.9433 24.7187 12.442 24.7187 14Z" fill="black"/>
<path d="M16.7344 18.9219H16.1875V11.8125C16.1875 11.5104 15.9427 11.2656 15.6406 11.2656H11.2656C10.9636 11.2656 10.7188 11.5104 10.7188 11.8125V14C10.7188 14.3021 10.9636 14.5469 11.2656 14.5469H11.8125V18.9219H11.2656C10.9636 18.9219 10.7188 19.1667 10.7188 19.4687V21.6562C10.7188 21.9583 10.9636 22.2031 11.2656 22.2031H16.7344C17.0364 22.2031 17.2812 21.9583 17.2812 21.6562V19.4687C17.2812 19.1667 17.0364 18.9219 16.7344 18.9219ZM16.1875 21.1094H11.8125V20.0156H12.3594C12.6614 20.0156 12.9062 19.7708 12.9062 19.4687V14C12.9062 13.6979 12.6614 13.4531 12.3594 13.4531H11.8125V12.3594H15.0937V19.4687C15.0937 19.7708 15.3388 20.0156 15.6406 20.0156H16.1875V21.1094Z" fill="black"/>
<path d="M14 10.1719C15.2061 10.1719 16.1875 9.1905 16.1875 7.98439C16.1875 6.77827 15.2061 5.79689 14 5.79689C12.7939 5.79689 11.8125 6.77827 11.8125 7.98439C11.8125 9.1905 12.7939 10.1719 14 10.1719ZM14 6.89064C14.6031 6.89064 15.0937 7.38133 15.0937 7.98439C15.0937 8.58744 14.6031 9.07814 14 9.07814C13.3969 9.07814 12.9062 8.58744 12.9062 7.98439C12.9062 7.38133 13.3969 6.89064 14 6.89064Z" fill="black"/>
<path d="M13.9999 4.57764e-05C6.45436 4.57764e-05 -3.71871e-05 6.44227 -3.71871e-05 14C-3.71871e-05 16.5817 0.739738 19.3271 1.98708 21.4038L0.0279474 27.2803C-0.0374212 27.4766 0.0136347 27.6935 0.16018 27.8398C0.307366 27.987 0.524407 28.0372 0.719872 27.9718L6.59642 26.0129C8.67283 27.2604 11.4183 28 13.9999 28C21.5475 28 27.9999 21.5569 27.9999 14C27.9999 6.45252 21.5571 4.57764e-05 13.9999 4.57764e-05ZM13.9999 26.9063C11.5234 26.9063 8.89116 26.1755 6.95851 24.9514C6.82158 24.8647 6.65089 24.8418 6.49281 24.8946L1.41158 26.5884L3.1054 21.5072C3.15752 21.3512 3.13659 21.1803 3.04857 21.0415C1.82451 19.109 1.09371 16.4766 1.09371 14C1.09371 7.0041 7.00401 1.09379 13.9999 1.09379C20.9959 1.09379 26.9062 7.0041 26.9062 14C26.9062 20.996 20.9959 26.9063 13.9999 26.9063Z" fill="black"/>
</g>
<defs>
<clipPath id="clip0_45_684">
<rect width="28" height="28" fill="white"/>
</clipPath>
</defs>
</svg>
