<svg width="369" height="135" viewBox="0 0 369 135" fill="none" xmlns="http://www.w3.org/2000/svg">
<path d="M29.9982 118.762C40.4725 118.762 49.9108 123.309 56.5291 130.567C62.3129 110.241 80.6715 95.365 102.44 95.365C118.986 95.365 133.575 103.958 142.15 117.011C148.481 104.804 161.242 96.4409 175.99 96.4409C183.716 96.4409 190.91 98.7504 196.909 102.695C196.42 99.941 196.147 97.1151 196.147 94.2174C196.147 67.8371 217.599 46.4488 244.058 46.4488C263.884 46.4488 280.89 58.4412 288.17 75.5547C297.364 64.3226 311.306 57.1645 326.902 57.1645C327.895 57.1645 328.858 57.2075 329.837 57.2506C329.679 55.6009 329.592 53.9369 329.592 52.2442C329.592 28.0873 346.469 7.91839 369 2.9694V0H0V135C6.53199 125.202 17.5242 118.762 29.9982 118.762Z" fill="#45BAF4"/>
</svg>
