<svg width="350" height="90" viewBox="0 0 350 90" fill="none" xmlns="http://www.w3.org/2000/svg">
<path d="M8.01076 21.6983C7.88002 23.1926 7.9428 24.8845 8.1991 26.774C8.52039 28.609 8.58691 30.6024 8.39865 32.7541C8.13195 35.8025 7.92503 38.8561 7.77788 41.9149C7.63072 44.9737 7.81231 48.0613 8.32265 51.1776C9.0317 52.0226 9.41201 52.8389 9.46357 53.6264C9.52036 54.3541 9.51476 55.1065 9.44678 55.8835C9.40495 56.3617 9.13038 57.0905 8.62308 58.07C8.17555 59.0548 7.80871 59.8057 7.52256 60.3227C5.54931 56.717 4.20253 52.8348 3.48224 48.6762C2.82695 44.4631 2.5654 40.2242 2.69759 35.9595C2.89479 31.6402 3.41812 27.3796 4.26758 23.1777C5.12226 18.9159 6.10546 14.9064 7.21717 11.1489C7.54442 11.539 7.74168 12.038 7.80893 12.6462C7.88141 13.1946 7.94866 13.8028 8.01068 14.4707C8.10407 14.7801 8.15451 15.2362 8.16199 15.8391C8.22924 16.4473 8.23149 17.11 8.16874 17.8273C8.17098 18.49 8.14073 19.18 8.07798 19.8973C8.08023 20.56 8.05782 21.1603 8.01076 21.6983ZM37.2201 23.4407C37.0691 23.7888 36.8312 24.0993 36.5062 24.372C36.2462 24.5901 35.929 24.7732 35.5547 24.9211C35.1856 25.0093 34.8191 25.0676 34.4553 25.096C34.1512 25.1296 33.9394 25.1412 33.8198 25.1307C33.0428 25.0627 32.237 25.3235 31.4024 25.913C30.6329 26.448 29.8256 27.07 28.9806 27.779L16.8467 39.4559C18.2237 40.2389 19.9515 41.143 22.03 42.168C24.1086 43.1931 26.2638 44.3754 28.4955 45.715C30.7273 47.0546 32.8861 48.5384 34.9722 50.1664C37.0582 51.7944 38.7999 53.573 40.197 55.5021C41.2647 56.3785 41.9297 57.039 42.1919 57.4835C42.514 57.9333 42.6619 58.3076 42.6358 58.6065C42.6096 58.9053 42.5562 59.1717 42.4755 59.4056C42.3948 59.6394 42.5181 59.9513 42.8454 60.3413C42.9178 60.8897 42.8215 61.3029 42.5562 61.5809C42.3508 61.864 42.2701 62.0979 42.3142 62.2824C42.353 62.5268 42.2282 62.5761 41.9398 62.4304C41.7112 62.2899 41.4605 62.0572 41.1878 61.7322C39.4425 59.6521 37.4943 57.8254 35.3432 56.2519C33.1922 54.6785 30.8786 53.2414 28.4026 51.9406C25.9915 50.5853 23.3907 49.3339 20.6001 48.1863C17.8693 47.0439 15.0514 45.8639 12.1465 44.646C10.7979 44.2269 10.0107 43.5859 9.78509 42.7229C9.59307 42.164 9.61025 41.6235 9.83663 41.1012C10.128 40.5244 10.3817 40.0347 10.5976 39.632C11.0892 38.8318 11.4314 38.0185 11.6241 37.1921C11.8169 36.3658 12.2215 35.5279 12.8378 34.6784C14.4629 33.3148 16.1361 31.7447 17.8575 29.9679C19.6439 28.1367 21.4445 26.4873 23.2593 25.0199C25.1339 23.5577 27.0693 22.4321 29.0657 21.6431C31.1218 20.8593 33.2699 20.7461 35.5098 21.3035C36.4609 21.4469 37.065 21.7708 37.322 22.2751C37.6388 22.7846 37.6048 23.1732 37.2201 23.4407ZM60.6878 26.0359C61.1241 26.5559 61.2694 26.9601 61.1237 27.2485C61.0378 27.5421 60.8481 27.646 60.5544 27.56C59.7774 27.4921 58.9029 27.5059 57.9308 27.6015C57.0238 27.6426 56.0271 27.6759 54.9407 27.7013C53.9194 27.6722 52.8435 27.5781 51.7131 27.4189C50.5826 27.2598 49.4653 26.9513 48.361 26.4933C47.9247 25.9733 47.9613 25.5549 48.4708 25.2381C49.0454 24.8667 49.5161 24.3056 49.8829 23.5547C50.1093 23.0325 50.3797 22.6948 50.6943 22.5416C51.0738 22.3339 51.4455 22.2158 51.8094 22.1874C52.4669 22.2449 53.2607 22.465 54.1909 22.8475C55.1861 23.1755 56.0099 23.3981 56.6621 23.5154C57.6678 23.7239 58.4889 23.9764 59.1255 24.273C59.7673 24.5098 60.288 25.0975 60.6878 26.0359ZM57.7382 38.0646C57.9765 39.4707 58.1357 40.7494 58.2156 41.9008C58.3554 43.0574 58.4081 44.1762 58.3737 45.2573C58.4044 46.2839 58.3726 47.3351 58.2785 48.411C58.2441 49.4922 58.172 50.6603 58.0622 51.9155C58.0413 52.1546 57.8683 52.4105 57.5433 52.6832C57.2833 52.9014 57.0805 53.1547 56.9348 53.4431C56.6486 53.9601 56.4107 54.2705 56.2209 54.3744C56.0909 54.4835 55.8387 54.612 55.4644 54.7599C54.5962 55.0454 53.8047 55.488 53.0896 56.088C52.412 54.8844 51.9891 53.5223 51.8209 52.0019C51.7126 50.4867 51.6692 48.9169 51.6909 47.2926C51.7723 45.6736 51.8238 44.0519 51.8455 42.4276C51.9321 40.7488 51.8641 39.1166 51.6415 37.5312C51.5354 36.6787 51.6448 36.1161 51.9698 35.8434C52.2948 35.5707 52.6419 35.3902 53.011 35.3021C53.4398 35.2191 53.8803 35.348 54.3323 35.6887C54.8441 36.0346 55.326 36.3779 55.778 36.7186C56.1755 36.9943 56.551 37.1777 56.9044 37.2689C57.3228 37.3055 57.6007 37.5707 57.7382 38.0646ZM99.374 39.1776C99.4831 39.3076 99.5675 39.3752 99.6273 39.3805C99.687 39.3857 99.7117 39.4481 99.7012 39.5676C99.631 39.6819 99.4685 39.8183 99.2137 39.9767C99.024 40.0805 98.6575 40.1388 98.1143 40.1515C97.9298 40.1956 97.6802 40.2942 97.3657 40.4474C97.0564 40.5408 96.8094 40.6095 96.6249 40.6536C94.9797 40.8711 93.0382 41.0325 90.8005 41.1378C88.6226 41.2484 86.3576 41.3213 84.0056 41.3565C83.703 43.438 83.4733 45.3754 83.3164 47.1685C83.2193 48.9669 83.173 50.5288 83.1775 51.8542C83.2082 52.8808 83.6419 53.4307 84.4787 53.5039C85.3207 53.5173 86.2031 53.4139 87.1258 53.1934C87.3701 53.1546 88.0213 52.9405 89.0792 52.5512C90.2022 52.1074 91.4798 51.6169 92.9121 51.0797C94.4093 50.4879 95.969 49.8715 97.591 49.2305C99.2183 48.5296 100.688 47.9054 102.001 47.3577C101.928 48.1945 101.409 48.9622 100.444 49.6608C99.9296 50.0374 99.3577 50.3788 98.7286 50.6851C98.1593 50.9967 97.5574 51.3355 96.9231 51.7017C96.229 52.0625 95.7415 52.4716 95.4606 52.9289C95.1797 53.3861 94.5973 53.8471 93.7134 54.3118C92.0704 55.192 90.3158 55.972 88.4494 56.652C86.5831 57.3319 84.9169 57.7884 83.451 58.0215C82.9624 58.0992 82.4491 58.1146 81.9112 58.0675C81.433 58.0257 80.947 58.0735 80.4531 58.211C79.7097 58.4471 79.1471 58.3376 78.7653 57.8826C78.4433 57.4328 78.2565 56.8142 78.2049 56.0267C78.1593 53.7942 78.1866 51.4176 78.2867 48.8967C78.4465 46.3811 78.6688 43.8408 78.9534 41.2758C77.1498 41.2385 75.471 41.1518 73.9169 41.0159C72.4278 40.8254 71.213 40.5986 70.2723 40.3356C69.3862 40.1376 68.5651 39.8851 67.809 39.5781C67.1179 39.2164 66.4996 38.7106 65.9542 38.0606C65.4162 38.0136 65.2578 37.7588 65.479 37.2963C65.7651 36.7793 65.9837 36.3467 66.1346 35.9985C67.395 36.0485 69.2233 36.1483 71.6194 36.2977C74.0805 36.3925 76.7209 36.5031 79.5406 36.6293C80.2137 31.6892 81.0348 27.1234 82.0038 22.9319C82.9728 18.7404 83.9672 15.6352 84.987 13.6164C85.0341 13.0785 85.2747 12.7382 85.7088 12.5954C86.2079 12.3982 86.7096 12.1711 87.2139 11.914C87.4634 11.8154 87.7156 11.6869 87.9704 11.5285C88.2901 11.3156 88.6891 11.23 89.1673 11.2718C89.6791 11.6178 90.0441 11.9207 90.2622 12.1807C90.4856 12.381 90.5843 12.6305 90.5581 12.9294C90.532 13.2282 90.4109 13.579 90.195 13.9817C89.9791 14.3844 89.7228 14.9041 89.4262 15.5407C89.291 15.7095 89.0463 16.441 88.6922 17.735C88.338 19.0291 87.9227 20.6792 87.446 22.6853C87.0343 24.6368 86.5667 26.8846 86.0429 29.4286C85.5244 31.9129 85.0631 34.4323 84.6589 36.9868C86.6314 37.1593 88.5116 37.3539 90.2995 37.5706C92.0927 37.7275 93.6714 37.9258 95.0357 38.1656L99.374 39.1776ZM124.314 39.2817C124.467 39.5962 124.501 39.9003 124.415 40.1939C124.394 40.433 124.346 40.6396 124.27 40.8137C123.745 41.3098 123.325 41.6344 123.011 41.7876C122.696 41.9408 122.164 42.1653 121.416 42.4612C121.226 42.565 121.036 42.6689 120.846 42.7727C120.716 42.8818 120.562 42.9285 120.382 42.9128C120.084 42.8867 119.626 42.6058 119.011 42.0701C118.455 41.5396 117.839 41.0039 117.164 40.463C116.488 39.922 115.743 39.4954 114.927 39.1831C114.171 38.8761 113.446 38.903 112.751 39.2639C112.016 40.1029 111.286 41.2135 110.563 42.5958C109.845 43.9182 109.238 45.3408 108.744 46.8635C108.309 48.3914 108.081 49.9675 108.059 51.5918C108.037 53.2161 108.385 54.7522 109.101 56.2002C112.537 56.8621 115.665 56.5636 118.485 55.3046C121.311 53.9859 123.959 52.2902 126.429 50.2176C126.392 50.636 126.239 51.0141 125.968 51.3518C125.763 51.6349 125.555 51.948 125.344 52.2909C125.058 52.808 124.742 53.3224 124.396 53.8342C124.115 54.2914 123.714 54.7382 123.194 55.1746C122.279 55.9979 121.247 56.781 120.098 57.5236C119.009 58.2715 117.837 58.9219 116.585 59.4748C115.397 59.9732 114.159 60.3468 112.873 60.5956C111.651 60.7899 110.448 60.7749 109.263 60.5508C108.611 60.4335 108.146 60.2423 107.868 59.977C107.655 59.6572 107.232 59.3192 106.601 58.9628C106.263 58.6923 105.804 58.4413 105.222 58.2097C104.699 57.9833 104.302 57.7076 104.029 57.3826C103.494 56.613 103.122 55.7071 102.912 54.6649C102.608 53.3133 102.525 51.8605 102.661 50.3064C102.797 48.7523 103.017 47.2659 103.322 45.8471C103.692 44.3737 104.108 43.055 104.571 41.8909C105.094 40.7321 105.534 39.837 105.89 39.2057C106.317 38.46 106.912 37.8496 107.677 37.3744C108.446 36.8394 109.27 36.3695 110.149 35.9645C111.088 35.5648 112.023 35.1949 112.956 34.8549C113.89 34.515 114.76 34.1997 115.569 33.909C118.617 34.1757 121.532 35.9666 124.314 39.2817ZM139.301 45.2004C140.853 43.2884 142.638 41.8184 144.655 40.7903C146.678 39.7024 148.936 39.3579 151.431 39.7569C151.785 39.848 152.16 40.0315 152.558 40.3072C152.96 40.5231 153.333 40.7364 153.676 40.9471C154.531 41.5037 155.305 42.2942 155.998 43.3185C156.697 44.283 157.293 45.3892 157.786 46.6369C158.344 47.8301 158.777 49.0726 159.086 50.3644C159.394 51.6562 159.591 52.8479 159.676 53.9395C159.739 54.6074 159.755 55.4521 159.726 56.4734C159.697 57.4948 159.646 58.4239 159.572 59.2607C159.453 59.2502 159.39 59.2749 159.385 59.3346C159.38 59.3944 159.32 59.3892 159.206 59.3189C158.749 59.038 158.389 58.6753 158.127 58.2307C158.017 58.1007 157.849 57.9655 157.62 57.825C157.397 57.6248 157.265 57.4025 157.227 57.1582C157.159 56.55 157.078 55.7599 156.982 54.7879C156.952 53.7613 156.807 52.6645 156.547 51.4975C156.288 50.3304 155.937 49.1854 155.493 48.0625C155.054 46.8798 154.483 45.836 153.779 44.9312C153.506 44.6062 153.256 44.3735 153.027 44.233C152.864 44.038 152.64 43.8378 152.357 43.6323C152.079 43.3671 151.644 43.1784 151.051 43.0664C150.464 42.8945 149.956 42.8501 149.527 42.933C148.485 43.143 147.359 43.6167 146.15 44.3541C144.942 45.0916 143.864 46.0513 142.917 47.2333C141.976 48.3555 141.255 49.7079 140.755 51.2903C140.256 52.8728 140.253 54.6192 140.749 56.5297C140.881 57.0833 140.961 57.5421 140.99 57.9059C141.023 58.21 140.997 58.5089 140.911 58.8025C140.885 59.1014 140.767 59.4223 140.556 59.7652C140.345 60.1081 140.064 60.5654 139.713 61.137C139.172 61.8124 138.56 62.2708 137.876 62.5121C137.253 62.7587 136.686 63.0404 136.176 63.3571C134.877 58.2444 133.966 53.1657 133.444 48.121C132.981 43.0815 132.824 38.3398 132.972 33.8957C133.179 29.457 133.682 25.4354 134.479 21.8312C135.281 18.1672 136.298 15.1543 137.528 12.7926C137.77 12.091 138.185 11.8261 138.772 11.998C139.066 12.0839 139.295 12.2244 139.458 12.4194C139.622 12.6144 139.84 12.8744 140.113 13.1994C140.326 13.5191 140.511 13.8064 140.67 14.0612C140.833 14.2562 140.929 14.5356 140.958 14.8995C140.991 15.2036 141.128 15.3661 141.367 15.387C141.606 15.4079 141.683 15.5652 141.597 15.8588C140.771 19.0992 140.146 22.1162 139.721 24.9098C139.296 27.7033 139.008 30.2982 138.859 32.6943C138.769 35.0956 138.785 37.3255 138.906 39.3838C139.027 41.4422 139.159 43.3811 139.301 45.2004ZM185.328 38.8377C185.71 39.2927 186.056 39.8048 186.368 40.3742C186.685 40.8837 186.939 41.4179 187.131 41.9768C187.51 43.1543 187.65 44.3109 187.55 45.4465C187.516 46.5276 186.982 47.806 185.95 49.2816C184.787 50.8663 183.349 52.1559 181.636 53.1504C179.983 54.1501 178.217 54.7183 176.338 54.8551C175.002 54.9791 173.687 54.8641 172.393 54.5099C171.104 54.096 169.901 53.3885 168.784 52.3873C168.399 52.6548 168.061 53.077 167.77 53.6538C167.543 54.176 167.439 54.6788 167.457 55.1623C167.503 56.0095 167.721 56.9621 168.11 58.0201C168.565 59.0235 169.075 59.7307 169.641 60.1416C170.621 60.6489 172.023 60.8017 173.847 60.5999C175.732 60.4034 177.721 60.0354 179.816 59.4959C181.976 58.9019 184.082 58.2429 186.133 57.5189C188.249 56.7404 190.052 56.0851 191.545 55.5531C191.513 55.9117 191.403 56.143 191.213 56.2468C191.083 56.3559 190.885 56.5494 190.62 56.8274C190.295 57.1001 189.935 57.43 189.54 57.817C189.144 58.204 188.695 58.526 188.19 58.7831C187.561 59.0894 187.071 59.5283 186.72 60.0999C186.374 60.6117 185.762 61.0701 184.883 61.4751C183.695 61.9734 182.475 62.4991 181.222 63.052C180.034 63.5503 178.848 64.0188 177.666 64.4574C176.488 64.8362 175.289 65.1227 174.067 65.317C172.91 65.4567 171.77 65.4171 170.644 65.1982C169.878 65.0107 169.239 64.744 168.727 64.3981C168.275 64.0574 167.716 63.5568 167.051 62.8963C166.719 62.5661 166.327 62.2306 165.875 61.8899C165.423 61.5492 165.09 61.219 164.877 60.8992C163.992 59.316 163.443 57.672 163.231 55.967C163.024 54.2022 163.083 52.4909 163.409 50.833C163.8 49.1205 164.394 47.4861 165.193 45.9298C165.997 44.3137 166.997 42.8654 168.193 41.5847C168.859 40.86 169.644 40.1457 170.549 39.4419C171.519 38.6835 172.538 38.05 173.606 37.5411C174.74 36.9778 175.89 36.5665 177.057 36.3072C178.284 36.0531 179.492 36.0083 180.682 36.1727C181.155 36.2743 181.561 36.4603 181.898 36.7308C182.301 36.9467 182.731 37.1951 183.188 37.476C183.477 37.6217 183.82 37.8324 184.217 38.1081C184.68 38.3292 185.05 38.5724 185.328 38.8377ZM182.265 43.9C182.192 43.3516 181.905 42.8447 181.404 42.3792C180.903 41.9137 180.334 41.5327 179.697 41.2361C179.066 40.8797 178.424 40.6429 177.772 40.5256C177.12 40.4083 176.639 40.3963 176.329 40.4897C175.836 40.6272 175.239 40.9063 174.54 41.3269C173.905 41.693 173.263 42.1488 172.613 42.6942C172.023 43.2449 171.428 43.8553 170.827 44.5255C170.291 45.1411 169.878 45.7374 169.586 46.3142C169.451 46.483 169.305 46.7714 169.149 47.1794C169.058 47.5328 169.064 47.8043 169.168 47.9941C169.807 48.9534 170.844 49.4959 172.278 49.6214C173.653 49.7416 175.146 49.541 176.758 49.0195C178.429 48.5032 179.625 47.9152 180.345 47.2554C180.415 47.1411 180.553 46.9424 180.759 46.6592C181.024 46.3813 181.262 46.0708 181.473 45.7279C181.683 45.3849 181.864 45.0394 182.015 44.6912C182.226 44.3483 182.309 44.0845 182.265 43.9ZM199.765 55.6399C200.87 54.7127 201.981 53.7257 203.096 52.679C204.276 51.5776 205.482 50.5387 206.711 49.5622C207.941 48.5857 209.19 47.7313 210.459 46.9991C211.733 46.2071 213.051 45.5996 214.413 45.1767C214.722 45.0833 214.994 45.077 215.228 45.1577C215.521 45.2436 215.823 45.2399 216.132 45.1465C216.61 45.1883 217.029 45.2249 217.387 45.2563C217.746 45.2877 218.064 45.436 218.342 45.7012C219.132 46.3123 219.721 47.1469 220.111 48.2049C220.565 49.2083 220.919 50.3234 221.173 51.5502C221.355 52.2286 221.419 52.8667 221.367 53.4644C221.375 54.0673 221.494 54.7704 221.725 55.5736C221.984 56.7406 222.27 57.9401 222.584 59.1722C222.963 60.3497 223.046 61.4711 222.832 62.5366C222.746 62.8302 222.633 63.0913 222.492 63.32C222.357 63.4888 222.187 63.7148 221.981 63.998C221.841 64.2266 221.606 64.5072 221.275 64.8397C220.945 65.1721 220.623 65.415 220.308 65.5681C219.988 65.7811 219.761 65.972 219.626 66.1408C219.555 66.2551 219.273 66.381 218.78 66.5185C218.102 65.3149 217.611 64.0373 217.308 62.6857C217.005 61.3341 216.766 59.928 216.593 58.4673C216.42 57.0066 216.279 55.5187 216.17 54.0035C216.062 52.4883 215.896 50.938 215.674 49.3525C215.591 48.9237 215.223 48.6506 214.571 48.5333C213.979 48.4212 213.243 48.5677 212.364 48.9726C211.551 49.3231 210.654 49.9372 209.673 50.8151C208.693 51.693 207.779 52.8478 206.931 54.2793C206.359 55.3134 205.811 56.4098 205.288 57.5686C204.77 58.6677 204.19 59.7914 203.548 60.9398C202.97 62.0336 202.273 63.117 201.457 64.1899C200.705 65.2082 199.812 66.1239 198.777 66.9368C198.452 67.2095 198.24 67.2211 198.141 66.9715C198.043 66.722 197.762 66.4866 197.3 66.2655C196.952 66.1146 196.753 65.9767 196.704 65.8519C196.714 65.7324 196.656 65.3659 196.529 64.7525C196.28 63.4659 196.017 61.9974 195.74 60.347C195.522 58.7018 195.253 56.9617 194.932 55.1267C194.67 53.2969 194.379 51.4646 194.057 49.6296C193.741 47.7348 193.415 45.9596 193.078 44.3039L192.681 42.643C192.822 42.4144 193.049 42.2235 193.364 42.0703C193.738 41.9224 194.11 41.8044 194.479 41.7162C194.848 41.628 195.234 41.6919 195.636 41.9078C196.039 42.1237 196.36 42.2422 196.599 42.2631C197.257 42.3206 197.788 42.7887 198.193 43.6673C198.658 44.5512 199.012 45.6663 199.255 47.0126C199.504 48.2992 199.65 49.7274 199.694 51.2971C199.802 52.8124 199.826 54.2599 199.765 55.6399ZM259.823 37.6759C259.872 37.8007 259.891 37.9228 259.881 38.0424C259.876 38.1021 259.898 38.1944 259.947 38.3192C260.046 38.5687 259.995 38.8052 259.795 39.0286C259.594 39.252 259.41 39.2961 259.241 39.1609C258.654 38.989 258.072 38.7574 257.495 38.466C256.923 38.1149 256.349 37.7936 255.772 37.5022C255.195 37.2109 254.613 36.9792 254.026 36.8074C253.439 36.6356 252.868 36.6158 252.315 36.748C251.088 37.0021 249.783 37.4601 248.4 38.1221C247.077 38.7893 245.736 39.6657 244.376 40.7513C243.081 41.7824 241.828 43.0279 240.616 44.4878C239.464 45.953 238.445 47.6106 237.561 49.4605C236.434 52.012 235.948 54.469 236.103 56.8315C236.263 59.1342 236.902 61.1175 238.021 62.7814C239.201 64.4505 240.775 65.7325 242.744 66.6276C244.779 67.4681 247.134 67.7344 249.811 67.4266C251.761 67.1755 253.644 66.6477 255.461 65.843C257.278 65.0383 258.978 64.1932 260.561 63.3078C260.221 63.7599 259.915 64.1547 259.645 64.4924C259.374 64.8302 258.979 65.2172 258.459 65.6535C258.134 65.9262 257.798 66.3185 257.453 66.8303C257.112 67.2823 256.779 67.6447 256.454 67.9174C254.163 70.0057 251.479 71.4272 248.402 72.1818C247.723 72.3634 247.142 72.4631 246.659 72.4811C246.181 72.4392 245.608 72.4493 244.94 72.5113C243.983 72.4277 243.024 72.3739 242.063 72.35C241.101 72.3261 240.185 72.1255 239.315 71.7482C236.763 70.6215 234.674 68.6921 233.046 65.9598C232.308 64.7509 231.711 63.3134 231.255 61.6473C230.863 59.9266 230.656 58.1618 230.634 56.353C230.676 54.4896 230.895 52.6718 231.291 50.8996C231.687 49.1273 232.342 47.4982 233.255 46.0121C235.172 42.6865 237.357 39.7457 239.809 37.1897C242.321 34.639 245.178 32.9616 248.38 32.1576C250.54 31.5636 253.056 31.7235 255.927 32.6372C256.618 32.9988 257.373 33.6671 258.191 34.6421C258.463 34.9671 258.736 35.2921 259.009 35.6172C259.282 35.9422 259.544 36.3867 259.796 36.9508C259.845 37.0756 259.834 37.1951 259.764 37.3094C259.754 37.429 259.773 37.5511 259.823 37.6759ZM289.906 49.1615C290.516 51.1422 291.052 53.2671 291.516 55.5362C292.04 57.8105 292.325 60.0639 292.37 62.2963C292.481 64.4743 292.298 66.5663 291.821 68.5724C291.404 70.5837 290.563 72.2868 289.296 73.6817C288.766 74.2376 288.177 74.427 287.53 74.25C287.296 74.1693 287.1 74.0015 286.942 73.7468C286.783 73.492 286.563 73.2619 286.279 73.0564C286.056 72.8562 285.8 72.6832 285.512 72.5375C285.283 72.3971 285.065 72.1371 284.857 71.7575C283.935 71.9779 282.999 72.3478 282.05 72.8671C281.166 73.3318 280.25 73.8238 279.301 74.3431C278.352 74.8623 277.373 75.379 276.364 75.8931C275.361 76.3473 274.341 76.6496 273.304 76.7998C272.202 77.0045 271.397 76.904 270.891 76.4983C270.449 76.0381 269.951 75.5427 269.395 75.0123C269.008 74.617 268.757 74.3843 268.643 74.3141C268.534 74.1841 268.448 73.7851 268.386 73.1171C268.322 71.7865 268.415 70.3792 268.665 68.8954C268.98 67.357 269.475 65.8343 270.149 64.3273C272.041 59.9154 275.356 57.1337 280.094 55.9823C280.648 55.8501 281.188 55.8673 281.716 56.0339C282.308 56.1459 282.863 56.345 283.38 56.6312C283.897 56.9173 284.379 57.2607 284.826 57.6611C285.332 58.0668 285.779 58.4673 286.166 58.8625L287.499 60.1536C287.886 59.1636 287.951 58.0851 287.691 56.9181C287.497 55.6965 287.116 54.5489 286.547 53.4752C285.984 52.3418 285.32 51.3201 284.557 50.4101C283.793 49.5001 283.036 48.8616 282.285 48.4948C279.237 48.2281 276.424 48.7048 273.848 49.9249C271.337 51.0905 268.846 52.7096 266.376 54.7822C266.246 54.8913 266.089 54.9679 265.905 55.012C265.78 55.0613 265.655 55.1106 265.53 55.1599C265.34 55.2638 265.129 55.2753 264.895 55.1946C264.721 55.1192 264.707 54.9373 264.852 54.6489C265.378 52.7675 266.244 51.1268 267.451 49.7266C268.663 48.2667 270.036 47.0317 271.57 46.0215C273.104 45.0113 274.711 44.1883 276.393 43.5525C278.075 42.9167 279.709 42.4874 281.294 42.2647C281.544 42.1661 281.758 42.1246 281.937 42.1403C282.182 42.1015 282.453 42.0951 282.752 42.1213C283.171 42.1579 283.549 42.3114 283.886 42.5819C284.224 42.8523 284.619 43.1579 285.071 43.4986C285.643 43.8498 286.209 44.2607 286.77 44.7314C287.336 45.1423 287.835 45.6377 288.266 46.2174C288.643 46.7322 288.96 47.2418 289.217 47.7461C289.474 48.2504 289.703 48.7222 289.906 49.1615ZM285.461 64.8539C285.171 64.0455 284.665 63.2785 283.946 62.5531C283.286 61.8328 282.491 61.2814 281.561 60.8989C280.636 60.4566 279.598 60.2754 278.447 60.3554C277.355 60.4406 276.202 60.8818 274.988 61.679C274.561 62.4247 274.127 63.26 273.685 64.1849C273.248 65.0501 272.898 65.9531 272.635 66.8937C272.377 67.7746 272.206 68.6932 272.122 69.6496C272.104 70.5514 272.24 71.4065 272.53 72.2149C274.87 71.6366 277.16 70.9335 279.4 70.1056C281.641 69.2778 283.572 68.5433 285.195 67.9022C285.585 67.575 285.82 67.2944 285.901 67.0606C285.981 66.8267 285.97 66.6149 285.866 66.4251C285.822 66.2406 285.72 66.0209 285.562 65.7661C285.463 65.5166 285.43 65.2125 285.461 64.8539ZM327.903 49.9562C327.856 50.4942 327.885 51.1894 327.991 52.0419C328.103 52.8346 327.988 53.457 327.647 53.909C327.517 54.0181 327.437 54.2519 327.405 54.6106C327.379 54.9094 327.271 55.1108 327.081 55.2146L325.979 54.3954C325.064 53.8336 324.006 53.5302 322.806 53.4854C321.665 53.4458 320.476 53.6128 319.239 53.9864C318.37 54.2718 317.489 54.7067 316.595 55.291C315.765 55.8207 314.958 56.4427 314.173 57.157C313.388 57.8713 312.66 58.6207 311.989 59.4052C311.318 60.1897 310.739 60.9521 310.253 61.6926C309.145 63.3423 308.484 65.3925 308.269 67.8431C308.114 70.299 308.734 73.5453 310.127 77.5821C310.091 78.0005 309.747 78.4824 309.097 79.0279C308.967 79.1369 308.802 79.3032 308.602 79.5266C308.402 79.75 308.237 79.9162 308.107 80.0253C307.592 80.4019 307.262 80.7344 307.116 81.0228C307.03 81.3164 306.833 81.5099 306.523 81.6033C306.029 81.7408 305.618 81.2832 305.288 80.2304C304.429 78.3484 303.634 76.0804 302.902 73.4266C302.236 70.7182 301.604 67.9526 301.008 65.1299C300.471 62.3124 299.984 59.6197 299.546 57.0518C299.174 54.4293 298.884 52.2357 298.677 50.471C298.539 49.9771 298.549 49.5262 298.705 49.1182C298.866 48.6505 299.079 48.2777 299.345 47.9998C299.545 47.7764 299.759 47.7349 299.988 47.8754C300.276 48.021 300.51 48.1017 300.689 48.1174C301.467 48.1854 301.932 48.3767 302.085 48.6912C302.238 49.0058 302.503 49.4204 302.879 49.9352C303.633 50.9648 304.178 52.3074 304.515 53.963C304.852 55.6187 305.282 57.5837 305.806 59.858C306.903 58.3278 308.265 56.881 309.89 55.5174C311.574 54.1591 313.366 52.9607 315.263 51.9221C317.166 50.8238 319.108 49.9698 321.089 49.3601C323.069 48.7504 324.964 48.4343 326.773 48.4119C327.137 48.3835 327.425 48.5292 327.638 48.849C327.916 49.1142 328.004 49.4833 327.903 49.9562ZM348.736 35.246C348.194 37.3066 347.58 39.5114 346.892 41.8605C346.265 44.2147 345.637 46.569 345.01 48.9232C344.382 51.2775 343.822 53.5473 343.33 55.7327C342.837 57.9181 342.488 59.845 342.282 61.5134L340.592 65.3407C340.137 65.7225 339.823 66.207 339.652 66.7943C339.48 67.3815 339.365 68.0039 339.308 68.6614C339.25 69.3189 339.193 69.9764 339.135 70.6339C339.137 71.2966 339.055 71.8917 338.888 72.4192C338.803 72.7128 338.535 73.0206 338.085 73.3426C337.7 73.6101 337.38 73.8231 337.126 73.9815C336.871 74.1399 336.714 74.2164 336.654 74.2112C336.594 74.206 336.325 74.1825 335.847 74.1406C335.895 70.8323 336.101 67.4473 336.464 63.9858C336.833 60.4645 337.315 57.0134 337.912 53.6326C338.574 50.1972 339.375 46.8944 340.315 43.7243C341.26 40.4944 342.334 37.5166 343.536 34.791C343.861 34.5183 344.175 34.3651 344.479 34.3315C344.848 34.2433 345.282 34.1006 345.782 33.9034C346.6 33.4932 347.309 33.3142 347.906 33.3665C348.184 33.6318 348.397 33.9515 348.545 34.3258C348.758 34.6456 348.822 34.9523 348.736 35.246ZM339.701 83.7832C340.28 84.7373 340.204 85.604 339.474 86.3833C338.808 87.108 338.038 87.643 337.165 87.9882C336.481 88.2295 335.995 88.2774 335.707 88.1317C335.478 87.9912 335.19 87.8455 334.842 87.6946C334.613 87.5541 334.205 87.398 333.618 87.2261C333.096 86.9998 332.758 86.7293 332.605 86.4148C332.244 85.7207 332.005 85.0071 331.889 84.2742C331.837 83.4867 331.85 82.6447 331.929 81.7481C331.96 81.3895 332.133 81.1336 332.448 80.9804C332.768 80.7675 333.139 80.6494 333.563 80.6262C334.052 80.5485 334.505 80.528 334.923 80.5646C335.342 80.6012 335.698 80.6625 335.991 80.7484C336.514 80.9747 336.819 81.2725 336.907 81.6416C337.001 81.9509 337.186 82.2382 337.464 82.5034C338.238 83.2939 338.984 83.7205 339.701 83.7832Z" fill="#393737"/>
</svg>
