<svg width="488" height="351" viewBox="0 0 488 351" fill="none" xmlns="http://www.w3.org/2000/svg">
<path d="M105.703 260.498C80.9266 260.498 60.8311 280.563 60.8311 305.311C60.8311 330.058 80.9266 350.123 105.703 350.123C130.491 350.123 150.58 330.058 150.58 305.311C150.58 280.563 130.491 260.498 105.703 260.498Z" fill="#040000"/>
<path d="M399.464 260.498C374.665 260.498 354.579 280.563 354.579 305.311C354.579 330.058 374.665 350.123 399.464 350.123C424.236 350.123 444.319 330.058 444.319 305.311C444.319 280.563 424.236 260.498 399.464 260.498Z" fill="#040000"/>
<path d="M158.694 0.877319V44.3404H83.2606L39.0424 148.698L0.224609 174.877V280.021H39.0424H53.0001C62.4528 260.443 82.525 246.912 105.703 246.912C128.886 246.912 148.959 260.443 158.406 280.021H158.694H173.686H346.744C356.197 260.443 376.286 246.912 399.464 246.912C422.63 246.912 442.703 260.443 452.156 280.021H487.775V0.877319H158.694Z" fill="#040000"/>
</svg>
