<?xml version="1.0" encoding="UTF-8"?>
<svg id="_レイヤー_2" data-name="レイヤー 2" xmlns="http://www.w3.org/2000/svg" viewBox="0 0 163.34 138.36">
  <defs>
    <style>
      .cls-1 {
        fill: none;
        stroke: #fff;
        stroke-miterlimit: 10;
        stroke-width: 4px;
      }
    </style>
  </defs>
  <g id="_レイヤー_1-2" data-name="レイヤー 1">
    <path class="cls-1" d="M47.62,59.19c1.46-14.68,7.08-26.46,20.27-33.7-7.95.6-15.58,2.47-23.08,5.01l-.32-.38c1.19-1.82,2.31-3.69,3.59-5.45,4.04-5.53,8.93-10.14,15.22-12.98,11.48-5.17,22.02-3.34,31.61,4.63.39.32.76.68,1.13,1.02.37.34.74.68,1.24,1.13.95-1.17,1.84-2.31,2.78-3.4,5.37-6.23,11.79-10.89,19.99-12.5,9.59-1.89,17.96.92,25.22,7.3,3.59,3.15,7.21,7.99,8.85,11.69-6.98-1.27-14.03-2.54-21.07-3.82-.07.19-.14.38-.21.57,16.54,5.84,25.18,17.91,27.75,34.81-12.47-9.98-26.05-17.85-41.34-22.71,4.51,3.55,7.34,8.06,8.07,13.72.72,5.6-.64,10.82-3.22,15.6-2.62-5.52-5.26-11.07-7.83-16.48-2.17.67-3.77,1.17-5.32,1.66,1.46,5.63,3.08,11.29,4.38,17.01,3.9,17.1,5.15,34.41,3.79,51.89-.27,3.48-.62,6.96-1.08,10.42-.15,1.1.36,1.39,1.1,1.87,4.04,2.63,8.05,5.3,12.04,8.01.82.56,1.5,1.34,2.5,2.24H21.5c-.1-.16-.2-.33-.31-.49,3.3-2.41,6.56-4.87,9.92-7.19.96-.66,1.34-1.27,1.31-2.43-.62-19.38.57-28.67,5.98-47.11-1.47-.66-2.93-1.32-4.64-2.09-1.61.94-3.54,1.93-5.32,3.15-1.77,1.21-3.38,2.66-5.04,4-1.95-4.17,1.01-10.76,6.7-15.38-2.26.74-4.55,1.39-6.77,2.23-2.37.89-4.72,1.87-7,2.97-2.23,1.08-4.39,2.3-6.51,3.57-2.12,1.27-4.15,2.68-6.58,4.27,2.81-10.81,8.87-18.22,19.12-22.28-2.22.34-4.48.53-6.66,1.05-2.13.51-4.18,1.35-6.55,2.15,3.2-6.96,7.75-12.27,15.24-13.95,9.93-2.23,17.16,2.51,23.25,10.36ZM88.69,46.15c-2.01,5.83-3.96,11.52-5.89,17.12-5.12-6.56-5.64-16.58-1.29-26.66-5.12,1.51-21.68,13.28-23.97,16.97,10.38-2.23,21.98,4.98,23.26,14.46-8.16-3.37-8.92-3.57-11.74-3.12,6.78,5.08,8.44,6.94,10.13,11.37,1.85,4.84,1.93,11.9.19,15.27-6.33-11.12-14.24-18.44-20.04-18.55,2.61,4.79,3.57,10.08,2.4,13.84-1.07-1.46-2.05-2.83-3.08-4.17-1.02-1.34-2.09-2.66-3.19-4.04-1.98,1.72-4.18,2.55-6.28,1.29-1.82-1.1-3.21-2.91-4.81-4.43-5.22,15.35-6.01,31.17-2.19,47.49,9.61-3.71,19.34-5.79,29.42-6.41,10.16-.62,20.14.47,30.15,2.82,9.4-26.77,9.56-53.42.44-80.32-3.24,7.35-7.78,9.2-13.52,7.06Z"/>
  </g>
</svg>