<svg width="347" height="255" viewBox="0 0 347 255" fill="none" xmlns="http://www.w3.org/2000/svg">
<path d="M132.82 57.1996C134.28 42.5196 139.9 30.7396 153.09 23.4996C145.14 24.0996 137.51 25.9696 130.01 28.5096L129.69 28.1296C130.88 26.3096 132 24.4396 133.28 22.6796C137.32 17.1496 142.21 12.5396 148.5 9.69955C159.98 4.52955 170.52 6.35955 180.11 14.3296C180.5 14.6496 180.87 15.0096 181.24 15.3496C181.61 15.6896 181.98 16.0296 182.48 16.4796C183.43 15.3096 184.32 14.1696 185.26 13.0796C190.63 6.84955 197.05 2.18955 205.25 0.579551C214.84 -1.31045 223.21 1.49955 230.47 7.87955C234.06 11.0296 237.68 15.8696 239.32 19.5696C232.34 18.2996 225.29 17.0296 218.25 15.7496C218.18 15.9396 218.11 16.1296 218.04 16.3196C234.58 22.1596 243.22 34.2296 245.79 51.1296C233.32 41.1496 219.74 33.2796 204.45 28.4196C208.96 31.9696 211.79 36.4796 212.52 42.1396C213.24 47.7396 211.88 52.9596 209.3 57.7396C206.68 52.2196 204.04 46.6696 201.47 41.2596C199.3 41.9296 197.7 42.4296 196.15 42.9196C197.61 48.5496 199.23 54.2096 200.53 59.9296C204.43 77.0296 205.68 94.3396 204.32 111.82C204.05 115.3 203.7 118.78 203.24 122.24C203.09 123.34 203.6 123.63 204.34 124.11C208.38 126.74 212.39 129.41 216.38 132.12C217.2 132.68 217.88 133.46 218.88 134.36H106.71C106.61 134.2 106.51 134.03 106.4 133.87C109.7 131.46 112.96 129 116.32 126.68C117.28 126.02 117.66 125.41 117.63 124.25C117.01 104.87 118.2 95.5795 123.61 77.1395C122.14 76.4795 120.68 75.8196 118.97 75.0496C117.36 75.9896 115.43 76.9796 113.65 78.1996C111.88 79.4096 110.27 80.8596 108.61 82.1996C106.66 78.0296 109.62 71.4395 115.31 66.8195C113.05 67.5595 110.76 68.2096 108.54 69.0496C106.17 69.9396 103.82 70.9196 101.54 72.0196C99.3102 73.0996 97.1502 74.3196 95.0302 75.5896C92.9102 76.8596 90.8802 78.2696 88.4502 79.8596C91.2602 69.0496 97.3202 61.6396 107.57 57.5796C105.35 57.9196 103.09 58.1096 100.91 58.6296C98.7802 59.1396 96.7302 59.9796 94.3602 60.7796C97.5602 53.8196 102.11 48.5096 109.6 46.8296C119.53 44.5996 126.76 49.3396 132.85 57.1896L132.82 57.1996ZM173.89 44.1596C171.88 49.9896 169.93 55.6796 168 61.2796C162.88 54.7196 162.36 44.6996 166.71 34.6196C161.59 36.1296 145.03 47.8996 142.74 51.5896C153.12 49.3596 164.72 56.5696 166 66.0496C157.84 62.6796 157.08 62.4796 154.26 62.9296C161.04 68.0096 162.7 69.8696 164.39 74.2996C166.24 79.1396 166.32 86.1995 164.58 89.5695C158.25 78.4495 150.34 71.1296 144.54 71.0196C147.15 75.8096 148.11 81.0996 146.94 84.8596C145.87 83.3996 144.89 82.0296 143.86 80.6896C142.84 79.3496 141.77 78.0296 140.67 76.6496C138.69 78.3696 136.49 79.1996 134.39 77.9396C132.57 76.8396 131.18 75.0296 129.58 73.5096C124.36 88.8596 123.57 104.68 127.39 121C137 117.29 146.73 115.21 156.81 114.59C166.97 113.97 176.95 115.06 186.96 117.41C196.36 90.6396 196.52 63.9896 187.4 37.0896C184.16 44.4396 179.62 46.2896 173.88 44.1496L173.89 44.1596Z" fill="white"/>
<path d="M308.78 202.149C303.04 203.129 297.32 204.219 291.57 205.079C271.45 208.089 251.21 209.229 230.89 208.499C221.24 208.149 211.59 207.389 201.99 206.329C187.73 204.749 173.52 202.659 159.27 200.919C148.11 199.559 136.94 198.159 125.74 197.249C112.16 196.139 98.5502 196.149 84.9302 197.009C70.1302 197.949 55.4802 199.859 40.9702 202.869C36.3102 203.839 31.7002 205.009 27.0702 206.079C26.5902 206.189 26.1002 206.259 25.4502 205.929C29.3002 204.039 33.1002 202.049 37.0102 200.279C51.2802 193.849 66.2102 189.669 81.7402 187.719C93.5202 186.239 105.32 186.189 117.16 187.129C134.86 188.539 152.22 192.059 169.67 195.069C183.36 197.429 197.11 199.589 210.89 201.349C233.08 204.189 255.41 204.769 277.75 203.959C287.97 203.589 298.17 202.559 308.38 201.839C308.5 201.839 308.62 201.889 308.75 201.909C308.76 201.999 308.78 202.079 308.79 202.169L308.78 202.149Z" fill="white"/>
<path d="M2.1 175.689L2.02 175.229L2.13 174.889C2.64 174.759 3.21 174.489 3.84 174.059C4.7 173.499 5.24 173.169 5.47 173.069C6.63 173.369 7.49 173.599 8.05 173.729C8.61 173.869 9.16 173.999 9.72 174.129C9.87 173.519 9.99 172.859 10.06 172.139C10.14 171.419 10.17 170.779 10.17 170.219C10.17 169.509 10.13 168.769 10.06 167.999C9.98 167.229 9.92 166.599 9.87 166.119C9.57 166.269 9.25 166.389 8.92 166.459C8.59 166.539 8.27 166.559 7.97 166.539C7.56 166.309 7.34 165.959 7.29 165.479C7.42 164.999 7.5 164.729 7.56 164.679C8.04 164.529 8.81 164.109 9.87 163.429V151.889C9.77 151.789 9.45 151.739 8.91 151.739C8.17 151.739 7.09 151.829 5.66 152.009C4.23 152.189 2.74 152.359 1.19 152.539L0 151.359C0.58 150.429 1.27 149.809 2.07 149.499C2.87 149.189 3.82 149.039 4.94 149.039H7.6C8.08 149.039 8.52 149.019 8.93 148.959C9.33 148.909 9.74 148.809 10.14 148.649C10.54 148.499 11.04 148.229 11.62 147.849C12.35 147.389 12.85 147.099 13.1 146.969C13.33 147.429 13.44 147.669 13.44 147.689L13.25 148.069C13.38 148.199 15.06 148.519 18.3 149.039C21.54 149.559 24.03 150.109 25.78 150.689C28.56 151.629 29.95 152.749 29.95 154.069C29.95 155.389 29.29 156.689 27.98 158.059C27.07 159.019 25.86 159.969 24.34 160.909C26.06 161.589 27.78 162.259 29.5 162.919C30.89 163.779 31.59 165.239 31.59 167.289C31.59 169.899 30.17 172.039 27.34 173.709C25.09 175.029 22.08 175.999 18.31 176.629C15.55 177.089 12.77 177.309 9.96 177.309C8.57 177.309 7.18 177.209 5.79 177.009C3.79 176.729 2.56 176.289 2.11 175.679L2.1 175.689ZM13.44 152.119C13.44 154.729 13.46 156.649 13.5 157.889C13.54 159.129 13.69 160.559 13.93 162.179C16.3 161.399 18.68 160.599 21.08 159.789C24.79 158.349 26.64 157.059 26.64 155.919C26.64 155.639 26.59 155.349 26.49 155.049C26.39 154.749 26.25 154.569 26.07 154.519C23.13 153.509 20.83 152.829 19.14 152.489C17.46 152.149 15.9 151.979 14.45 151.979C14.17 151.979 13.83 152.029 13.43 152.129L13.44 152.119ZM13.75 165.329C13.75 165.959 13.78 166.919 13.85 168.209C13.91 169.499 13.94 170.299 13.94 170.599C13.94 171.309 13.91 171.949 13.85 172.539C13.79 173.119 13.66 173.649 13.45 174.129C18.94 173.519 21.75 173.209 21.88 173.179C26.13 172.349 28.25 170.969 28.25 169.039C28.25 167.109 27.26 165.839 25.29 165.059C23.9 164.499 22.08 164.229 19.83 164.229C17.76 164.229 15.73 164.599 13.76 165.329H13.75Z" fill="white"/>
<path d="M32.8002 177.469C32.3702 177.469 31.9602 177.419 31.5702 177.319C31.1802 177.219 30.8002 177.039 30.4502 176.789C30.6502 176.109 30.9402 175.479 31.3202 174.909C31.7002 174.339 31.8902 173.079 31.8902 171.129C31.8902 169.179 31.8002 167.029 31.6102 164.529C31.4202 162.029 31.2202 159.429 31.0202 156.729C30.8202 154.039 30.7202 151.889 30.7202 150.299C30.7202 149.789 31.1102 149.209 31.9002 148.549C32.8402 147.889 33.4402 147.449 33.7202 147.219L34.3502 147.489C34.4202 147.589 34.5702 149.399 34.8002 152.909C35.0302 156.419 35.2302 160.139 35.4102 164.059C35.6002 167.989 35.6902 170.699 35.6902 172.189V173.099C37.0602 173.359 38.5502 173.479 40.1702 173.479C41.5102 173.479 43.5202 173.349 46.2002 173.079C48.8802 172.809 50.8902 172.679 52.2302 172.679C52.4802 172.679 52.7402 172.699 53.0102 172.729C53.2802 172.769 53.5502 172.799 53.8302 172.819L54.3202 173.619C54.1402 174.249 53.7802 174.869 53.2402 175.479C52.7002 176.089 52.1202 176.479 51.5102 176.659C50.8802 176.279 49.6902 176.089 47.9402 176.089C46.4202 176.089 44.3802 176.229 41.8302 176.509C36.0102 177.139 33.0002 177.459 32.8002 177.459V177.469Z" fill="white"/>
<path d="M76.6698 176.819C76.5698 176.539 76.1298 173.379 75.3398 167.329C75.0898 166.169 74.8298 164.989 74.5798 163.799C74.0198 165.919 72.9898 167.869 71.4698 169.639C70.3298 170.979 68.7098 172.389 66.6098 173.849C64.8098 175.059 63.0198 176.279 61.2198 177.489C60.6898 177.869 60.1098 178.059 59.4698 178.059C58.4098 178.059 57.5598 177.569 56.9298 176.579C55.6598 174.559 54.7898 172.459 54.2898 170.299C53.7998 168.139 53.5498 165.829 53.5498 163.369C53.5498 161.949 53.6098 160.309 53.7398 158.439C54.0398 153.959 54.1998 151.079 54.1998 149.789C54.7198 149.179 55.0798 148.789 55.2498 148.609C55.9798 147.829 56.6898 147.339 57.3898 147.169L57.9598 147.779C57.8698 149.599 57.7998 151.309 57.7398 152.899C57.6798 154.489 57.6498 156.129 57.6498 157.799C57.6498 160.909 57.7598 163.589 57.9698 165.849C58.1898 168.099 58.5798 169.949 59.1698 171.389C59.8498 173.089 60.7798 173.929 61.9498 173.929C62.5598 173.929 63.1998 173.719 63.8898 173.279C67.2398 171.209 69.7398 168.249 71.4198 164.399C71.6198 163.919 72.6198 160.719 74.4198 154.799C75.4298 151.439 76.8098 149.269 78.5598 148.309C79.0698 148.689 79.3198 149.159 79.3198 149.709C79.3198 151.509 79.2798 153.259 79.2098 154.979C78.9798 160.169 78.8698 162.999 78.8698 163.479C78.8698 165.549 78.9698 167.509 79.1698 169.339C79.3698 171.169 79.7298 173.029 80.2298 174.899C79.7998 175.479 79.3798 176.049 78.9798 176.609C78.5998 177.039 78.2998 177.259 78.0698 177.259C77.6098 177.259 77.1498 177.109 76.6698 176.799V176.819Z" fill="white"/>
<path d="M85.8102 154.549V158.159C85.8102 160.919 85.8502 162.729 85.9202 163.609C85.9902 164.489 86.1702 165.579 86.4502 166.889C87.4102 166.969 88.5202 166.999 89.7902 166.999C92.4002 166.999 95.2702 166.849 98.4002 166.539C101.54 166.239 104.21 165.869 106.41 165.439C106.61 165.769 106.71 166.049 106.71 166.269C106.71 166.449 106.63 166.709 106.48 167.069C106.3 167.169 106.1 167.309 105.87 167.489C105.57 167.769 105.26 168.049 104.96 168.319C104.2 168.929 101.78 169.449 97.7002 169.899C93.6202 170.339 89.8502 170.559 86.3702 170.559C86.3402 170.709 86.3202 170.929 86.2902 171.219C86.2602 171.509 86.2502 171.769 86.2502 171.999V173.519C87.1602 173.719 88.1902 173.869 89.3202 173.979C90.4602 174.079 91.5302 174.129 92.5502 174.129C94.0202 174.129 95.8102 174.039 97.9402 173.859C102.77 173.459 105.8 173.249 107.01 173.249C107.95 173.249 108.41 173.619 108.41 174.349C108.41 174.529 108.37 174.729 108.3 174.959L105.61 177.009C103 177.009 100.65 177.039 98.5502 177.089C91.2402 177.269 87.3002 177.359 86.7502 177.359C85.6602 177.359 84.6202 177.399 83.6402 177.469C82.6502 177.549 81.7002 177.699 80.7902 177.929C80.2602 177.729 79.8002 177.369 79.4202 176.869C79.6202 176.389 79.9802 175.999 80.4802 175.689C81.1402 175.359 81.6202 175.119 81.9202 174.969V169.849L81.3902 169.049C81.3902 168.869 81.4602 168.679 81.6002 168.459C81.7402 168.249 81.8802 168.069 82.0402 167.949C81.9102 166.709 81.8002 164.529 81.7002 161.419C81.6002 158.309 81.5002 156.199 81.4002 155.079C80.4602 155.079 79.7202 154.659 79.1602 153.829C79.2602 153.499 79.4402 153.209 79.7102 152.959C80.1702 152.609 80.6202 152.239 81.0602 151.859V149.839C81.0602 149.709 81.0802 149.579 81.1402 149.439C81.1902 149.299 81.2402 149.149 81.2902 148.999C82.2302 148.419 82.9802 147.989 83.5502 147.729C84.1202 147.459 84.6102 147.279 85.0102 147.179C85.1102 147.329 85.1902 147.549 85.2402 147.829C85.2902 148.109 85.3202 148.359 85.3202 148.589V149.459C85.3202 149.809 85.3502 150.129 85.4202 150.409C85.4802 150.689 85.6202 150.929 85.8202 151.129C87.8702 150.929 89.7902 150.779 91.5902 150.669C93.3902 150.569 95.3102 150.519 97.3602 150.519C99.8402 150.519 102.12 150.599 104.21 150.769C106.3 150.939 108.44 151.209 110.64 151.589C110.79 151.969 110.9 152.219 110.96 152.349C111.02 152.479 111.05 152.549 111.05 152.579C111.05 152.659 111 152.809 110.9 153.039L108.21 155.009C106.64 154.809 104.93 154.659 103.07 154.569C101.21 154.479 99.1502 154.439 96.9002 154.439C94.9302 154.439 93.0302 154.449 91.2102 154.479C89.3902 154.509 87.5902 154.529 85.8202 154.559L85.8102 154.549Z" fill="white"/>
<path d="M143.08 150.339C142.93 151.499 142.83 152.679 142.78 153.869C142.73 155.059 142.7 156.349 142.7 157.739C142.7 158.849 142.72 160.699 142.78 163.279C142.83 165.859 142.86 167.249 142.86 167.449C142.86 168.989 142.82 170.469 142.75 171.869C142.67 173.269 142.52 174.659 142.29 176.029C141.66 176.589 141.2 176.949 140.92 177.129C140.44 177.429 139.88 177.639 139.25 177.739C138.67 177.489 138.19 177.129 137.81 176.679C137.81 174.829 137.91 172.079 138.11 168.409C138.31 164.739 138.41 161.979 138.41 160.139C138.41 158.299 138.35 156.689 138.24 155.259C138.13 153.829 137.92 152.309 137.61 150.689C135.08 150.689 132.32 150.939 129.32 151.449C126.32 151.959 123.43 152.449 120.65 152.929C120.42 152.699 120.25 152.469 120.12 152.249C119.99 152.019 119.93 151.789 119.93 151.569C119.93 151.419 119.94 151.299 119.97 151.229C122.78 149.939 126.36 149.029 130.71 148.499C134.18 148.069 138.35 147.849 143.23 147.849C145.91 147.849 148.56 147.889 151.16 147.959C158.95 148.189 162.95 148.299 163.15 148.299C163.28 148.859 163.07 149.439 162.54 150.049C162.01 150.659 161.44 150.959 160.83 150.959C159.13 150.959 157.23 150.909 155.12 150.809C153.01 150.709 150.89 150.609 148.78 150.509C146.67 150.409 144.76 150.359 143.07 150.359L143.08 150.339Z" fill="white"/>
<path d="M160.65 154.549V158.159C160.65 160.919 160.69 162.729 160.76 163.609C160.83 164.489 161.01 165.579 161.29 166.889C162.25 166.969 163.36 166.999 164.63 166.999C167.24 166.999 170.11 166.849 173.24 166.539C176.38 166.239 179.05 165.869 181.25 165.439C181.45 165.769 181.55 166.049 181.55 166.269C181.55 166.449 181.47 166.709 181.32 167.069C181.14 167.169 180.94 167.309 180.71 167.489C180.41 167.769 180.1 168.049 179.8 168.319C179.04 168.929 176.62 169.449 172.54 169.899C168.46 170.339 164.69 170.559 161.21 170.559C161.18 170.709 161.16 170.929 161.13 171.219C161.1 171.509 161.09 171.769 161.09 171.999V173.519C162 173.719 163.03 173.869 164.16 173.979C165.3 174.079 166.37 174.129 167.39 174.129C168.86 174.129 170.65 174.039 172.78 173.859C177.61 173.459 180.64 173.249 181.85 173.249C182.79 173.249 183.25 173.619 183.25 174.349C183.25 174.529 183.21 174.729 183.14 174.959L180.45 177.009C177.84 177.009 175.49 177.039 173.39 177.089C166.08 177.269 162.14 177.359 161.59 177.359C160.5 177.359 159.46 177.399 158.48 177.469C157.49 177.549 156.54 177.699 155.63 177.929C155.1 177.729 154.64 177.369 154.26 176.869C154.46 176.389 154.82 175.999 155.32 175.689C155.98 175.359 156.46 175.119 156.76 174.969V169.849L156.23 169.049C156.23 168.869 156.3 168.679 156.44 168.459C156.58 168.249 156.72 168.069 156.88 167.949C156.75 166.709 156.64 164.529 156.54 161.419C156.44 158.309 156.34 156.199 156.24 155.079C155.3 155.079 154.56 154.659 154 153.829C154.1 153.499 154.28 153.209 154.55 152.959C155.01 152.609 155.46 152.239 155.9 151.859V149.839C155.9 149.709 155.92 149.579 155.98 149.439C156.03 149.299 156.08 149.149 156.13 148.999C157.07 148.419 157.82 147.989 158.39 147.729C158.96 147.459 159.45 147.279 159.85 147.179C159.95 147.329 160.03 147.549 160.08 147.829C160.13 148.109 160.16 148.359 160.16 148.589V149.459C160.16 149.809 160.19 150.129 160.26 150.409C160.32 150.689 160.46 150.929 160.66 151.129C162.71 150.929 164.63 150.779 166.43 150.669C168.23 150.569 170.15 150.519 172.2 150.519C174.68 150.519 176.96 150.599 179.05 150.769C181.14 150.939 183.28 151.209 185.48 151.589C185.63 151.969 185.74 152.219 185.8 152.349C185.86 152.479 185.89 152.549 185.89 152.579C185.89 152.659 185.84 152.809 185.74 153.039L183.05 155.009C181.48 154.809 179.77 154.659 177.91 154.569C176.05 154.479 173.99 154.439 171.74 154.439C169.77 154.439 167.87 154.449 166.05 154.479C164.23 154.509 162.43 154.529 160.66 154.559L160.65 154.549Z" fill="white"/>
<path d="M203.27 172.839C203.07 172.839 202.83 172.869 202.57 172.919C202.3 172.969 202.04 173.019 201.79 173.069C201.79 173.299 201.83 173.649 201.92 174.109C202.01 174.579 202.05 174.879 202.05 174.999C202.05 175.299 201.56 175.789 200.59 176.459C199.62 177.129 198.96 177.489 198.64 177.539C197.86 177.359 197.15 175.279 196.53 171.299C195.91 167.319 195.32 163.349 194.77 159.399C194.09 154.769 193.43 151.939 192.8 150.899C192.6 150.969 191.49 151.109 189.48 151.309C187.47 151.519 186.36 151.619 186.16 151.619C185.65 151.619 185.27 151.509 185.02 151.299C184.92 151.229 184.67 150.879 184.26 150.259C185.22 149.199 186.9 148.389 189.31 147.829C191.18 147.399 193.12 147.179 195.12 147.179C198.48 147.179 201.95 147.419 205.52 147.899C210.45 148.559 214.43 149.559 217.44 150.899C221.23 152.569 223.13 154.669 223.13 157.199C223.13 159.349 222.14 161.269 220.17 162.969C218.6 164.309 216.35 165.499 213.41 166.539C211.11 167.349 208.69 167.979 206.16 168.439C207.7 169.149 209.25 169.859 210.79 170.559C214.53 171.649 219.09 172.759 224.45 173.899L224.6 174.619C224.4 175.279 223.92 175.909 223.16 176.519C222.6 176.949 222.2 177.249 221.95 177.429C216.31 175.959 211.99 174.849 209.01 174.089C205.77 173.259 203.86 172.839 203.28 172.839H203.27ZM200.69 167.529C202.13 166.799 204.14 166.079 206.72 165.369C210.26 164.409 212.32 163.829 212.91 163.619C215.16 162.809 217.03 161.789 218.53 160.549C218.68 160.169 218.76 159.819 218.76 159.489C218.76 157.919 217.27 156.479 214.28 155.159C211.9 154.099 208.89 153.209 205.25 152.499C202.31 151.919 200.09 151.629 198.57 151.629L200.69 167.529Z" fill="white"/>
<path d="M241.52 172.839C241.32 172.839 241.08 172.869 240.82 172.919C240.55 172.969 240.29 173.019 240.04 173.069C240.04 173.299 240.08 173.649 240.17 174.109C240.26 174.579 240.3 174.879 240.3 174.999C240.3 175.299 239.81 175.789 238.84 176.459C237.87 177.129 237.21 177.489 236.89 177.539C236.11 177.359 235.4 175.279 234.78 171.299C234.16 167.319 233.57 163.349 233.02 159.399C232.34 154.769 231.68 151.939 231.05 150.899C230.85 150.969 229.74 151.109 227.73 151.309C225.72 151.519 224.61 151.619 224.41 151.619C223.9 151.619 223.52 151.509 223.27 151.299C223.17 151.229 222.92 150.879 222.51 150.259C223.47 149.199 225.15 148.389 227.56 147.829C229.43 147.399 231.37 147.179 233.37 147.179C236.73 147.179 240.2 147.419 243.77 147.899C248.7 148.559 252.68 149.559 255.69 150.899C259.48 152.569 261.38 154.669 261.38 157.199C261.38 159.349 260.39 161.269 258.42 162.969C256.85 164.309 254.6 165.499 251.66 166.539C249.36 167.349 246.94 167.979 244.41 168.439C245.95 169.149 247.5 169.859 249.04 170.559C252.78 171.649 257.34 172.759 262.7 173.899L262.85 174.619C262.65 175.279 262.17 175.909 261.41 176.519C260.85 176.949 260.45 177.249 260.2 177.429C254.56 175.959 250.24 174.849 247.26 174.089C244.02 173.259 242.11 172.839 241.53 172.839H241.52ZM238.94 167.529C240.38 166.799 242.39 166.079 244.97 165.369C248.51 164.409 250.57 163.829 251.16 163.619C253.41 162.809 255.28 161.789 256.78 160.549C256.93 160.169 257.01 159.819 257.01 159.489C257.01 157.919 255.52 156.479 252.53 155.159C250.15 154.099 247.14 153.209 243.5 152.499C240.56 151.919 238.34 151.629 236.82 151.629L238.94 167.529Z" fill="white"/>
<path d="M287.21 175.49C286.7 176.07 286.31 176.49 286.06 176.74C285.57 177.25 285.11 177.58 284.68 177.73C284.16 177.53 283.79 177.24 283.58 176.86C283.37 176.48 283.26 176.03 283.26 175.49C283.26 174.95 283.39 174.15 283.66 172.99C283.93 171.83 284.06 171 284.06 170.52H266.9L262.13 175.38C261.5 175.33 261.17 175.29 261.15 175.27C261.02 175.04 260.88 174.8 260.73 174.55C260.93 174.07 261.39 173.46 262.1 172.73C262.99 171.77 263.5 171.2 263.66 171.02C263.38 170.94 263.1 170.87 262.83 170.79C262.35 170.64 261.93 170.4 261.58 170.07V169.31C262.29 168.58 263.1 168.06 264.01 167.75C264.92 167.45 265.95 167.29 267.08 167.29C268.42 166.25 270.66 164.07 273.8 160.75C278.71 155.58 281.35 152.8 281.73 152.42C284.59 149.56 286.63 147.86 287.84 147.33V148.39C287.84 148.97 287.73 150.04 287.51 151.58C287.38 152.52 287.31 153.19 287.31 153.59C287.31 155.09 287.42 157.33 287.65 160.32C287.88 163.31 287.99 165.55 287.99 167.05C288.47 167.33 288.91 167.45 289.32 167.43C289.42 167.73 289.47 167.97 289.47 168.15C289.47 168.53 289.12 169.1 288.41 169.86C288.11 170.16 287.81 170.46 287.54 170.73V171.3C287.54 172.41 287.52 173.19 287.48 173.62C287.44 174.05 287.36 174.67 287.23 175.48L287.21 175.49ZM270.67 166.66C271.76 166.76 272.96 166.86 274.28 166.96C275.59 167.06 277.1 167.11 278.8 167.11C280.27 167.11 281.27 167.09 281.82 167.05C282.36 167.01 283.15 166.93 284.19 166.8C284.27 166.45 284.3 165.75 284.3 164.72C284.3 162.75 284.21 160.41 284.03 157.7C283.85 154.99 283.73 153.58 283.65 153.48C282.36 154.67 280.89 156.1 279.25 157.79C277.83 159.28 276.42 160.77 275 162.26C273.3 164.05 271.86 165.51 270.67 166.65V166.66Z" fill="white"/>
<path d="M302.66 177.77C298.18 177.77 294.58 176.43 291.84 173.75C289.28 171.25 288.01 168.15 288.01 164.45C288.01 162.6 288.35 160.81 289.02 159.06C289.69 157.31 290.73 155.66 292.13 154.11C293.53 152.55 295.37 151.22 297.65 150.11C300.1 148.92 302.42 148.33 304.59 148.33C306.31 148.33 307.74 148.71 308.88 149.47C310.19 150.33 311.11 151.66 311.61 153.45C311.41 153.93 311.07 154.41 310.59 154.89C310.36 155.14 309.92 155.54 309.26 156.07C308.1 155.08 306.93 154.1 305.77 153.11C304.25 152 302.86 151.44 301.6 151.44C299.22 151.44 297.09 152.69 295.21 155.18C293.32 157.67 292.38 160.42 292.38 163.43C292.38 166.44 293.45 169.05 295.61 170.94C298.14 173.19 301.91 174.32 306.92 174.32C309.55 174.32 312.12 173.98 314.62 173.3L315.04 174.13C314.86 174.81 314.48 175.45 313.9 176.03C313.47 176.46 312.86 176.9 312.08 177.36C311.09 177.36 309.13 177.45 306.2 177.63C304.53 177.73 303.35 177.78 302.67 177.78L302.66 177.77Z" fill="white"/>
<path d="M320.88 154.549V158.159C320.88 160.919 320.92 162.729 320.99 163.609C321.06 164.489 321.24 165.579 321.52 166.889C322.48 166.969 323.59 166.999 324.86 166.999C327.47 166.999 330.34 166.849 333.47 166.539C336.61 166.239 339.28 165.869 341.48 165.439C341.68 165.769 341.78 166.049 341.78 166.269C341.78 166.449 341.7 166.709 341.55 167.069C341.37 167.169 341.17 167.309 340.94 167.489C340.64 167.769 340.33 168.049 340.03 168.319C339.27 168.929 336.85 169.449 332.77 169.899C328.69 170.339 324.92 170.559 321.44 170.559C321.41 170.709 321.39 170.929 321.36 171.219C321.33 171.509 321.32 171.769 321.32 171.999V173.519C322.23 173.719 323.26 173.869 324.39 173.979C325.53 174.079 326.6 174.129 327.62 174.129C329.09 174.129 330.88 174.039 333.01 173.859C337.84 173.459 340.87 173.249 342.08 173.249C343.02 173.249 343.48 173.619 343.48 174.349C343.48 174.529 343.44 174.729 343.37 174.959L340.68 177.009C338.07 177.009 335.72 177.039 333.62 177.089C326.31 177.269 322.37 177.359 321.82 177.359C320.73 177.359 319.69 177.399 318.71 177.469C317.72 177.549 316.77 177.699 315.86 177.929C315.33 177.729 314.87 177.369 314.49 176.869C314.69 176.389 315.05 175.999 315.55 175.689C316.21 175.359 316.69 175.119 316.99 174.969V169.849L316.46 169.049C316.46 168.869 316.53 168.679 316.67 168.459C316.81 168.249 316.95 168.069 317.11 167.949C316.98 166.709 316.87 164.529 316.77 161.419C316.67 158.309 316.57 156.199 316.47 155.079C315.53 155.079 314.79 154.659 314.23 153.829C314.33 153.499 314.51 153.209 314.78 152.959C315.24 152.609 315.69 152.239 316.13 151.859V149.839C316.13 149.709 316.15 149.579 316.21 149.439C316.26 149.299 316.31 149.149 316.36 148.999C317.3 148.419 318.05 147.989 318.62 147.729C319.19 147.459 319.68 147.279 320.08 147.179C320.18 147.329 320.26 147.549 320.31 147.829C320.36 148.109 320.39 148.359 320.39 148.589V149.459C320.39 149.809 320.42 150.129 320.49 150.409C320.55 150.689 320.69 150.929 320.89 151.129C322.94 150.929 324.86 150.779 326.66 150.669C328.46 150.569 330.38 150.519 332.43 150.519C334.91 150.519 337.19 150.599 339.28 150.769C341.37 150.939 343.51 151.209 345.71 151.589C345.86 151.969 345.97 152.219 346.03 152.349C346.09 152.479 346.12 152.549 346.12 152.579C346.12 152.659 346.07 152.809 345.97 153.039L343.28 155.009C341.71 154.809 340 154.659 338.14 154.569C336.28 154.479 334.22 154.439 331.97 154.439C330 154.439 328.1 154.449 326.28 154.479C324.46 154.509 322.66 154.529 320.89 154.559L320.88 154.549Z" fill="white"/>
<path d="M52.6798 233.12C52.5298 233.53 52.4598 234.12 52.4598 234.9C52.4598 235.19 52.4598 235.62 52.4898 236.19C52.5098 236.76 52.5198 237.19 52.5198 237.48C52.5198 238.45 52.4398 239.88 52.2698 241.8C52.0998 243.72 52.0198 245.15 52.0198 246.12C52.0198 246.85 52.0698 247.96 52.1798 249.42C52.2898 250.88 52.3398 251.99 52.3398 252.74C52.3398 253.14 52.2098 253.47 51.9398 253.74C51.6698 254.01 51.3398 254.15 50.9498 254.15C50.5598 254.15 50.2398 254.01 49.9598 253.74C49.6898 253.47 49.5498 253.14 49.5498 252.74C49.5498 252 49.4998 250.89 49.3898 249.42C49.2798 247.95 49.2298 246.85 49.2298 246.12C49.2298 245.39 49.2498 244.7 49.2998 243.98C47.6498 244.01 45.6098 244.26 43.1698 244.72L37.0798 245.91C37.0798 246.78 36.9898 248.01 36.8198 249.61C36.6498 251.21 36.5598 252.45 36.5598 253.33C36.5598 253.73 36.4298 254.06 36.1598 254.34C35.8898 254.62 35.5598 254.75 35.1698 254.75C34.7798 254.75 34.4398 254.61 34.1798 254.34C33.9198 254.07 33.7798 253.73 33.7798 253.33C33.7798 252.31 33.8598 250.78 34.0298 248.74C34.1998 246.71 34.2798 245.18 34.2798 244.15C34.2798 243.62 34.2598 242.82 34.2198 241.75C34.1798 240.68 34.1598 239.87 34.1598 239.33C34.1598 238.57 34.2098 237.42 34.2998 235.89C34.3998 234.36 34.4498 233.21 34.4498 232.45C34.4498 232.04 34.5798 231.71 34.8498 231.44C35.1198 231.17 35.4498 231.03 35.8398 231.03C36.2298 231.03 36.5698 231.17 36.8298 231.44C37.0898 231.71 37.2298 232.05 37.2298 232.45C37.2298 233.22 37.1798 234.38 37.0798 235.92C36.9798 237.46 36.9298 238.62 36.9298 239.39L37.0198 243.06L43.2398 241.89C45.7198 241.43 47.8098 241.18 49.5098 241.17C49.6198 239.79 49.6698 237.71 49.6698 234.93C49.6698 234.2 49.7898 233.45 50.0298 232.7C50.3498 231.67 50.7998 231.15 51.3798 231.15C51.7498 231.15 52.0798 231.28 52.3698 231.55C52.6598 231.82 52.7998 232.15 52.7998 232.56C52.7998 232.71 52.7598 232.9 52.6698 233.15L52.6798 233.12Z" fill="white"/>
<path d="M72.49 253.97C71.6 253.97 70.83 252.83 70.17 250.55C69.92 249.68 69.61 248.16 69.23 245.99C68.25 246.13 66.96 246.37 65.36 246.71L61.51 247.51C61.03 248.78 60.2 250.63 59.03 253.06C58.72 253.6 58.3 253.87 57.77 253.87C57.38 253.87 57.04 253.73 56.73 253.45C56.43 253.17 56.27 252.82 56.27 252.41C56.27 251.95 57 250.18 58.46 247.12C58.3 246.87 58.21 246.58 58.21 246.25C58.21 245.47 58.68 244.97 59.63 244.74C60.73 242.67 62.12 240.3 63.8 237.61C66.09 233.95 67.51 232.12 68.07 232.12C68.83 232.12 69.35 232.65 69.63 233.71L70.54 238.58L72.7 248.65L73.53 250.94C73.81 251.72 73.95 252.24 73.95 252.5C73.95 252.92 73.8 253.26 73.5 253.54C73.2 253.82 72.86 253.96 72.47 253.96L72.49 253.97ZM67.37 237.41L63.23 244.09C64.4 243.79 66.17 243.43 68.55 243L67.38 237.41H67.37Z" fill="white"/>
<path d="M96.6996 254.93C96.2596 254.93 95.8596 254.8 95.5296 254.55C95.1396 254.26 94.9496 253.9 94.9496 253.48C94.5096 252.31 94.2296 251.36 94.1096 250.63C93.9896 249.9 93.6096 247.81 92.9696 244.38C92.4796 241.78 92.1496 239.7 91.9796 238.12C91.1196 241.31 90.1996 244.01 89.2096 246.22C88.0696 248.78 87.3296 250.78 86.9896 252.23C87.1096 252.45 87.1596 252.67 87.1596 252.88C87.1596 253.31 86.9696 253.67 86.5796 253.95C86.2296 254.21 85.8396 254.34 85.3896 254.34C84.0896 254.34 83.4296 253.76 83.4296 252.59L82.9796 250.75L81.3996 243.65C80.7696 241.25 79.6996 237.82 78.1796 233.35C78.1096 233.14 78.0796 232.94 78.0796 232.77C78.0796 231.87 78.5896 231.42 79.5996 231.42C80.2296 231.42 80.7096 231.76 81.0496 232.45C81.2196 232.8 81.5796 233.8 82.1096 235.45C82.6796 237.2 83.2496 239.3 83.8196 241.77L85.2296 248.17C86.2596 245.77 87.2896 242.86 88.3196 239.42C88.9496 237.32 89.4296 235.87 89.7496 235.06C90.6196 232.93 91.4596 231.86 92.2896 231.86C92.9696 231.86 93.4396 232.2 93.7196 232.89C94.0696 233.72 94.4196 235.7 94.7796 238.83C94.9696 240.41 95.2996 242.32 95.7596 244.54L97.0096 250.23C98.2996 247.12 99.9196 242.91 101.86 237.61C101.97 237.32 102.21 236.41 102.58 234.87C102.86 233.74 103.2 232.86 103.61 232.23C103.96 231.7 104.41 231.43 104.97 231.43C105.95 231.43 106.43 231.91 106.43 232.88C106.43 233.04 106.28 233.53 105.97 234.33L105.39 235.89L104.59 238.47L100.29 248.93C99.8896 250.08 99.2096 251.75 98.2496 253.94C97.8996 254.59 97.3796 254.91 96.6896 254.91L96.6996 254.93Z" fill="white"/>
<path d="M125.04 253.97C124.15 253.97 123.38 252.83 122.72 250.55C122.47 249.68 122.16 248.16 121.78 245.99C120.8 246.13 119.51 246.37 117.91 246.71L114.06 247.51C113.58 248.78 112.75 250.63 111.58 253.06C111.27 253.6 110.85 253.87 110.32 253.87C109.93 253.87 109.59 253.73 109.28 253.45C108.98 253.17 108.82 252.82 108.82 252.41C108.82 251.95 109.55 250.18 111.01 247.12C110.85 246.87 110.76 246.58 110.76 246.25C110.76 245.47 111.23 244.97 112.18 244.74C113.28 242.67 114.67 240.3 116.35 237.61C118.64 233.95 120.06 232.12 120.62 232.12C121.38 232.12 121.9 232.65 122.18 233.71L123.09 238.58L125.25 248.65L126.08 250.94C126.36 251.72 126.5 252.24 126.5 252.5C126.5 252.92 126.35 253.26 126.05 253.54C125.75 253.82 125.41 253.96 125.02 253.96L125.04 253.97ZM119.92 237.41L115.78 244.09C116.95 243.79 118.72 243.43 121.1 243L119.93 237.41H119.92Z" fill="white"/>
<path d="M142.5 235.48C141.88 235.48 141.1 235.42 140.17 235.29L137.84 234.99C137.62 237.8 137.51 240.49 137.51 243.05C137.51 243.73 137.53 244.56 137.57 245.56C137.61 246.56 137.63 247.39 137.63 248.07C137.63 248.98 137.6 249.8 137.53 250.55L142.09 250.49C142.5 250.49 142.84 250.63 143.11 250.92C143.39 251.21 143.52 251.56 143.52 251.97C143.52 252.38 143.38 252.75 143.11 253.03C142.83 253.31 142.49 253.46 142.09 253.46C141.55 253.46 140.74 253.47 139.66 253.5C138.58 253.52 137.77 253.54 137.23 253.54C136.59 253.54 135.64 253.63 134.37 253.81C133.1 253.99 132.14 254.08 131.49 254.08C131.08 254.08 130.74 253.94 130.47 253.65C130.2 253.36 130.06 253.01 130.06 252.6C130.06 252.19 130.2 251.83 130.47 251.54C130.75 251.25 131.09 251.11 131.49 251.11C132.12 251.11 133.16 251.01 134.61 250.81C134.71 250.03 134.76 249.13 134.76 248.13C134.76 247.46 134.73 246.65 134.67 245.69C134.61 244.73 134.58 243.92 134.58 243.26C134.58 241.03 134.72 238.24 134.99 234.9L133.11 234.96L131.23 235C130.81 235 130.47 234.86 130.19 234.58C129.91 234.3 129.77 233.94 129.77 233.51C129.77 232.61 130.22 232.12 131.13 232.03C131.91 231.95 133.38 231.91 135.52 231.91C137.44 231.91 139.85 232.12 142.75 232.53C143.61 232.66 144.04 233.17 144.04 234.08C144.04 234.53 143.88 234.9 143.55 235.17C143.26 235.39 142.93 235.5 142.55 235.5L142.5 235.48Z" fill="white"/>
<path d="M158.71 235.48C158.09 235.48 157.31 235.42 156.38 235.29L154.05 234.99C153.83 237.8 153.72 240.49 153.72 243.05C153.72 243.73 153.74 244.56 153.78 245.56C153.82 246.56 153.84 247.39 153.84 248.07C153.84 248.98 153.81 249.8 153.74 250.55L158.3 250.49C158.71 250.49 159.05 250.63 159.32 250.92C159.6 251.21 159.73 251.56 159.73 251.97C159.73 252.38 159.59 252.75 159.32 253.03C159.04 253.31 158.7 253.46 158.3 253.46C157.76 253.46 156.95 253.47 155.87 253.5C154.79 253.52 153.98 253.54 153.44 253.54C152.8 253.54 151.85 253.63 150.58 253.81C149.31 253.99 148.35 254.08 147.7 254.08C147.29 254.08 146.95 253.94 146.68 253.65C146.41 253.36 146.27 253.01 146.27 252.6C146.27 252.19 146.41 251.83 146.68 251.54C146.96 251.25 147.3 251.11 147.7 251.11C148.33 251.11 149.37 251.01 150.82 250.81C150.92 250.03 150.97 249.13 150.97 248.13C150.97 247.46 150.94 246.65 150.88 245.69C150.82 244.73 150.79 243.92 150.79 243.26C150.79 241.03 150.93 238.24 151.2 234.9L149.32 234.96L147.44 235C147.02 235 146.68 234.86 146.4 234.58C146.12 234.3 145.98 233.94 145.98 233.51C145.98 232.61 146.43 232.12 147.34 232.03C148.12 231.95 149.59 231.91 151.73 231.91C153.65 231.91 156.06 232.12 158.96 232.53C159.82 232.66 160.25 233.17 160.25 234.08C160.25 234.53 160.09 234.9 159.76 235.17C159.47 235.39 159.14 235.5 158.76 235.5L158.71 235.48Z" fill="white"/>
<path d="M179.17 253.97C178.28 253.97 177.51 252.83 176.85 250.55C176.6 249.68 176.29 248.16 175.91 245.99C174.93 246.13 173.64 246.37 172.04 246.71L168.19 247.51C167.71 248.78 166.88 250.63 165.71 253.06C165.4 253.6 164.98 253.87 164.45 253.87C164.06 253.87 163.72 253.73 163.41 253.45C163.11 253.17 162.95 252.82 162.95 252.41C162.95 251.95 163.68 250.18 165.14 247.12C164.98 246.87 164.89 246.58 164.89 246.25C164.89 245.47 165.36 244.97 166.31 244.74C167.41 242.67 168.8 240.3 170.48 237.61C172.77 233.95 174.19 232.12 174.75 232.12C175.51 232.12 176.03 232.65 176.31 233.71L177.22 238.58L179.38 248.65L180.21 250.94C180.49 251.72 180.63 252.24 180.63 252.5C180.63 252.92 180.48 253.26 180.18 253.54C179.88 253.82 179.54 253.96 179.15 253.96L179.17 253.97ZM174.06 237.41L169.92 244.09C171.09 243.79 172.86 243.43 175.24 243L174.07 237.41H174.06Z" fill="white"/>
<path d="M205.09 250.32C205.09 250.78 205.01 251.56 204.86 252.64C204.71 253.62 204.19 254.1 203.31 254.1C202.78 254.1 202.15 253.75 201.41 253.06C197.48 249.34 192.97 243.98 187.88 236.96L187.81 240.25L187.77 243.55C187.77 244.35 187.79 245.55 187.82 247.16C187.85 248.77 187.87 249.97 187.87 250.78C187.87 253.38 187.37 254.68 186.36 254.68C185.83 254.68 185.41 254.51 185.1 254.17C184.82 253.87 184.68 253.51 184.68 253.1C184.68 252.69 184.71 252.08 184.77 251.26C184.83 250.44 184.86 249.83 184.86 249.42C184.86 248.82 184.88 247.93 184.92 246.73C184.96 245.54 184.98 244.64 184.98 244.04C184.98 243.4 184.97 242.44 184.94 241.15C184.91 239.86 184.9 238.9 184.9 238.26C184.9 237.62 184.84 236.75 184.73 235.54C184.62 234.33 184.56 233.43 184.56 232.82C184.56 232.38 184.75 231.97 185.13 231.6C185.51 231.23 185.94 231.05 186.43 231.05C186.94 231.05 187.57 231.61 188.33 232.73C190.74 236.33 192.9 239.33 194.82 241.71C197.11 244.54 199.62 247.24 202.35 249.82C202.38 249.4 202.38 248.79 202.35 247.98L202.31 246.15C202.31 241.91 202.15 238.53 201.82 236.02C201.78 235.77 201.65 235.26 201.43 234.5C201.24 233.84 201.14 233.33 201.14 232.96C201.14 231.84 201.65 231.28 202.68 231.28C204.36 231.28 205.2 234.41 205.2 240.68C205.2 241.75 205.19 243.35 205.16 245.48C205.13 247.61 205.12 249.21 205.12 250.28L205.09 250.32Z" fill="white"/>
<path d="M217.22 249.93C217.22 249.52 217.35 249.19 217.63 248.94C217.91 248.68 218.27 248.56 218.68 248.56C219.15 248.56 219.57 248.83 219.93 249.37C220.42 250.1 220.86 250.6 221.25 250.86C222.07 251.4 223.26 251.67 224.83 251.67C226.4 251.67 227.72 251.35 229 250.7C230.64 249.87 231.46 248.72 231.46 247.24C231.46 246.02 230.77 245.06 229.39 244.36C228.22 243.75 226.78 243.42 225.06 243.37C223.53 243.31 222.23 242.98 221.16 242.37C219.79 241.59 219.1 240.47 219.1 239.01C219.1 237.29 220.08 235.72 222.03 234.3C223.89 232.96 225.82 232.29 227.81 232.29C228.75 232.29 229.8 232.45 230.98 232.77C232.54 233.19 233.33 233.72 233.33 234.36C233.33 235.21 232.9 235.63 232.03 235.63C231.64 235.63 230.97 235.53 230 235.32C229.03 235.11 228.29 235.01 227.75 235.02C226.24 235.04 224.96 235.41 223.91 236.14C222.83 236.88 222.29 237.79 222.29 238.85C222.29 239.65 223 240.22 224.43 240.55C224.96 240.68 225.99 240.79 227.52 240.9C229.73 241.06 231.46 241.76 232.71 242.99C233.85 244.11 234.42 245.48 234.42 247.09C234.42 249.39 233.36 251.22 231.23 252.6C229.38 253.79 227.25 254.38 224.81 254.38C223.04 254.38 221.42 254.04 219.96 253.37C218.16 252.54 217.25 251.4 217.22 249.95V249.93Z" fill="white"/>
<path d="M255.59 235.229C254.87 235.229 253.77 235.169 252.29 235.059C250.84 234.949 249.74 234.909 248.99 234.909H247.96C247.99 236.239 248.12 238.409 248.35 241.399C248.56 244.189 248.67 246.359 248.67 247.909C248.67 248.249 248.7 248.759 248.77 249.449C248.84 250.139 248.87 250.649 248.87 250.999C248.87 251.659 248.76 252.219 248.55 252.699C248.28 253.339 247.86 253.659 247.29 253.659C246.9 253.659 246.56 253.529 246.25 253.249C245.94 252.969 245.79 252.629 245.79 252.209C245.79 252.059 245.81 251.849 245.86 251.559C245.91 251.269 245.93 251.049 245.93 250.909C245.93 250.439 245.9 249.729 245.84 248.779C245.78 247.829 245.75 247.119 245.75 246.639C245.75 245.259 245.64 243.319 245.42 240.819C245.19 238.119 245.06 236.169 245.03 234.999H243.71C241.59 235.009 239.93 234.859 238.73 234.549C237.95 234.349 237.56 233.869 237.56 233.119C237.56 232.719 237.69 232.379 237.94 232.079C238.23 231.739 238.6 231.589 239.06 231.619C239.4 231.639 240.17 231.729 241.38 231.879C242.35 231.999 243.13 232.049 243.73 232.049C244.33 232.049 245.19 232.039 246.37 232.009C247.55 231.989 248.43 231.969 249.01 231.969C249.75 231.969 250.86 232.019 252.32 232.129C253.78 232.239 254.89 232.289 255.63 232.289C256.05 232.289 256.39 232.429 256.67 232.719C256.95 233.009 257.09 233.359 257.09 233.779C257.09 234.199 256.95 234.549 256.67 234.829C256.39 235.119 256.04 235.259 255.63 235.259L255.59 235.229Z" fill="white"/>
<path d="M273 235C272.77 235.37 272.46 235.93 272.07 236.7L269.58 242.86C268.61 245.17 267.71 247.19 266.86 248.92L265.05 252.15L264.28 253.71C263.96 254.27 263.53 254.549 262.99 254.549C262.61 254.549 262.27 254.41 261.96 254.13C261.65 253.85 261.5 253.5 261.5 253.09C261.5 252.76 261.95 251.73 262.86 250L264.64 246.74C262.91 244.51 261.79 242.75 261.28 241.47C260.84 240.38 260.12 239.07 259.11 237.54C257.72 235.45 256.9 234.19 256.66 233.76C256.51 233.5 256.44 233.24 256.44 232.98C256.44 232.56 256.59 232.21 256.9 231.93C257.21 231.65 257.55 231.5 257.94 231.5C258.41 231.5 258.81 231.73 259.13 232.18L260.29 233.98C261.31 235.5 261.99 236.53 262.32 237.08C263.04 238.27 263.61 239.37 264.02 240.38C264.34 241.18 265.02 242.28 266.06 243.67L269.38 235.59C269.76 234.92 270.28 233.9 270.94 232.5C271.21 231.84 271.66 231.51 272.29 231.51C272.68 231.51 273.02 231.65 273.33 231.92C273.63 232.19 273.79 232.54 273.79 232.96C273.79 233.38 273.53 234.09 273.02 235H273Z" fill="white"/>
<path d="M289.72 252.939C288.63 253.449 286.91 253.909 284.58 254.319C282.43 254.699 280.67 254.889 279.31 254.889C278.33 254.889 277.63 254.739 277.21 254.439C276.63 254.029 276.34 253.289 276.34 252.209L276.63 247.409C276.88 242.989 277.01 238.079 277.01 232.689C277.01 232.269 277.15 231.919 277.42 231.629C277.7 231.339 278.04 231.199 278.44 231.199C278.84 231.199 279.2 231.349 279.48 231.629C279.76 231.919 279.89 232.269 279.89 232.689C279.89 238.149 279.76 243.109 279.5 247.579L279.31 249.779C279.23 250.579 279.2 251.289 279.22 251.909C281.74 251.939 284.93 251.339 288.78 250.129C288.94 250.079 289.1 250.059 289.24 250.059C289.66 250.059 290 250.219 290.28 250.549C290.52 250.849 290.64 251.189 290.64 251.579C290.64 252.199 290.33 252.649 289.71 252.939H289.72Z" fill="white"/>
<path d="M307.37 234.03C307.23 234.03 307.08 234.01 306.92 233.96C305.29 233.5 303.71 233.26 302.2 233.26C301.41 233.26 300.54 233.33 299.61 233.48C298.67 233.62 297.66 233.85 296.58 234.15C296.67 234.78 296.71 235.28 296.71 235.66C296.71 237 296.63 238.85 296.46 241.19L302.81 240.58C304.67 240.39 305.82 240.29 306.24 240.29C306.66 240.29 307.02 240.43 307.31 240.7C307.6 240.97 307.75 241.33 307.75 241.79C307.75 242.67 307.31 243.16 306.42 243.27L302.97 243.57L296.28 244.18C296.24 244.87 296.21 245.52 296.19 246.13C296.17 246.74 296.15 247.32 296.15 247.85C296.15 249.98 296.3 251.24 296.61 251.62C296.84 251.89 297.6 252.03 298.88 252.03C299.48 252.03 300.38 252.01 301.58 251.98C302.78 251.95 303.69 251.93 304.3 251.93C304.49 251.93 304.78 251.9 305.15 251.84C305.53 251.78 305.81 251.75 305.99 251.75C307.01 251.75 307.53 252.25 307.53 253.26C307.53 254.07 307.12 254.56 306.3 254.72C305.39 254.9 303.43 255 300.4 255C297.37 255 295.48 254.6 294.63 253.81C293.7 252.95 293.24 250.97 293.24 247.87C293.24 247.25 293.25 246.58 293.28 245.84C293.31 245.11 293.35 244.31 293.4 243.46C293.29 243.24 293.24 243 293.24 242.75C293.24 242.42 293.33 242.13 293.52 241.87C293.71 239.08 293.81 237.02 293.81 235.68C293.81 235.32 293.76 234.8 293.66 234.11C293.56 233.42 293.51 232.9 293.51 232.54C293.51 231.39 293.99 230.82 294.96 230.82C295.37 230.82 295.71 230.96 296 231.24C297.16 230.93 298.25 230.7 299.28 230.54C300.31 230.39 301.28 230.31 302.19 230.31C304.54 230.31 306.41 230.59 307.81 231.15C308.46 231.41 308.78 231.87 308.78 232.54C308.78 232.93 308.65 233.27 308.4 233.57C308.12 233.9 307.77 234.06 307.36 234.06L307.37 234.03Z" fill="white"/>
</svg>
