<svg width="516" height="60" viewBox="0 0 516 60" fill="none" xmlns="http://www.w3.org/2000/svg">
<path d="M515.469 5.15998C515.109 7.25998 514.689 9.50999 514.209 11.91C513.789 14.31 513.369 16.71 512.949 19.11C512.529 21.51 512.169 23.82 511.869 26.04C511.569 28.26 511.389 30.21 511.329 31.89L509.979 35.85C509.559 36.27 509.289 36.78 509.169 37.38C509.049 37.98 508.989 38.61 508.989 39.27C508.989 39.93 508.989 40.59 508.989 41.25C509.049 41.91 509.019 42.51 508.899 43.05C508.839 43.35 508.599 43.68 508.179 44.04C507.819 44.34 507.519 44.58 507.279 44.76C507.039 44.94 506.889 45.03 506.829 45.03C506.769 45.03 506.499 45.03 506.019 45.03C505.779 41.73 505.689 38.34 505.749 34.86C505.809 31.32 505.989 27.84 506.289 24.42C506.649 20.94 507.159 17.58 507.819 14.34C508.479 11.04 509.289 7.97999 510.249 5.15998C510.549 4.85998 510.849 4.67998 511.149 4.61999C511.509 4.49999 511.929 4.31999 512.409 4.07999C513.189 3.59999 513.879 3.35999 514.479 3.35999C514.779 3.59999 515.019 3.89999 515.199 4.25998C515.439 4.55998 515.529 4.85998 515.469 5.15998ZM510.699 54.3C511.359 55.2 511.359 56.07 510.699 56.91C510.099 57.69 509.379 58.29 508.539 58.71C507.879 59.01 507.399 59.1 507.099 58.98C506.859 58.86 506.559 58.74 506.199 58.62C505.959 58.5 505.539 58.38 504.939 58.26C504.399 58.08 504.039 57.84 503.859 57.54C503.439 56.88 503.139 56.19 502.959 55.47C502.839 54.69 502.779 53.85 502.779 52.95C502.779 52.59 502.929 52.32 503.229 52.14C503.529 51.9 503.889 51.75 504.309 51.69C504.789 51.57 505.239 51.51 505.659 51.51C506.079 51.51 506.439 51.54 506.739 51.6C507.279 51.78 507.609 52.05 507.729 52.41C507.849 52.71 508.059 52.98 508.359 53.22C509.199 53.94 509.979 54.3 510.699 54.3Z" fill="#393737"/>
<path d="M489.609 1.19997C489.609 5.03997 489.969 8.63997 490.689 12C491.409 15.3 492.009 18.69 492.489 22.17C492.969 25.71 493.299 29.22 493.479 32.7C493.659 36.12 493.899 39.3 494.199 42.24C494.019 42.6 493.929 43.02 493.929 43.5C493.989 43.98 493.869 44.37 493.569 44.67C492.669 45.51 491.649 46.32 490.509 47.1C489.369 47.88 488.109 48.6 486.729 49.26C486.249 49.5 485.769 49.62 485.289 49.62C484.809 49.56 484.329 49.59 483.849 49.71C483.309 49.83 482.739 49.98 482.139 50.16C481.599 50.34 481.029 50.37 480.429 50.25C479.769 50.07 478.989 49.8 478.089 49.44C477.189 49.02 476.289 48.54 475.389 48C474.489 47.46 473.649 46.86 472.869 46.2C472.149 45.54 471.609 44.82 471.249 44.04C470.589 40.62 470.709 37.53 471.609 34.77C472.569 32.01 473.979 29.52 475.839 27.3C476.079 27 476.379 26.79 476.739 26.67C477.099 26.49 477.429 26.28 477.729 26.04C478.029 25.8 478.359 25.62 478.719 25.5C479.079 25.32 479.499 25.26 479.979 25.32C481.179 25.44 482.499 25.74 483.939 26.22C485.379 26.64 486.489 26.91 487.269 27.03V25.68C487.269 24.12 487.149 22.56 486.909 21C486.729 19.38 486.549 17.76 486.369 16.14C486.189 14.52 486.039 12.87 485.919 11.19C485.859 9.44997 485.949 7.67997 486.189 5.87997C486.249 5.39997 486.369 4.91997 486.549 4.43997C486.729 3.95997 486.879 3.47997 486.999 2.99997C487.119 2.69997 487.299 2.36997 487.539 2.00997C487.779 1.58997 488.049 1.31997 488.349 1.19997C488.649 1.07997 488.829 0.89997 488.889 0.659973C488.949 0.359974 489.099 0.239974 489.339 0.299973C489.579 0.359972 489.669 0.449969 489.609 0.569968C489.609 0.68997 489.609 0.899971 489.609 1.19997ZM489.069 43.14C489.129 42.48 489.129 41.55 489.069 40.35C489.069 39.09 488.889 37.8 488.529 36.48C488.169 35.16 487.569 33.9 486.729 32.7C485.949 31.5 484.839 30.6 483.399 30C482.739 30.06 481.959 30.18 481.059 30.36C480.219 30.48 479.379 30.72 478.539 31.08C477.699 31.44 476.919 31.95 476.199 32.61C475.479 33.21 474.909 33.99 474.489 34.95C474.129 36.03 474.129 37.44 474.489 39.18C474.849 40.86 475.809 42.48 477.369 44.04C478.269 44.58 479.229 44.91 480.249 45.03C481.269 45.09 482.289 45.06 483.309 44.94C484.389 44.82 485.409 44.58 486.369 44.22C487.389 43.86 488.289 43.5 489.069 43.14Z" fill="#393737"/>
<path d="M442.055 38.46C443.075 37.44 444.095 36.36 445.115 35.22C446.195 34.02 447.305 32.88 448.445 31.8C449.585 30.72 450.755 29.76 451.955 28.92C453.155 28.02 454.415 27.3 455.735 26.76C456.035 26.64 456.305 26.61 456.545 26.67C456.845 26.73 457.145 26.7 457.445 26.58C457.925 26.58 458.345 26.58 458.705 26.58C459.065 26.58 459.395 26.7 459.695 26.94C460.535 27.48 461.195 28.26 461.675 29.28C462.215 30.24 462.665 31.32 463.025 32.52C463.265 33.18 463.385 33.81 463.385 34.41C463.445 35.01 463.625 35.7 463.925 36.48C464.285 37.62 464.675 38.79 465.095 39.99C465.575 41.13 465.755 42.24 465.635 43.32C465.575 43.62 465.485 43.89 465.365 44.13C465.245 44.31 465.095 44.55 464.915 44.85C464.795 45.09 464.585 45.39 464.285 45.75C463.985 46.11 463.685 46.38 463.385 46.56C463.085 46.8 462.875 47.01 462.755 47.19C462.695 47.31 462.425 47.46 461.945 47.64C461.165 46.5 460.565 45.27 460.145 43.95C459.725 42.63 459.365 41.25 459.065 39.81C458.765 38.37 458.495 36.9 458.255 35.4C458.015 33.9 457.715 32.37 457.355 30.81C457.235 30.39 456.845 30.15 456.185 30.09C455.585 30.03 454.865 30.24 454.025 30.72C453.245 31.14 452.405 31.83 451.505 32.79C450.605 33.75 449.795 34.98 449.075 36.48C448.595 37.56 448.145 38.7 447.725 39.9C447.305 41.04 446.825 42.21 446.285 43.41C445.805 44.55 445.205 45.69 444.485 46.83C443.825 47.91 443.015 48.9 442.055 49.8C441.755 50.1 441.545 50.13 441.425 49.89C441.305 49.65 441.005 49.44 440.525 49.26C440.165 49.14 439.955 49.02 439.895 48.9C439.895 48.78 439.805 48.42 439.625 47.82C439.265 46.56 438.875 45.12 438.455 43.5C438.095 41.88 437.675 40.17 437.195 38.37C436.775 36.57 436.325 34.77 435.845 32.97C435.365 31.11 434.885 29.37 434.405 27.75L433.865 26.13C433.985 25.89 434.195 25.68 434.495 25.5C434.855 25.32 435.215 25.17 435.575 25.05C435.935 24.93 436.325 24.96 436.745 25.14C437.165 25.32 437.495 25.41 437.735 25.41C438.395 25.41 438.965 25.83 439.445 26.67C439.985 27.51 440.435 28.59 440.795 29.91C441.155 31.17 441.425 32.58 441.605 34.14C441.845 35.64 441.995 37.08 442.055 38.46Z" fill="#393737"/>
<path d="M425.644 24.15C426.424 26.07 427.144 28.14 427.804 30.36C428.524 32.58 429.004 34.8 429.244 37.02C429.544 39.18 429.544 41.28 429.244 43.32C429.004 45.36 428.314 47.13 427.174 48.63C426.694 49.23 426.124 49.47 425.464 49.35C425.224 49.29 425.014 49.14 424.834 48.9C424.654 48.66 424.414 48.45 424.114 48.27C423.874 48.09 423.604 47.94 423.304 47.82C423.064 47.7 422.824 47.46 422.584 47.1C421.684 47.4 420.784 47.85 419.884 48.45C419.044 48.99 418.174 49.56 417.274 50.16C416.374 50.76 415.444 51.36 414.484 51.96C413.524 52.5 412.534 52.89 411.514 53.13C410.434 53.43 409.624 53.4 409.084 53.04C408.604 52.62 408.064 52.17 407.464 51.69C407.044 51.33 406.774 51.12 406.654 51.06C406.534 50.94 406.414 50.55 406.294 49.89C406.114 48.57 406.084 47.16 406.204 45.66C406.384 44.1 406.744 42.54 407.284 40.98C408.784 36.42 411.844 33.36 416.464 31.8C417.004 31.62 417.544 31.59 418.084 31.71C418.684 31.77 419.254 31.92 419.794 32.16C420.334 32.4 420.844 32.7 421.324 33.06C421.864 33.42 422.344 33.78 422.764 34.14L424.204 35.31C424.504 34.29 424.474 33.21 424.114 32.07C423.814 30.87 423.334 29.76 422.674 28.74C422.014 27.66 421.264 26.7 420.424 25.86C419.584 25.02 418.774 24.45 417.994 24.15C414.934 24.15 412.174 24.87 409.714 26.31C407.314 27.69 404.974 29.52 402.694 31.8C402.574 31.92 402.424 32.01 402.244 32.07C402.124 32.13 402.004 32.19 401.884 32.25C401.704 32.37 401.494 32.4 401.254 32.34C401.074 32.28 401.044 32.1 401.164 31.8C401.524 29.88 402.244 28.17 403.324 26.67C404.404 25.11 405.664 23.76 407.104 22.62C408.544 21.48 410.074 20.52 411.694 19.74C413.314 18.96 414.904 18.39 416.464 18.03C416.704 17.91 416.914 17.85 417.094 17.85C417.334 17.79 417.604 17.76 417.904 17.76C418.324 17.76 418.714 17.88 419.074 18.12C419.434 18.36 419.854 18.63 420.334 18.93C420.934 19.23 421.534 19.59 422.134 20.01C422.734 20.37 423.274 20.82 423.754 21.36C424.174 21.84 424.534 22.32 424.834 22.8C425.134 23.28 425.404 23.73 425.644 24.15ZM422.584 40.17C422.224 39.39 421.654 38.67 420.874 38.01C420.154 37.35 419.314 36.87 418.354 36.57C417.394 36.21 416.344 36.12 415.204 36.3C414.124 36.48 413.014 37.02 411.874 37.92C411.514 38.7 411.154 39.57 410.794 40.53C410.434 41.43 410.164 42.36 409.984 43.32C409.804 44.22 409.714 45.15 409.714 46.11C409.774 47.01 409.984 47.85 410.344 48.63C412.624 47.85 414.844 46.95 417.004 45.93C419.164 44.91 421.024 44.01 422.584 43.23C422.944 42.87 423.154 42.57 423.214 42.33C423.274 42.09 423.244 41.88 423.124 41.7C423.064 41.52 422.944 41.31 422.764 41.07C422.644 40.83 422.584 40.53 422.584 40.17Z" fill="#393737"/>
<path d="M398.179 30.81C398.299 30.93 398.389 30.99 398.449 30.99C398.509 30.99 398.539 31.05 398.539 31.17C398.479 31.29 398.329 31.44 398.089 31.62C397.909 31.74 397.549 31.83 397.009 31.89C396.829 31.95 396.589 32.07 396.289 32.25C395.989 32.37 395.749 32.46 395.569 32.52C393.949 32.88 392.029 33.21 389.809 33.51C387.649 33.81 385.399 34.08 383.059 34.32C382.939 36.42 382.879 38.37 382.879 40.17C382.939 41.97 383.029 43.53 383.149 44.85C383.269 45.87 383.749 46.38 384.589 46.38C385.429 46.32 386.299 46.14 387.199 45.84C387.439 45.78 388.069 45.51 389.089 45.03C390.169 44.49 391.399 43.89 392.779 43.23C394.219 42.51 395.719 41.76 397.279 40.98C398.839 40.14 400.249 39.39 401.509 38.73C401.509 39.57 401.059 40.38 400.159 41.16C399.679 41.58 399.139 41.97 398.539 42.33C397.999 42.69 397.429 43.08 396.829 43.5C396.169 43.92 395.719 44.37 395.479 44.85C395.239 45.33 394.699 45.84 393.859 46.38C392.299 47.4 390.619 48.33 388.819 49.17C387.019 50.01 385.399 50.61 383.959 50.97C383.479 51.09 382.969 51.15 382.429 51.15C381.949 51.15 381.469 51.24 380.989 51.42C380.269 51.72 379.699 51.66 379.279 51.24C378.919 50.82 378.679 50.22 378.559 49.44C378.319 47.22 378.139 44.85 378.019 42.33C377.959 39.81 377.959 37.26 378.019 34.68C376.219 34.8 374.539 34.86 372.979 34.86C371.479 34.8 370.249 34.68 369.289 34.5C368.389 34.38 367.549 34.2 366.769 33.96C366.049 33.66 365.389 33.21 364.789 32.61C364.249 32.61 364.069 32.37 364.249 31.89C364.489 31.35 364.669 30.9 364.789 30.54C366.049 30.48 367.879 30.42 370.279 30.36C372.739 30.24 375.379 30.12 378.199 30C378.439 25.02 378.859 20.4 379.459 16.14C380.059 11.88 380.779 8.70003 381.619 6.60003C381.619 6.06003 381.829 5.70003 382.249 5.52003C382.729 5.28002 383.209 5.01003 383.689 4.71003C383.929 4.59003 384.169 4.44003 384.409 4.26003C384.709 4.02003 385.099 3.90002 385.579 3.90002C386.119 4.20002 386.509 4.47003 386.749 4.71003C386.989 4.89003 387.109 5.13003 387.109 5.43003C387.109 5.73003 387.019 6.09003 386.839 6.51003C386.659 6.93003 386.449 7.47003 386.209 8.13003C386.089 8.31003 385.909 9.06003 385.669 10.38C385.429 11.7 385.159 13.38 384.859 15.42C384.619 17.4 384.349 19.68 384.049 22.26C383.749 24.78 383.509 27.33 383.329 29.91C385.309 29.91 387.199 29.94 388.999 30C390.799 30 392.389 30.06 393.769 30.18L398.179 30.81Z" fill="#393737"/>
<path d="M355.545 15.33C355.425 15.57 355.425 15.75 355.545 15.87C355.665 15.99 355.665 16.11 355.545 16.23C355.365 16.35 355.035 16.44 354.555 16.5C354.135 16.5 353.775 16.53 353.475 16.59C353.055 16.71 352.635 16.77 352.215 16.77C351.795 16.71 351.345 16.53 350.865 16.23C350.145 15.87 349.245 15.54 348.165 15.24C347.145 14.88 346.035 14.7 344.835 14.7C343.275 14.7 341.625 14.88 339.885 15.24C338.145 15.54 336.465 15.99 334.845 16.59C333.285 17.13 331.875 17.82 330.615 18.66C329.415 19.5 328.545 20.43 328.005 21.45C327.645 22.23 327.495 23.07 327.555 23.97C327.615 24.81 327.825 25.62 328.185 26.4C328.545 27.18 328.965 27.9 329.445 28.56C329.985 29.16 330.495 29.58 330.975 29.82C332.475 30.6 334.125 31.11 335.925 31.35C337.785 31.59 339.675 31.74 341.595 31.8C343.575 31.86 345.525 31.95 347.445 32.07C349.365 32.19 351.135 32.49 352.755 32.97C353.595 33.27 354.375 33.51 355.095 33.69C355.875 33.87 356.565 34.14 357.165 34.5C357.765 34.8 358.305 35.25 358.785 35.85C359.325 36.39 359.775 37.2 360.135 38.28C360.675 40.56 360.555 42.78 359.775 44.94C358.995 47.16 357.705 49.14 355.905 50.88C354.105 52.56 352.065 53.91 349.785 54.93C347.985 55.71 346.125 56.25 344.205 56.55C342.345 56.79 340.515 56.73 338.715 56.37C336.975 56.01 335.355 55.32 333.855 54.3C332.415 53.28 331.245 51.87 330.345 50.07C329.805 48.93 329.535 47.55 329.535 45.93C329.475 45.75 329.475 45.57 329.535 45.39C329.655 44.97 330.045 44.76 330.705 44.76C330.945 44.64 331.245 44.73 331.605 45.03C332.025 45.27 332.325 45.42 332.505 45.48C332.985 45.54 333.435 45.87 333.855 46.47C334.335 47.01 334.785 47.46 335.205 47.82C336.705 49.38 338.385 50.34 340.245 50.7C342.165 51 343.995 51 345.735 50.7C347.535 50.34 349.185 49.8 350.685 49.08C352.185 48.36 353.295 47.7 354.015 47.1C354.435 46.74 354.885 46.32 355.365 45.84C355.905 45.3 356.415 44.73 356.895 44.13C357.375 43.47 357.765 42.78 358.065 42.06C358.425 41.34 358.605 40.59 358.605 39.81C358.425 39.09 357.945 38.55 357.165 38.19C356.385 37.77 355.395 37.44 354.195 37.2C352.095 36.84 350.025 36.66 347.985 36.66C345.945 36.6 343.935 36.6 341.955 36.66C339.975 36.72 338.025 36.75 336.105 36.75C334.185 36.75 332.325 36.54 330.525 36.12C329.985 36 329.445 35.82 328.905 35.58C328.425 35.28 327.945 34.98 327.465 34.68C326.985 34.38 326.625 33.99 326.385 33.51C326.145 33.03 325.875 32.52 325.575 31.98C325.275 31.44 324.975 30.9 324.675 30.36C324.435 29.76 324.255 29.13 324.135 28.47C323.835 26.55 323.835 24.57 324.135 22.53C324.495 20.49 325.275 18.6 326.475 16.86C327.435 15.42 328.725 14.19 330.345 13.17C332.025 12.09 333.885 11.28 335.925 10.74C338.025 10.14 340.245 9.87 342.585 9.93C344.925 9.93 347.325 10.29 349.785 11.01C350.085 11.13 350.445 11.31 350.865 11.55C351.285 11.73 351.645 11.88 351.945 12C352.785 12.42 353.535 12.93 354.195 13.53C354.855 14.13 355.305 14.73 355.545 15.33Z" fill="#393737"/>
<path d="M269.086 38.46C270.106 37.44 271.126 36.36 272.146 35.22C273.226 34.02 274.336 32.88 275.476 31.8C276.616 30.72 277.786 29.76 278.986 28.92C280.186 28.02 281.446 27.3 282.766 26.76C283.066 26.64 283.336 26.61 283.576 26.67C283.876 26.73 284.176 26.7 284.476 26.58C284.956 26.58 285.376 26.58 285.736 26.58C286.096 26.58 286.426 26.7 286.726 26.94C287.566 27.48 288.226 28.26 288.706 29.28C289.246 30.24 289.696 31.32 290.056 32.52C290.296 33.18 290.416 33.81 290.416 34.41C290.476 35.01 290.656 35.7 290.956 36.48C291.316 37.62 291.706 38.79 292.126 39.99C292.606 41.13 292.786 42.24 292.666 43.32C292.606 43.62 292.516 43.89 292.396 44.13C292.276 44.31 292.126 44.55 291.946 44.85C291.826 45.09 291.616 45.39 291.316 45.75C291.016 46.11 290.716 46.38 290.416 46.56C290.116 46.8 289.906 47.01 289.786 47.19C289.726 47.31 289.456 47.46 288.976 47.64C288.196 46.5 287.596 45.27 287.176 43.95C286.756 42.63 286.396 41.25 286.096 39.81C285.796 38.37 285.526 36.9 285.286 35.4C285.046 33.9 284.746 32.37 284.386 30.81C284.266 30.39 283.876 30.15 283.216 30.09C282.616 30.03 281.896 30.24 281.056 30.72C280.276 31.14 279.436 31.83 278.536 32.79C277.636 33.75 276.826 34.98 276.106 36.48C275.626 37.56 275.176 38.7 274.756 39.9C274.336 41.04 273.856 42.21 273.316 43.41C272.836 44.55 272.236 45.69 271.516 46.83C270.856 47.91 270.046 48.9 269.086 49.8C268.786 50.1 268.576 50.13 268.456 49.89C268.336 49.65 268.036 49.44 267.556 49.26C267.196 49.14 266.986 49.02 266.926 48.9C266.926 48.78 266.836 48.42 266.656 47.82C266.296 46.56 265.906 45.12 265.486 43.5C265.126 41.88 264.706 40.17 264.226 38.37C263.806 36.57 263.356 34.77 262.876 32.97C262.396 31.11 261.916 29.37 261.436 27.75L260.896 26.13C261.016 25.89 261.226 25.68 261.526 25.5C261.886 25.32 262.246 25.17 262.606 25.05C262.966 24.93 263.356 24.96 263.776 25.14C264.196 25.32 264.526 25.41 264.766 25.41C265.426 25.41 265.996 25.83 266.476 26.67C267.016 27.51 267.466 28.59 267.826 29.91C268.186 31.17 268.456 32.58 268.636 34.14C268.876 35.64 269.026 37.08 269.086 38.46Z" fill="#393737"/>
<path d="M248.293 24.69L246.763 26.22C247.243 26.16 247.963 26.04 248.923 25.86C249.943 25.62 250.933 25.5 251.893 25.5C252.613 25.62 253.213 25.86 253.693 26.22C254.173 26.58 254.473 27.27 254.593 28.29C254.833 29.73 255.193 31.2 255.673 32.7C256.213 34.14 256.603 35.58 256.843 37.02C257.143 38.46 257.143 39.84 256.843 41.16C256.543 42.42 255.733 43.56 254.413 44.58C253.033 46.68 251.503 48.45 249.823 49.89C248.203 51.27 246.493 52.08 244.693 52.32C243.493 52.5 242.173 52.35 240.733 51.87C239.293 51.33 238.243 50.43 237.583 49.17C237.403 49.29 237.253 49.32 237.133 49.26C237.013 49.14 236.893 49.02 236.773 48.9C236.653 48.78 236.533 48.75 236.413 48.81C236.353 48.87 236.293 48.84 236.233 48.72C236.173 48.54 236.143 48.3 236.143 48V47.82V47.64C236.203 45.54 236.383 43.44 236.683 41.34C237.043 39.18 237.553 37.11 238.213 35.13C238.933 33.09 239.833 31.2 240.913 29.46C242.053 27.66 243.493 26.07 245.233 24.69C245.833 24.33 246.493 24.21 247.213 24.33C247.333 24.33 247.483 24.33 247.663 24.33C247.843 24.33 248.053 24.45 248.293 24.69ZM245.233 30.81C244.873 30.75 244.663 30.63 244.603 30.45C244.543 30.27 244.543 30.06 244.603 29.82C244.723 29.52 244.843 29.19 244.963 28.83C245.143 28.47 245.233 28.11 245.233 27.75C243.973 28.89 242.983 30.27 242.263 31.89C241.603 33.51 241.123 35.19 240.823 36.93C240.523 38.61 240.373 40.26 240.373 41.88C240.433 43.5 240.523 44.91 240.643 46.11C240.763 47.13 240.973 47.97 241.273 48.63C241.573 49.23 242.023 49.59 242.623 49.71C243.283 49.89 244.153 49.71 245.233 49.17C246.793 48.39 248.053 47.31 249.013 45.93C249.973 44.55 250.753 43.08 251.353 41.52C251.593 40.68 251.773 39.69 251.893 38.55C252.073 37.35 252.043 36.24 251.803 35.22C251.503 33.84 250.723 32.85 249.463 32.25C248.263 31.59 246.853 31.11 245.233 30.81Z" fill="#393737"/>
<path d="M228.77 21.09C229.25 21.57 229.43 21.96 229.31 22.26C229.25 22.56 229.07 22.68 228.77 22.62C227.99 22.62 227.12 22.71 226.16 22.89C225.26 23.01 224.27 23.13 223.19 23.25C222.17 23.31 221.09 23.31 219.95 23.25C218.81 23.19 217.67 22.98 216.53 22.62C216.05 22.14 216.05 21.72 216.53 21.36C217.07 20.94 217.49 20.34 217.79 19.56C217.97 19.02 218.21 18.66 218.51 18.48C218.87 18.24 219.23 18.09 219.59 18.03C220.25 18.03 221.06 18.18 222.02 18.48C223.04 18.72 223.88 18.87 224.54 18.93C225.56 19.05 226.4 19.23 227.06 19.47C227.72 19.65 228.29 20.19 228.77 21.09ZM226.88 33.33C227.24 34.71 227.51 35.97 227.69 37.11C227.93 38.25 228.08 39.36 228.14 40.44C228.26 41.46 228.32 42.51 228.32 43.59C228.38 44.67 228.41 45.84 228.41 47.1C228.41 47.34 228.26 47.61 227.96 47.91C227.72 48.15 227.54 48.42 227.42 48.72C227.18 49.26 226.97 49.59 226.79 49.71C226.67 49.83 226.43 49.98 226.07 50.16C225.23 50.52 224.48 51.03 223.82 51.69C223.04 50.55 222.5 49.23 222.2 47.73C221.96 46.23 221.78 44.67 221.66 43.05C221.6 41.43 221.51 39.81 221.39 38.19C221.33 36.51 221.12 34.89 220.76 33.33C220.58 32.49 220.64 31.92 220.94 31.62C221.24 31.32 221.57 31.11 221.93 30.99C222.35 30.87 222.8 30.96 223.28 31.26C223.82 31.56 224.33 31.86 224.81 32.16C225.23 32.4 225.62 32.55 225.98 32.61C226.4 32.61 226.7 32.85 226.88 33.33Z" fill="#393737"/>
<path d="M209.074 26.31C208.774 27.21 208.534 27.9 208.354 28.38C208.174 28.86 207.904 28.92 207.544 28.56C206.704 27.72 205.684 26.82 204.484 25.86C203.284 24.9 201.814 24.3 200.074 24.06C198.934 23.94 197.704 24.09 196.384 24.51C195.124 24.87 194.164 25.68 193.504 26.94C192.904 28.02 192.814 29.31 193.234 30.81C193.594 32.37 194.374 33.51 195.574 34.23C196.834 34.89 198.214 35.43 199.714 35.85C201.274 36.21 202.834 36.54 204.394 36.84C206.014 37.14 207.394 37.68 208.534 38.46C208.894 38.64 209.164 38.94 209.344 39.36C209.584 39.72 209.824 40.05 210.064 40.35C210.364 40.71 210.634 41.01 210.874 41.25C211.174 41.49 211.444 41.85 211.684 42.33C211.864 42.69 212.074 43.14 212.314 43.68C212.554 44.16 212.614 44.7 212.494 45.3C212.314 46.08 211.564 46.92 210.244 47.82C207.364 49.68 204.334 51.18 201.154 52.32C197.974 53.4 194.614 53.58 191.074 52.86C190.654 52.74 190.174 52.35 189.634 51.69C189.094 50.97 188.644 50.49 188.284 50.25C187.324 49.71 186.664 49.02 186.304 48.18C185.824 46.62 185.584 44.91 185.584 43.05C185.584 42.45 185.674 42.18 185.854 42.24C186.094 42.24 186.304 42.24 186.484 42.24C186.844 42.24 187.234 42.48 187.654 42.96C188.134 43.44 188.614 44.01 189.094 44.67C189.634 45.27 190.114 45.84 190.534 46.38C191.014 46.86 191.404 47.1 191.704 47.1C192.724 47.58 193.954 47.85 195.394 47.91C196.834 47.97 198.274 47.85 199.714 47.55C201.214 47.19 202.594 46.65 203.854 45.93C205.174 45.15 206.224 44.19 207.004 43.05C207.004 42.75 206.644 42.39 205.924 41.97C205.264 41.55 204.394 41.1 203.314 40.62C202.234 40.08 201.034 39.54 199.714 39C198.454 38.46 197.224 37.89 196.024 37.29C194.884 36.69 193.864 36.06 192.964 35.4C192.124 34.74 191.554 34.08 191.254 33.42C191.074 32.94 190.864 32.46 190.624 31.98C190.384 31.44 190.234 31.05 190.174 30.81C189.874 29.49 189.814 28.23 189.994 27.03C190.174 25.77 190.534 24.66 191.074 23.7C191.614 22.74 192.334 21.96 193.234 21.36C194.134 20.7 195.154 20.28 196.294 20.1C198.094 19.86 200.014 19.86 202.054 20.1C204.154 20.28 206.014 20.97 207.634 22.17C208.114 22.59 208.444 22.98 208.624 23.34C208.864 23.7 209.044 24.12 209.164 24.6C209.224 24.9 209.284 25.2 209.344 25.5C209.404 25.74 209.314 26.01 209.074 26.31Z" fill="#393737"/>
<path d="M178.488 26.31C178.188 27.21 177.948 27.9 177.768 28.38C177.588 28.86 177.318 28.92 176.958 28.56C176.118 27.72 175.098 26.82 173.898 25.86C172.698 24.9 171.228 24.3 169.488 24.06C168.348 23.94 167.118 24.09 165.798 24.51C164.538 24.87 163.578 25.68 162.918 26.94C162.318 28.02 162.228 29.31 162.648 30.81C163.008 32.37 163.788 33.51 164.988 34.23C166.248 34.89 167.628 35.43 169.128 35.85C170.688 36.21 172.248 36.54 173.808 36.84C175.428 37.14 176.808 37.68 177.948 38.46C178.308 38.64 178.578 38.94 178.758 39.36C178.998 39.72 179.238 40.05 179.478 40.35C179.778 40.71 180.048 41.01 180.288 41.25C180.588 41.49 180.858 41.85 181.098 42.33C181.278 42.69 181.488 43.14 181.728 43.68C181.968 44.16 182.028 44.7 181.908 45.3C181.728 46.08 180.978 46.92 179.658 47.82C176.778 49.68 173.748 51.18 170.568 52.32C167.388 53.4 164.028 53.58 160.488 52.86C160.068 52.74 159.588 52.35 159.048 51.69C158.508 50.97 158.058 50.49 157.698 50.25C156.738 49.71 156.078 49.02 155.718 48.18C155.238 46.62 154.998 44.91 154.998 43.05C154.998 42.45 155.088 42.18 155.268 42.24C155.508 42.24 155.718 42.24 155.898 42.24C156.258 42.24 156.648 42.48 157.068 42.96C157.548 43.44 158.028 44.01 158.508 44.67C159.048 45.27 159.528 45.84 159.948 46.38C160.428 46.86 160.818 47.1 161.118 47.1C162.138 47.58 163.368 47.85 164.808 47.91C166.248 47.97 167.688 47.85 169.128 47.55C170.628 47.19 172.008 46.65 173.268 45.93C174.588 45.15 175.638 44.19 176.418 43.05C176.418 42.75 176.058 42.39 175.338 41.97C174.678 41.55 173.808 41.1 172.728 40.62C171.648 40.08 170.448 39.54 169.128 39C167.868 38.46 166.638 37.89 165.438 37.29C164.298 36.69 163.278 36.06 162.378 35.4C161.538 34.74 160.968 34.08 160.668 33.42C160.488 32.94 160.278 32.46 160.038 31.98C159.798 31.44 159.648 31.05 159.588 30.81C159.288 29.49 159.228 28.23 159.408 27.03C159.588 25.77 159.948 24.66 160.488 23.7C161.028 22.74 161.748 21.96 162.648 21.36C163.548 20.7 164.568 20.28 165.708 20.1C167.508 19.86 169.428 19.86 171.468 20.1C173.568 20.28 175.428 20.97 177.048 22.17C177.528 22.59 177.858 22.98 178.038 23.34C178.278 23.7 178.458 24.12 178.578 24.6C178.638 24.9 178.698 25.2 178.758 25.5C178.818 25.74 178.728 26.01 178.488 26.31Z" fill="#393737"/>
<path d="M146.98 22.98C147.4 23.4 147.79 23.88 148.15 24.42C148.51 24.9 148.81 25.41 149.05 25.95C149.53 27.09 149.77 28.23 149.77 29.37C149.83 30.45 149.41 31.77 148.51 33.33C147.49 35.01 146.17 36.42 144.55 37.56C142.99 38.7 141.28 39.42 139.42 39.72C138.1 39.96 136.78 39.96 135.46 39.72C134.14 39.42 132.88 38.82 131.68 37.92C131.32 38.22 131.02 38.67 130.78 39.27C130.6 39.81 130.54 40.32 130.6 40.8C130.72 41.64 131.02 42.57 131.5 43.59C132.04 44.55 132.61 45.21 133.21 45.57C134.23 45.99 135.64 46.02 137.44 45.66C139.3 45.3 141.25 44.76 143.29 44.04C145.39 43.26 147.43 42.42 149.41 41.52C151.45 40.56 153.19 39.75 154.63 39.09C154.63 39.45 154.54 39.69 154.36 39.81C154.24 39.93 154.06 40.14 153.82 40.44C153.52 40.74 153.19 41.1 152.83 41.52C152.47 41.94 152.05 42.3 151.57 42.6C150.97 42.96 150.52 43.44 150.22 44.04C149.92 44.58 149.35 45.09 148.51 45.57C147.37 46.17 146.2 46.8 145 47.46C143.86 48.06 142.72 48.63 141.58 49.17C140.44 49.65 139.27 50.04 138.07 50.34C136.93 50.58 135.79 50.64 134.65 50.52C133.87 50.4 133.21 50.19 132.67 49.89C132.19 49.59 131.59 49.14 130.87 48.54C130.51 48.24 130.09 47.94 129.61 47.64C129.13 47.34 128.77 47.04 128.53 46.74C127.51 45.24 126.82 43.65 126.46 41.97C126.1 40.23 126.01 38.52 126.19 36.84C126.43 35.1 126.88 33.42 127.54 31.8C128.2 30.12 129.07 28.59 130.15 27.21C130.75 26.43 131.47 25.65 132.31 24.87C133.21 24.03 134.17 23.31 135.19 22.71C136.27 22.05 137.38 21.54 138.52 21.18C139.72 20.82 140.92 20.67 142.12 20.73C142.6 20.79 143.02 20.94 143.38 21.18C143.8 21.36 144.25 21.57 144.73 21.81C145.03 21.93 145.39 22.11 145.81 22.35C146.29 22.53 146.68 22.74 146.98 22.98ZM144.37 28.29C144.25 27.75 143.92 27.27 143.38 26.85C142.84 26.43 142.24 26.1 141.58 25.86C140.92 25.56 140.26 25.38 139.6 25.32C138.94 25.26 138.46 25.29 138.16 25.41C137.68 25.59 137.11 25.92 136.45 26.4C135.85 26.82 135.25 27.33 134.65 27.93C134.11 28.53 133.57 29.19 133.03 29.91C132.55 30.57 132.19 31.2 131.95 31.8C131.83 31.98 131.71 32.28 131.59 32.7C131.53 33.06 131.56 33.33 131.68 33.51C132.4 34.41 133.48 34.86 134.92 34.86C136.3 34.86 137.77 34.53 139.33 33.87C140.95 33.21 142.09 32.52 142.75 31.8C142.81 31.68 142.93 31.47 143.11 31.17C143.35 30.87 143.56 30.54 143.74 30.18C143.92 29.82 144.07 29.46 144.19 29.1C144.37 28.74 144.43 28.47 144.37 28.29Z" fill="#393737"/>
<path d="M118.844 28.74C119.024 29.04 119.084 29.34 119.024 29.64C119.024 29.88 118.994 30.09 118.934 30.27C118.454 30.81 118.064 31.17 117.764 31.35C117.464 31.53 116.954 31.8 116.234 32.16C116.054 32.28 115.874 32.4 115.694 32.52C115.574 32.64 115.424 32.7 115.244 32.7C114.944 32.7 114.464 32.46 113.804 31.98C113.204 31.5 112.544 31.02 111.824 30.54C111.104 30.06 110.324 29.7 109.484 29.46C108.704 29.22 107.984 29.31 107.324 29.73C106.664 30.63 106.034 31.8 105.434 33.24C104.834 34.62 104.354 36.09 103.994 37.65C103.694 39.21 103.604 40.8 103.724 42.42C103.844 44.04 104.324 45.54 105.164 46.92C108.644 47.28 111.734 46.71 114.434 45.21C117.134 43.65 119.624 41.73 121.904 39.45C121.904 39.87 121.784 40.26 121.544 40.62C121.364 40.92 121.184 41.25 121.004 41.61C120.764 42.15 120.494 42.69 120.194 43.23C119.954 43.71 119.594 44.19 119.114 44.67C118.274 45.57 117.314 46.44 116.234 47.28C115.214 48.12 114.104 48.87 112.904 49.53C111.764 50.13 110.564 50.61 109.304 50.97C108.104 51.27 106.904 51.36 105.704 51.24C105.044 51.18 104.564 51.03 104.264 50.79C104.024 50.49 103.574 50.19 102.914 49.89C102.554 49.65 102.074 49.44 101.474 49.26C100.934 49.08 100.514 48.84 100.214 48.54C99.6144 47.82 99.1644 46.95 98.8644 45.93C98.4444 44.61 98.2344 43.17 98.2344 41.61C98.2344 40.05 98.3244 38.55 98.5044 37.11C98.7444 35.61 99.0444 34.26 99.4044 33.06C99.8244 31.86 100.184 30.93 100.484 30.27C100.844 29.49 101.384 28.83 102.104 28.29C102.824 27.69 103.604 27.15 104.444 26.67C105.344 26.19 106.244 25.74 107.144 25.32C108.044 24.9 108.884 24.51 109.664 24.15C112.724 24.15 115.784 25.68 118.844 28.74Z" fill="#393737"/>
<path d="M69.3111 38.46C70.3311 37.44 71.3511 36.36 72.3711 35.22C73.4511 34.02 74.5611 32.88 75.7011 31.8C76.8411 30.72 78.0111 29.76 79.2111 28.92C80.4111 28.02 81.6711 27.3 82.9911 26.76C83.2911 26.64 83.5611 26.61 83.8011 26.67C84.1011 26.73 84.4011 26.7 84.7011 26.58C85.1811 26.58 85.6011 26.58 85.9611 26.58C86.3211 26.58 86.6511 26.7 86.9511 26.94C87.7911 27.48 88.4511 28.26 88.9311 29.28C89.4711 30.24 89.9211 31.32 90.2811 32.52C90.5211 33.18 90.6411 33.81 90.6411 34.41C90.7011 35.01 90.8811 35.7 91.1811 36.48C91.5411 37.62 91.9311 38.79 92.3511 39.99C92.8311 41.13 93.0111 42.24 92.8911 43.32C92.8311 43.62 92.7411 43.89 92.6211 44.13C92.5011 44.31 92.3511 44.55 92.1711 44.85C92.0511 45.09 91.8411 45.39 91.5411 45.75C91.2411 46.11 90.9411 46.38 90.6411 46.56C90.3411 46.8 90.1311 47.01 90.0111 47.19C89.9511 47.31 89.6811 47.46 89.2011 47.64C88.4211 46.5 87.8211 45.27 87.4011 43.95C86.9811 42.63 86.6211 41.25 86.3211 39.81C86.0211 38.37 85.7511 36.9 85.5111 35.4C85.2711 33.9 84.9711 32.37 84.6111 30.81C84.4911 30.39 84.1011 30.15 83.4411 30.09C82.8411 30.03 82.1211 30.24 81.2811 30.72C80.5011 31.14 79.6611 31.83 78.7611 32.79C77.8611 33.75 77.0511 34.98 76.3311 36.48C75.8511 37.56 75.4011 38.7 74.9811 39.9C74.5611 41.04 74.0811 42.21 73.5411 43.41C73.0611 44.55 72.4611 45.69 71.7411 46.83C71.0811 47.91 70.2711 48.9 69.3111 49.8C69.0111 50.1 68.8011 50.13 68.6811 49.89C68.5611 49.65 68.2611 49.44 67.7811 49.26C67.4211 49.14 67.2111 49.02 67.1511 48.9C67.1511 48.78 67.0611 48.42 66.8811 47.82C66.5211 46.56 66.1311 45.12 65.7111 43.5C65.3511 41.88 64.9311 40.17 64.4511 38.37C64.0311 36.57 63.5811 34.77 63.1011 32.97C62.6211 31.11 62.1411 29.37 61.6611 27.75L61.1211 26.13C61.2411 25.89 61.4511 25.68 61.7511 25.5C62.1111 25.32 62.4711 25.17 62.8311 25.05C63.1911 24.93 63.5811 24.96 64.0011 25.14C64.4211 25.32 64.7511 25.41 64.9911 25.41C65.6511 25.41 66.2211 25.83 66.7011 26.67C67.2411 27.51 67.6911 28.59 68.0511 29.91C68.4111 31.17 68.6811 32.58 68.8611 34.14C69.1011 35.64 69.2511 37.08 69.3111 38.46Z" fill="#393737"/>
<path d="M48.5172 24.69L46.9872 26.22C47.4672 26.16 48.1872 26.04 49.1472 25.86C50.1672 25.62 51.1572 25.5 52.1172 25.5C52.8372 25.62 53.4372 25.86 53.9172 26.22C54.3972 26.58 54.6972 27.27 54.8172 28.29C55.0572 29.73 55.4172 31.2 55.8972 32.7C56.4372 34.14 56.8272 35.58 57.0672 37.02C57.3672 38.46 57.3672 39.84 57.0672 41.16C56.7672 42.42 55.9572 43.56 54.6372 44.58C53.2572 46.68 51.7272 48.45 50.0472 49.89C48.4272 51.27 46.7172 52.08 44.9172 52.32C43.7172 52.5 42.3972 52.35 40.9572 51.87C39.5172 51.33 38.4672 50.43 37.8072 49.17C37.6272 49.29 37.4772 49.32 37.3572 49.26C37.2372 49.14 37.1172 49.02 36.9972 48.9C36.8772 48.78 36.7572 48.75 36.6372 48.81C36.5772 48.87 36.5172 48.84 36.4572 48.72C36.3972 48.54 36.3672 48.3 36.3672 48V47.82V47.64C36.4272 45.54 36.6072 43.44 36.9072 41.34C37.2672 39.18 37.7772 37.11 38.4372 35.13C39.1572 33.09 40.0572 31.2 41.1372 29.46C42.2772 27.66 43.7172 26.07 45.4572 24.69C46.0572 24.33 46.7172 24.21 47.4372 24.33C47.5572 24.33 47.7072 24.33 47.8872 24.33C48.0672 24.33 48.2772 24.45 48.5172 24.69ZM45.4572 30.81C45.0972 30.75 44.8872 30.63 44.8272 30.45C44.7672 30.27 44.7672 30.06 44.8272 29.82C44.9472 29.52 45.0672 29.19 45.1872 28.83C45.3672 28.47 45.4572 28.11 45.4572 27.75C44.1972 28.89 43.2072 30.27 42.4872 31.89C41.8272 33.51 41.3472 35.19 41.0472 36.93C40.7472 38.61 40.5972 40.26 40.5972 41.88C40.6572 43.5 40.7472 44.91 40.8672 46.11C40.9872 47.13 41.1972 47.97 41.4972 48.63C41.7972 49.23 42.2472 49.59 42.8472 49.71C43.5072 49.89 44.3772 49.71 45.4572 49.17C47.0172 48.39 48.2772 47.31 49.2372 45.93C50.1972 44.55 50.9772 43.08 51.5772 41.52C51.8172 40.68 51.9972 39.69 52.1172 38.55C52.2972 37.35 52.2672 36.24 52.0272 35.22C51.7272 33.84 50.9472 32.85 49.6872 32.25C48.4872 31.59 47.0772 31.11 45.4572 30.81Z" fill="#393737"/>
<path d="M28.258 15.33C28.318 15.45 28.348 15.57 28.348 15.69C28.348 15.75 28.378 15.84 28.438 15.96C28.558 16.2 28.528 16.44 28.348 16.68C28.168 16.92 27.988 16.98 27.808 16.86C27.208 16.74 26.608 16.56 26.008 16.32C25.408 16.02 24.808 15.75 24.208 15.51C23.608 15.27 23.008 15.09 22.408 14.97C21.808 14.85 21.238 14.88 20.698 15.06C19.498 15.42 18.238 15.99 16.918 16.77C15.658 17.55 14.398 18.54 13.138 19.74C11.938 20.88 10.798 22.23 9.71805 23.79C8.69805 25.35 7.82805 27.09 7.10805 29.01C6.20805 31.65 5.93805 34.14 6.29805 36.48C6.65805 38.76 7.46805 40.68 8.72805 42.24C10.048 43.8 11.728 44.94 13.768 45.66C15.868 46.32 18.238 46.38 20.878 45.84C22.798 45.42 24.628 44.73 26.368 43.77C28.108 42.81 29.728 41.82 31.228 40.8C30.928 41.28 30.658 41.7 30.418 42.06C30.178 42.42 29.818 42.84 29.338 43.32C29.038 43.62 28.738 44.04 28.438 44.58C28.138 45.06 27.838 45.45 27.538 45.75C25.438 48.03 22.888 49.68 19.888 50.7C19.228 50.94 18.658 51.09 18.178 51.15C17.698 51.15 17.128 51.21 16.468 51.33C15.508 51.33 14.548 51.36 13.588 51.42C12.628 51.48 11.698 51.36 10.798 51.06C8.15805 50.16 5.90805 48.42 4.04805 45.84C3.20805 44.7 2.48805 43.32 1.88805 41.7C1.34805 40.02 0.988047 38.28 0.808047 36.48C0.688047 34.62 0.748047 32.79 0.988047 30.99C1.22805 29.19 1.73805 27.51 2.51805 25.95C4.13805 22.47 6.05805 19.35 8.27805 16.59C10.558 13.83 13.258 11.91 16.378 10.83C18.478 10.05 20.998 9.98998 23.938 10.65C24.658 10.95 25.468 11.55 26.368 12.45C26.668 12.75 26.968 13.05 27.268 13.35C27.568 13.65 27.868 14.07 28.168 14.61C28.228 14.73 28.228 14.85 28.168 14.97C28.168 15.09 28.198 15.21 28.258 15.33Z" fill="#393737"/>
</svg>
